<?xml version="1.0" encoding="utf-8" standalone="no"?>
<!DOCTYPE svg PUBLIC "-//W3C//DTD SVG 1.1//EN"
  "http://www.w3.org/Graphics/SVG/1.1/DTD/svg11.dtd">
<svg xmlns:xlink="http://www.w3.org/1999/xlink" width="1001.309063pt" height="569.384633pt" viewBox="0 0 1001.309063 569.384633" xmlns="http://www.w3.org/2000/svg" version="1.1">
 <metadata>
  <rdf:RDF xmlns:dc="http://purl.org/dc/elements/1.1/" xmlns:cc="http://creativecommons.org/ns#" xmlns:rdf="http://www.w3.org/1999/02/22-rdf-syntax-ns#">
   <cc:Work>
    <dc:type rdf:resource="http://purl.org/dc/dcmitype/StillImage"/>
    <dc:date>2025-10-23T22:16:40.740101</dc:date>
    <dc:format>image/svg+xml</dc:format>
    <dc:creator>
     <cc:Agent>
      <dc:title>Matplotlib v3.10.7, https://matplotlib.org/</dc:title>
     </cc:Agent>
    </dc:creator>
   </cc:Work>
  </rdf:RDF>
 </metadata>
 <defs>
  <style type="text/css">*{stroke-linejoin: round; stroke-linecap: butt}</style>
 </defs>
 <g id="figure_1">
  <g id="patch_1">
   <path d="M 0 569.384633 
L 1001.309063 569.384633 
L 1001.309063 0 
L 0 0 
z
" style="fill: #ffffff"/>
  </g>
  <g id="axes_1">
   <g id="patch_2">
    <path d="M 56.509063 497.797416 
L 994.109063 497.797416 
L 994.109063 39.185 
L 56.509063 39.185 
z
" style="fill: #ffffff"/>
   </g>
   <g id="line2d_1">
    <path d="M 56.509062 497.797416 
L 56.509062 39.185 
" clip-path="url(#pdc17646249)" style="fill: none; stroke: #d3d3d3; stroke-opacity: 0.7; stroke-width: 0.8; stroke-linecap: square"/>
   </g>
   <g id="line2d_2">
    <path d="M 92.570601 497.797416 
L 92.570601 39.185 
" clip-path="url(#pdc17646249)" style="fill: none; stroke: #d3d3d3; stroke-opacity: 0.7; stroke-width: 0.8; stroke-linecap: square"/>
   </g>
   <g id="line2d_3">
    <path d="M 136.359612 497.797416 
L 136.359612 39.185 
" clip-path="url(#pdc17646249)" style="fill: none; stroke: #d3d3d3; stroke-opacity: 0.7; stroke-width: 0.8; stroke-linecap: square"/>
   </g>
   <g id="line2d_4">
    <path d="M 172.42115 497.797416 
L 172.42115 39.185 
" clip-path="url(#pdc17646249)" style="fill: none; stroke: #d3d3d3; stroke-opacity: 0.7; stroke-width: 0.8; stroke-linecap: square"/>
   </g>
   <g id="line2d_5">
    <path d="M 208.482689 497.797416 
L 208.482689 39.185 
" clip-path="url(#pdc17646249)" style="fill: none; stroke: #d3d3d3; stroke-opacity: 0.7; stroke-width: 0.8; stroke-linecap: square"/>
   </g>
   <g id="line2d_6">
    <path d="M 244.544227 497.797416 
L 244.544227 39.185 
" clip-path="url(#pdc17646249)" style="fill: none; stroke: #d3d3d3; stroke-opacity: 0.7; stroke-width: 0.8; stroke-linecap: square"/>
   </g>
   <g id="line2d_7">
    <path d="M 288.333238 497.797416 
L 288.333238 39.185 
" clip-path="url(#pdc17646249)" style="fill: none; stroke: #d3d3d3; stroke-opacity: 0.7; stroke-width: 0.8; stroke-linecap: square"/>
   </g>
   <g id="line2d_8">
    <path d="M 324.394777 497.797416 
L 324.394777 39.185 
" clip-path="url(#pdc17646249)" style="fill: none; stroke: #d3d3d3; stroke-opacity: 0.7; stroke-width: 0.8; stroke-linecap: square"/>
   </g>
   <g id="line2d_9">
    <path d="M 365.607964 497.797416 
L 365.607964 39.185 
" clip-path="url(#pdc17646249)" style="fill: none; stroke: #d3d3d3; stroke-opacity: 0.7; stroke-width: 0.8; stroke-linecap: square"/>
   </g>
   <g id="line2d_10">
    <path d="M 401.669502 497.797416 
L 401.669502 39.185 
" clip-path="url(#pdc17646249)" style="fill: none; stroke: #d3d3d3; stroke-opacity: 0.7; stroke-width: 0.8; stroke-linecap: square"/>
   </g>
   <g id="line2d_11">
    <path d="M 445.458513 497.797416 
L 445.458513 39.185 
" clip-path="url(#pdc17646249)" style="fill: none; stroke: #d3d3d3; stroke-opacity: 0.7; stroke-width: 0.8; stroke-linecap: square"/>
   </g>
   <g id="line2d_12">
    <path d="M 481.520052 497.797416 
L 481.520052 39.185 
" clip-path="url(#pdc17646249)" style="fill: none; stroke: #d3d3d3; stroke-opacity: 0.7; stroke-width: 0.8; stroke-linecap: square"/>
   </g>
   <g id="line2d_13">
    <path d="M 522.733238 497.797416 
L 522.733238 39.185 
" clip-path="url(#pdc17646249)" style="fill: none; stroke: #d3d3d3; stroke-opacity: 0.7; stroke-width: 0.8; stroke-linecap: square"/>
   </g>
   <g id="line2d_14">
    <path d="M 558.794777 497.797416 
L 558.794777 39.185 
" clip-path="url(#pdc17646249)" style="fill: none; stroke: #d3d3d3; stroke-opacity: 0.7; stroke-width: 0.8; stroke-linecap: square"/>
   </g>
   <g id="line2d_15">
    <path d="M 602.583788 497.797416 
L 602.583788 39.185 
" clip-path="url(#pdc17646249)" style="fill: none; stroke: #d3d3d3; stroke-opacity: 0.7; stroke-width: 0.8; stroke-linecap: square"/>
   </g>
   <g id="line2d_16">
    <path d="M 638.645326 497.797416 
L 638.645326 39.185 
" clip-path="url(#pdc17646249)" style="fill: none; stroke: #d3d3d3; stroke-opacity: 0.7; stroke-width: 0.8; stroke-linecap: square"/>
   </g>
   <g id="line2d_17">
    <path d="M 682.434337 497.797416 
L 682.434337 39.185 
" clip-path="url(#pdc17646249)" style="fill: none; stroke: #d3d3d3; stroke-opacity: 0.7; stroke-width: 0.8; stroke-linecap: square"/>
   </g>
   <g id="line2d_18">
    <path d="M 718.495876 497.797416 
L 718.495876 39.185 
" clip-path="url(#pdc17646249)" style="fill: none; stroke: #d3d3d3; stroke-opacity: 0.7; stroke-width: 0.8; stroke-linecap: square"/>
   </g>
   <g id="line2d_19">
    <path d="M 759.709062 497.797416 
L 759.709062 39.185 
" clip-path="url(#pdc17646249)" style="fill: none; stroke: #d3d3d3; stroke-opacity: 0.7; stroke-width: 0.8; stroke-linecap: square"/>
   </g>
   <g id="line2d_20">
    <path d="M 795.770601 497.797416 
L 795.770601 39.185 
" clip-path="url(#pdc17646249)" style="fill: none; stroke: #d3d3d3; stroke-opacity: 0.7; stroke-width: 0.8; stroke-linecap: square"/>
   </g>
   <g id="line2d_21">
    <path d="M 839.559612 497.797416 
L 839.559612 39.185 
" clip-path="url(#pdc17646249)" style="fill: none; stroke: #d3d3d3; stroke-opacity: 0.7; stroke-width: 0.8; stroke-linecap: square"/>
   </g>
   <g id="line2d_22">
    <path d="M 875.62115 497.797416 
L 875.62115 39.185 
" clip-path="url(#pdc17646249)" style="fill: none; stroke: #d3d3d3; stroke-opacity: 0.7; stroke-width: 0.8; stroke-linecap: square"/>
   </g>
   <g id="line2d_23">
    <path d="M 916.834337 497.797416 
L 916.834337 39.185 
" clip-path="url(#pdc17646249)" style="fill: none; stroke: #d3d3d3; stroke-opacity: 0.7; stroke-width: 0.8; stroke-linecap: square"/>
   </g>
   <g id="line2d_24">
    <path d="M 952.895876 497.797416 
L 952.895876 39.185 
" clip-path="url(#pdc17646249)" style="fill: none; stroke: #d3d3d3; stroke-opacity: 0.7; stroke-width: 0.8; stroke-linecap: square"/>
   </g>
   <g id="line2d_25">
    <path d="M 56.509063 39.185 
L 994.109063 39.185 
" clip-path="url(#pdc17646249)" style="fill: none; stroke: #d3d3d3; stroke-opacity: 0.7; stroke-width: 0.8; stroke-linecap: square"/>
   </g>
   <g id="line2d_26">
    <path d="M 56.509063 58.293851 
L 994.109063 58.293851 
" clip-path="url(#pdc17646249)" style="fill: none; stroke: #d3d3d3; stroke-opacity: 0.7; stroke-width: 0.8; stroke-linecap: square"/>
   </g>
   <g id="line2d_27">
    <path d="M 56.509063 77.402701 
L 994.109063 77.402701 
" clip-path="url(#pdc17646249)" style="fill: none; stroke: #d3d3d3; stroke-opacity: 0.7; stroke-width: 0.8; stroke-linecap: square"/>
   </g>
   <g id="line2d_28">
    <path d="M 56.509063 96.511552 
L 994.109063 96.511552 
" clip-path="url(#pdc17646249)" style="fill: none; stroke: #d3d3d3; stroke-opacity: 0.7; stroke-width: 0.8; stroke-linecap: square"/>
   </g>
   <g id="line2d_29">
    <path d="M 56.509063 115.620403 
L 994.109063 115.620403 
" clip-path="url(#pdc17646249)" style="fill: none; stroke: #d3d3d3; stroke-opacity: 0.7; stroke-width: 0.8; stroke-linecap: square"/>
   </g>
   <g id="line2d_30">
    <path d="M 56.509063 134.729253 
L 994.109063 134.729253 
" clip-path="url(#pdc17646249)" style="fill: none; stroke: #d3d3d3; stroke-opacity: 0.7; stroke-width: 0.8; stroke-linecap: square"/>
   </g>
   <g id="line2d_31">
    <path d="M 56.509063 153.838104 
L 994.109063 153.838104 
" clip-path="url(#pdc17646249)" style="fill: none; stroke: #d3d3d3; stroke-opacity: 0.7; stroke-width: 0.8; stroke-linecap: square"/>
   </g>
   <g id="line2d_32">
    <path d="M 56.509063 172.946955 
L 994.109063 172.946955 
" clip-path="url(#pdc17646249)" style="fill: none; stroke: #d3d3d3; stroke-opacity: 0.7; stroke-width: 0.8; stroke-linecap: square"/>
   </g>
   <g id="line2d_33">
    <path d="M 56.509063 192.055805 
L 994.109063 192.055805 
" clip-path="url(#pdc17646249)" style="fill: none; stroke: #d3d3d3; stroke-opacity: 0.7; stroke-width: 0.8; stroke-linecap: square"/>
   </g>
   <g id="line2d_34">
    <path d="M 56.509063 211.164656 
L 994.109063 211.164656 
" clip-path="url(#pdc17646249)" style="fill: none; stroke: #d3d3d3; stroke-opacity: 0.7; stroke-width: 0.8; stroke-linecap: square"/>
   </g>
   <g id="line2d_35">
    <path d="M 56.509063 230.273507 
L 994.109063 230.273507 
" clip-path="url(#pdc17646249)" style="fill: none; stroke: #d3d3d3; stroke-opacity: 0.7; stroke-width: 0.8; stroke-linecap: square"/>
   </g>
   <g id="line2d_36">
    <path d="M 56.509063 249.382357 
L 994.109063 249.382357 
" clip-path="url(#pdc17646249)" style="fill: none; stroke: #d3d3d3; stroke-opacity: 0.7; stroke-width: 0.8; stroke-linecap: square"/>
   </g>
   <g id="line2d_37">
    <path d="M 56.509063 268.491208 
L 994.109063 268.491208 
" clip-path="url(#pdc17646249)" style="fill: none; stroke: #d3d3d3; stroke-opacity: 0.7; stroke-width: 0.8; stroke-linecap: square"/>
   </g>
   <g id="line2d_38">
    <path d="M 56.509063 287.600058 
L 994.109063 287.600058 
" clip-path="url(#pdc17646249)" style="fill: none; stroke: #d3d3d3; stroke-opacity: 0.7; stroke-width: 0.8; stroke-linecap: square"/>
   </g>
   <g id="line2d_39">
    <path d="M 56.509063 306.708909 
L 994.109063 306.708909 
" clip-path="url(#pdc17646249)" style="fill: none; stroke: #d3d3d3; stroke-opacity: 0.7; stroke-width: 0.8; stroke-linecap: square"/>
   </g>
   <g id="line2d_40">
    <path d="M 56.509063 325.81776 
L 994.109063 325.81776 
" clip-path="url(#pdc17646249)" style="fill: none; stroke: #d3d3d3; stroke-opacity: 0.7; stroke-width: 0.8; stroke-linecap: square"/>
   </g>
   <g id="line2d_41">
    <path d="M 56.509063 344.92661 
L 994.109063 344.92661 
" clip-path="url(#pdc17646249)" style="fill: none; stroke: #d3d3d3; stroke-opacity: 0.7; stroke-width: 0.8; stroke-linecap: square"/>
   </g>
   <g id="line2d_42">
    <path d="M 56.509063 364.035461 
L 994.109063 364.035461 
" clip-path="url(#pdc17646249)" style="fill: none; stroke: #d3d3d3; stroke-opacity: 0.7; stroke-width: 0.8; stroke-linecap: square"/>
   </g>
   <g id="line2d_43">
    <path d="M 56.509063 383.144312 
L 994.109063 383.144312 
" clip-path="url(#pdc17646249)" style="fill: none; stroke: #d3d3d3; stroke-opacity: 0.7; stroke-width: 0.8; stroke-linecap: square"/>
   </g>
   <g id="line2d_44">
    <path d="M 56.509063 402.253162 
L 994.109063 402.253162 
" clip-path="url(#pdc17646249)" style="fill: none; stroke: #d3d3d3; stroke-opacity: 0.7; stroke-width: 0.8; stroke-linecap: square"/>
   </g>
   <g id="line2d_45">
    <path d="M 56.509063 421.362013 
L 994.109063 421.362013 
" clip-path="url(#pdc17646249)" style="fill: none; stroke: #d3d3d3; stroke-opacity: 0.7; stroke-width: 0.8; stroke-linecap: square"/>
   </g>
   <g id="line2d_46">
    <path d="M 56.509063 440.470864 
L 994.109063 440.470864 
" clip-path="url(#pdc17646249)" style="fill: none; stroke: #d3d3d3; stroke-opacity: 0.7; stroke-width: 0.8; stroke-linecap: square"/>
   </g>
   <g id="line2d_47">
    <path d="M 56.509063 459.579714 
L 994.109063 459.579714 
" clip-path="url(#pdc17646249)" style="fill: none; stroke: #d3d3d3; stroke-opacity: 0.7; stroke-width: 0.8; stroke-linecap: square"/>
   </g>
   <g id="line2d_48">
    <path d="M 56.509063 478.688565 
L 994.109063 478.688565 
" clip-path="url(#pdc17646249)" style="fill: none; stroke: #d3d3d3; stroke-opacity: 0.7; stroke-width: 0.8; stroke-linecap: square"/>
   </g>
   <g id="line2d_49">
    <path d="M 56.509063 497.797416 
L 994.109063 497.797416 
" clip-path="url(#pdc17646249)" style="fill: none; stroke: #d3d3d3; stroke-opacity: 0.7; stroke-width: 0.8; stroke-linecap: square"/>
   </g>
   <g id="matplotlib.axis_1">
    <g id="xtick_1">
     <g id="line2d_50">
      <path d="M 56.509062 497.797416 
L 56.509062 39.185 
" clip-path="url(#pdc17646249)" style="fill: none; stroke-dasharray: 0.5,0.825; stroke-dashoffset: 0; stroke: #d3d3d3; stroke-opacity: 0.3; stroke-width: 0.5"/>
     </g>
     <g id="line2d_51">
      <defs>
       <path id="md10a7b0950" d="M 0 0 
L 0 3.5 
" style="stroke: #000000; stroke-width: 0.8"/>
      </defs>
      <g>
       <use xlink:href="#md10a7b0950" x="56.509062" y="497.797416" style="stroke: #000000; stroke-width: 0.8"/>
      </g>
     </g>
     <g id="text_1">
      <!-- January -->
      <g transform="translate(29.779321 535.345533) rotate(-45) scale(0.1 -0.1)">
       <defs>
        <path id="IBMPlexSans-4a" d="M 627 4467 
L 627 3994 
L 2163 3994 
L 2163 1254 
C 2163 685 1894 403 1434 403 
C 979 403 749 672 666 1056 
L 179 941 
C 301 333 730 -77 1421 -77 
C 2176 -77 2701 403 2701 1158 
L 2701 4467 
L 627 4467 
z
" transform="scale(0.015625)"/>
        <path id="IBMPlexSans-61" d="M 3232 0 
L 3232 448 
L 2854 448 
L 2854 2266 
C 2854 2963 2381 3379 1587 3379 
C 992 3379 595 3085 416 2733 
L 723 2445 
C 902 2746 1165 2938 1562 2938 
C 2086 2938 2342 2682 2342 2214 
L 2342 1888 
L 1690 1888 
C 730 1888 282 1542 282 922 
C 282 307 691 -77 1389 -77 
C 1850 -77 2202 134 2342 538 
L 2374 538 
C 2413 230 2566 0 2944 0 
L 3232 0 
z
M 1472 358 
C 1075 358 819 544 819 870 
L 819 1005 
C 819 1325 1082 1504 1664 1504 
L 2342 1504 
L 2342 960 
C 2342 621 1978 358 1472 358 
z
" transform="scale(0.015625)"/>
        <path id="IBMPlexSans-6e" d="M 1056 0 
L 1056 2291 
C 1056 2714 1453 2918 1862 2918 
C 2355 2918 2611 2618 2611 2029 
L 2611 0 
L 3123 0 
L 3123 2118 
C 3123 2918 2694 3379 2016 3379 
C 1523 3379 1242 3136 1082 2765 
L 1056 2765 
L 1056 3302 
L 544 3302 
L 544 0 
L 1056 0 
z
" transform="scale(0.015625)"/>
        <path id="IBMPlexSans-75" d="M 2579 0 
L 3091 0 
L 3091 3302 
L 2579 3302 
L 2579 1018 
C 2579 582 2182 384 1779 384 
C 1286 384 1024 685 1024 1274 
L 1024 3302 
L 512 3302 
L 512 1184 
C 512 384 947 -77 1626 -77 
C 2176 -77 2426 224 2554 538 
L 2579 538 
L 2579 0 
z
" transform="scale(0.015625)"/>
        <path id="IBMPlexSans-72" d="M 1056 0 
L 1056 2240 
C 1056 2554 1389 2790 1939 2790 
L 2240 2790 
L 2240 3302 
L 2042 3302 
C 1504 3302 1203 3008 1088 2694 
L 1056 2694 
L 1056 3302 
L 544 3302 
L 544 0 
L 1056 0 
z
" transform="scale(0.015625)"/>
        <path id="IBMPlexSans-79" d="M 1779 1056 
L 1600 518 
L 1568 518 
L 1414 1056 
L 621 3302 
L 109 3302 
L 1344 -128 
L 1094 -832 
L 576 -832 
L 576 -1280 
L 838 -1280 
C 1325 -1280 1459 -1165 1606 -768 
L 3085 3302 
L 2579 3302 
L 1779 1056 
z
" transform="scale(0.015625)"/>
       </defs>
       <use xlink:href="#IBMPlexSans-4a"/>
       <use xlink:href="#IBMPlexSans-61" transform="translate(50.999985 0)"/>
       <use xlink:href="#IBMPlexSans-6e" transform="translate(104.399979 0)"/>
       <use xlink:href="#IBMPlexSans-75" transform="translate(161.199966 0)"/>
       <use xlink:href="#IBMPlexSans-61" transform="translate(217.999954 0)"/>
       <use xlink:href="#IBMPlexSans-72" transform="translate(271.399948 0)"/>
       <use xlink:href="#IBMPlexSans-79" transform="translate(308.099945 0)"/>
      </g>
     </g>
    </g>
    <g id="xtick_2">
     <g id="line2d_52">
      <path d="M 136.359612 497.797416 
L 136.359612 39.185 
" clip-path="url(#pdc17646249)" style="fill: none; stroke-dasharray: 0.5,0.825; stroke-dashoffset: 0; stroke: #d3d3d3; stroke-opacity: 0.3; stroke-width: 0.5"/>
     </g>
     <g id="line2d_53">
      <g>
       <use xlink:href="#md10a7b0950" x="136.359612" y="497.797416" style="stroke: #000000; stroke-width: 0.8"/>
      </g>
     </g>
     <g id="text_2">
      <!-- February -->
      <g transform="translate(106.496504 538.4789) rotate(-45) scale(0.1 -0.1)">
       <defs>
        <path id="IBMPlexSans-46" d="M 1133 0 
L 1133 2022 
L 3072 2022 
L 3072 2496 
L 1133 2496 
L 1133 3994 
L 3258 3994 
L 3258 4467 
L 595 4467 
L 595 0 
L 1133 0 
z
" transform="scale(0.015625)"/>
        <path id="IBMPlexSans-65" d="M 1786 -77 
C 2406 -77 2880 230 3091 678 
L 2726 941 
C 2554 576 2234 371 1818 371 
C 1203 371 838 800 838 1370 
L 838 1523 
L 3213 1523 
L 3213 1766 
C 3213 2701 2669 3379 1786 3379 
C 890 3379 301 2701 301 1651 
C 301 602 890 -77 1786 -77 
z
M 1786 2950 
C 2310 2950 2662 2560 2662 1978 
L 2662 1907 
L 838 1907 
L 838 1952 
C 838 2528 1229 2950 1786 2950 
z
" transform="scale(0.015625)"/>
        <path id="IBMPlexSans-62" d="M 544 0 
L 1056 0 
L 1056 538 
L 1082 538 
C 1280 128 1594 -77 2048 -77 
C 2874 -77 3392 595 3392 1651 
C 3392 2707 2874 3379 2048 3379 
C 1594 3379 1254 3181 1082 2765 
L 1056 2765 
L 1056 4736 
L 544 4736 
L 544 0 
z
M 1907 384 
C 1440 384 1056 627 1056 1056 
L 1056 2285 
C 1056 2650 1440 2918 1907 2918 
C 2483 2918 2842 2522 2842 1933 
L 2842 1370 
C 2842 781 2483 384 1907 384 
z
" transform="scale(0.015625)"/>
       </defs>
       <use xlink:href="#IBMPlexSans-46"/>
       <use xlink:href="#IBMPlexSans-65" transform="translate(55.899994 0)"/>
       <use xlink:href="#IBMPlexSans-62" transform="translate(110.799988 0)"/>
       <use xlink:href="#IBMPlexSans-72" transform="translate(168.799973 0)"/>
       <use xlink:href="#IBMPlexSans-75" transform="translate(205.499969 0)"/>
       <use xlink:href="#IBMPlexSans-61" transform="translate(262.299957 0)"/>
       <use xlink:href="#IBMPlexSans-72" transform="translate(315.699951 0)"/>
       <use xlink:href="#IBMPlexSans-79" transform="translate(352.399948 0)"/>
      </g>
     </g>
    </g>
    <g id="xtick_3">
     <g id="line2d_54">
      <path d="M 208.482689 497.797416 
L 208.482689 39.185 
" clip-path="url(#pdc17646249)" style="fill: none; stroke-dasharray: 0.5,0.825; stroke-dashoffset: 0; stroke: #d3d3d3; stroke-opacity: 0.3; stroke-width: 0.5"/>
     </g>
     <g id="line2d_55">
      <g>
       <use xlink:href="#md10a7b0950" x="208.482689" y="497.797416" style="stroke: #000000; stroke-width: 0.8"/>
      </g>
     </g>
     <g id="text_3">
      <!-- March -->
      <g transform="translate(187.382181 529.716301) rotate(-45) scale(0.1 -0.1)">
       <defs>
        <path id="IBMPlexSans-4d" d="M 595 0 
L 1120 0 
L 1120 3763 
L 1152 3763 
L 1530 3014 
L 2598 1069 
L 3667 3014 
L 4045 3763 
L 4077 3763 
L 4077 0 
L 4602 0 
L 4602 4467 
L 3910 4467 
L 2624 2061 
L 2592 2061 
L 1312 4467 
L 595 4467 
L 595 0 
z
" transform="scale(0.015625)"/>
        <path id="IBMPlexSans-63" d="M 1773 -77 
C 2400 -77 2829 230 3040 704 
L 2669 954 
C 2490 576 2189 378 1773 378 
C 1165 378 851 794 851 1370 
L 851 1933 
C 851 2509 1165 2925 1773 2925 
C 2176 2925 2458 2726 2579 2387 
L 3008 2605 
C 2816 3059 2426 3379 1773 3379 
C 845 3379 301 2707 301 1651 
C 301 595 845 -77 1773 -77 
z
" transform="scale(0.015625)"/>
        <path id="IBMPlexSans-68" d="M 544 0 
L 1056 0 
L 1056 2291 
C 1056 2714 1453 2918 1862 2918 
C 2355 2918 2611 2618 2611 2029 
L 2611 0 
L 3123 0 
L 3123 2118 
C 3123 2918 2694 3379 2016 3379 
C 1523 3379 1242 3136 1082 2765 
L 1056 2765 
L 1056 4736 
L 544 4736 
L 544 0 
z
" transform="scale(0.015625)"/>
       </defs>
       <use xlink:href="#IBMPlexSans-4d"/>
       <use xlink:href="#IBMPlexSans-61" transform="translate(81.199982 0)"/>
       <use xlink:href="#IBMPlexSans-72" transform="translate(134.599976 0)"/>
       <use xlink:href="#IBMPlexSans-63" transform="translate(171.299973 0)"/>
       <use xlink:href="#IBMPlexSans-68" transform="translate(221.59996 0)"/>
      </g>
     </g>
    </g>
    <g id="xtick_4">
     <g id="line2d_56">
      <path d="M 288.333238 497.797416 
L 288.333238 39.185 
" clip-path="url(#pdc17646249)" style="fill: none; stroke-dasharray: 0.5,0.825; stroke-dashoffset: 0; stroke: #d3d3d3; stroke-opacity: 0.3; stroke-width: 0.5"/>
     </g>
     <g id="line2d_57">
      <g>
       <use xlink:href="#md10a7b0950" x="288.333238" y="497.797416" style="stroke: #000000; stroke-width: 0.8"/>
      </g>
     </g>
     <g id="text_4">
      <!-- April -->
      <g transform="translate(271.999072 524.949959) rotate(-45) scale(0.1 -0.1)">
       <defs>
        <path id="IBMPlexSans-41" d="M 3955 0 
L 2394 4467 
L 1709 4467 
L 147 0 
L 691 0 
L 1139 1318 
L 2944 1318 
L 3392 0 
L 3955 0 
z
M 2810 1792 
L 1267 1792 
L 2022 3968 
L 2054 3968 
L 2810 1792 
z
" transform="scale(0.015625)"/>
        <path id="IBMPlexSans-70" d="M 544 -1280 
L 1056 -1280 
L 1056 538 
L 1082 538 
C 1280 128 1594 -77 2048 -77 
C 2874 -77 3392 595 3392 1651 
C 3392 2707 2874 3379 2048 3379 
C 1594 3379 1254 3181 1082 2765 
L 1056 2765 
L 1056 3302 
L 544 3302 
L 544 -1280 
z
M 1907 384 
C 1440 384 1056 627 1056 1056 
L 1056 2285 
C 1056 2650 1440 2918 1907 2918 
C 2483 2918 2842 2522 2842 1933 
L 2842 1370 
C 2842 781 2483 384 1907 384 
z
" transform="scale(0.015625)"/>
        <path id="IBMPlexSans-69" d="M 800 4077 
C 1018 4077 1114 4192 1114 4365 
L 1114 4448 
C 1114 4621 1018 4736 800 4736 
C 582 4736 486 4621 486 4448 
L 486 4365 
C 486 4192 582 4077 800 4077 
z
M 544 0 
L 1056 0 
L 1056 3302 
L 544 3302 
L 544 0 
z
" transform="scale(0.015625)"/>
        <path id="IBMPlexSans-6c" d="M 1542 0 
L 1542 448 
L 1056 448 
L 1056 4736 
L 544 4736 
L 544 531 
C 544 224 736 0 1088 0 
L 1542 0 
z
" transform="scale(0.015625)"/>
       </defs>
       <use xlink:href="#IBMPlexSans-41"/>
       <use xlink:href="#IBMPlexSans-70" transform="translate(64.099991 0)"/>
       <use xlink:href="#IBMPlexSans-72" transform="translate(122.099976 0)"/>
       <use xlink:href="#IBMPlexSans-69" transform="translate(158.799973 0)"/>
       <use xlink:href="#IBMPlexSans-6c" transform="translate(183.799957 0)"/>
      </g>
     </g>
    </g>
    <g id="xtick_5">
     <g id="line2d_58">
      <path d="M 365.607964 497.797416 
L 365.607964 39.185 
" clip-path="url(#pdc17646249)" style="fill: none; stroke-dasharray: 0.5,0.825; stroke-dashoffset: 0; stroke: #d3d3d3; stroke-opacity: 0.3; stroke-width: 0.5"/>
     </g>
     <g id="line2d_59">
      <g>
       <use xlink:href="#md10a7b0950" x="365.607964" y="497.797416" style="stroke: #000000; stroke-width: 0.8"/>
      </g>
     </g>
     <g id="text_5">
      <!-- May -->
      <g transform="translate(351.146525 523.077231) rotate(-45) scale(0.1 -0.1)">
       <use xlink:href="#IBMPlexSans-4d"/>
       <use xlink:href="#IBMPlexSans-61" transform="translate(81.199982 0)"/>
       <use xlink:href="#IBMPlexSans-79" transform="translate(134.599976 0)"/>
      </g>
     </g>
    </g>
    <g id="xtick_6">
     <g id="line2d_60">
      <path d="M 445.458513 497.797416 
L 445.458513 39.185 
" clip-path="url(#pdc17646249)" style="fill: none; stroke-dasharray: 0.5,0.825; stroke-dashoffset: 0; stroke: #d3d3d3; stroke-opacity: 0.3; stroke-width: 0.5"/>
     </g>
     <g id="line2d_61">
      <g>
       <use xlink:href="#md10a7b0950" x="445.458513" y="497.797416" style="stroke: #000000; stroke-width: 0.8"/>
      </g>
     </g>
     <g id="text_6">
      <!-- June -->
      <g transform="translate(428.523306 525.551) rotate(-45) scale(0.1 -0.1)">
       <use xlink:href="#IBMPlexSans-4a"/>
       <use xlink:href="#IBMPlexSans-75" transform="translate(50.999985 0)"/>
       <use xlink:href="#IBMPlexSans-6e" transform="translate(107.799973 0)"/>
       <use xlink:href="#IBMPlexSans-65" transform="translate(164.59996 0)"/>
      </g>
     </g>
    </g>
    <g id="xtick_7">
     <g id="line2d_62">
      <path d="M 522.733238 497.797416 
L 522.733238 39.185 
" clip-path="url(#pdc17646249)" style="fill: none; stroke-dasharray: 0.5,0.825; stroke-dashoffset: 0; stroke: #d3d3d3; stroke-opacity: 0.3; stroke-width: 0.5"/>
     </g>
     <g id="line2d_63">
      <g>
       <use xlink:href="#md10a7b0950" x="522.733238" y="497.797416" style="stroke: #000000; stroke-width: 0.8"/>
      </g>
     </g>
     <g id="text_7">
      <!-- July -->
      <g transform="translate(508.244178 523.104852) rotate(-45) scale(0.1 -0.1)">
       <use xlink:href="#IBMPlexSans-4a"/>
       <use xlink:href="#IBMPlexSans-75" transform="translate(50.999985 0)"/>
       <use xlink:href="#IBMPlexSans-6c" transform="translate(107.799973 0)"/>
       <use xlink:href="#IBMPlexSans-79" transform="translate(134.999969 0)"/>
      </g>
     </g>
    </g>
    <g id="xtick_8">
     <g id="line2d_64">
      <path d="M 602.583788 497.797416 
L 602.583788 39.185 
" clip-path="url(#pdc17646249)" style="fill: none; stroke-dasharray: 0.5,0.825; stroke-dashoffset: 0; stroke: #d3d3d3; stroke-opacity: 0.3; stroke-width: 0.5"/>
     </g>
     <g id="line2d_65">
      <g>
       <use xlink:href="#md10a7b0950" x="602.583788" y="497.797416" style="stroke: #000000; stroke-width: 0.8"/>
      </g>
     </g>
     <g id="text_8">
      <!-- August -->
      <g transform="translate(578.86146 532.167972) rotate(-45) scale(0.1 -0.1)">
       <defs>
        <path id="IBMPlexSans-67" d="M 3328 -365 
C 3328 179 2976 512 2157 512 
L 1453 512 
C 1152 512 947 563 947 762 
C 947 966 1165 1075 1382 1133 
C 1478 1114 1594 1101 1702 1101 
C 2458 1101 2950 1568 2950 2240 
C 2950 2592 2810 2886 2573 3091 
L 2573 3302 
L 3200 3302 
L 3200 3750 
L 2707 3750 
C 2432 3750 2323 3565 2323 3309 
L 2323 3251 
C 2144 3334 1933 3379 1696 3379 
C 947 3379 454 2912 454 2240 
C 454 1779 685 1414 1075 1229 
L 1075 1203 
C 742 1120 506 960 506 627 
C 506 403 614 256 800 166 
L 800 96 
C 474 6 275 -186 275 -544 
C 275 -1062 698 -1357 1728 -1357 
C 2790 -1357 3328 -1043 3328 -365 
z
M 2848 -403 
C 2848 -762 2515 -941 1946 -941 
L 1472 -941 
C 954 -941 755 -704 755 -416 
C 755 -211 851 -64 1062 32 
L 2163 32 
C 2675 32 2848 -141 2848 -403 
z
M 1702 1510 
C 1267 1510 992 1715 992 2150 
L 992 2330 
C 992 2765 1267 2970 1702 2970 
C 2138 2970 2413 2765 2413 2330 
L 2413 2150 
C 2413 1715 2138 1510 1702 1510 
z
" transform="scale(0.015625)"/>
        <path id="IBMPlexSans-73" d="M 1536 -77 
C 2291 -77 2758 314 2758 954 
C 2758 1453 2477 1773 1747 1882 
L 1491 1920 
C 1082 1984 858 2112 858 2432 
C 858 2746 1082 2944 1504 2944 
C 1926 2944 2208 2746 2355 2541 
L 2694 2848 
C 2426 3181 2074 3379 1542 3379 
C 870 3379 365 3059 365 2406 
C 365 1792 819 1542 1427 1453 
L 1690 1414 
C 2125 1350 2266 1152 2266 896 
C 2266 557 2010 358 1574 358 
C 1158 358 851 544 595 864 
L 230 570 
C 525 179 928 -77 1536 -77 
z
" transform="scale(0.015625)"/>
        <path id="IBMPlexSans-74" d="M 1914 0 
L 1914 448 
L 1242 448 
L 1242 2854 
L 1965 2854 
L 1965 3302 
L 1242 3302 
L 1242 4218 
L 781 4218 
L 781 3603 
C 781 3379 710 3302 493 3302 
L 186 3302 
L 186 2854 
L 730 2854 
L 730 544 
C 730 224 922 0 1274 0 
L 1914 0 
z
" transform="scale(0.015625)"/>
       </defs>
       <use xlink:href="#IBMPlexSans-41"/>
       <use xlink:href="#IBMPlexSans-75" transform="translate(64.099991 0)"/>
       <use xlink:href="#IBMPlexSans-67" transform="translate(120.899979 0)"/>
       <use xlink:href="#IBMPlexSans-75" transform="translate(173.699966 0)"/>
       <use xlink:href="#IBMPlexSans-73" transform="translate(230.499954 0)"/>
       <use xlink:href="#IBMPlexSans-74" transform="translate(279.199951 0)"/>
      </g>
     </g>
    </g>
    <g id="xtick_9">
     <g id="line2d_66">
      <path d="M 682.434337 497.797416 
L 682.434337 39.185 
" clip-path="url(#pdc17646249)" style="fill: none; stroke-dasharray: 0.5,0.825; stroke-dashoffset: 0; stroke: #d3d3d3; stroke-opacity: 0.3; stroke-width: 0.5"/>
     </g>
     <g id="line2d_67">
      <g>
       <use xlink:href="#md10a7b0950" x="682.434337" y="497.797416" style="stroke: #000000; stroke-width: 0.8"/>
      </g>
     </g>
     <g id="text_9">
      <!-- September -->
      <g transform="translate(645.812835 545.237294) rotate(-45) scale(0.1 -0.1)">
       <defs>
        <path id="IBMPlexSans-53" d="M 1850 -77 
C 2810 -77 3386 448 3386 1267 
C 3386 1933 3008 2317 2138 2515 
L 1773 2598 
C 1210 2726 934 2918 934 3341 
C 934 3821 1286 4070 1856 4070 
C 2374 4070 2714 3859 2957 3520 
L 3360 3814 
C 3027 4288 2554 4544 1882 4544 
C 1005 4544 403 4115 403 3322 
C 403 2637 851 2278 1664 2093 
L 2029 2010 
C 2618 1875 2854 1664 2854 1242 
C 2854 730 2509 397 1869 397 
C 1350 397 979 621 666 1037 
L 269 704 
C 627 218 1133 -77 1850 -77 
z
" transform="scale(0.015625)"/>
        <path id="IBMPlexSans-6d" d="M 1056 0 
L 1056 2291 
C 1056 2714 1440 2918 1843 2918 
C 2330 2918 2554 2618 2554 2029 
L 2554 0 
L 3066 0 
L 3066 2291 
C 3066 2714 3437 2918 3840 2918 
C 4339 2918 4563 2611 4563 2029 
L 4563 0 
L 5075 0 
L 5075 2118 
C 5075 2918 4672 3379 4000 3379 
C 3437 3379 3117 3066 2995 2707 
L 2982 2707 
C 2803 3181 2406 3379 1971 3379 
C 1459 3379 1229 3104 1082 2765 
L 1056 2765 
L 1056 3302 
L 544 3302 
L 544 0 
L 1056 0 
z
" transform="scale(0.015625)"/>
       </defs>
       <use xlink:href="#IBMPlexSans-53"/>
       <use xlink:href="#IBMPlexSans-65" transform="translate(58.099991 0)"/>
       <use xlink:href="#IBMPlexSans-70" transform="translate(112.999985 0)"/>
       <use xlink:href="#IBMPlexSans-74" transform="translate(170.999969 0)"/>
       <use xlink:href="#IBMPlexSans-65" transform="translate(206.09996 0)"/>
       <use xlink:href="#IBMPlexSans-6d" transform="translate(260.999954 0)"/>
       <use xlink:href="#IBMPlexSans-62" transform="translate(348.299942 0)"/>
       <use xlink:href="#IBMPlexSans-65" transform="translate(406.299927 0)"/>
       <use xlink:href="#IBMPlexSans-72" transform="translate(461.199921 0)"/>
      </g>
     </g>
    </g>
    <g id="xtick_10">
     <g id="line2d_68">
      <path d="M 759.709062 497.797416 
L 759.709062 39.185 
" clip-path="url(#pdc17646249)" style="fill: none; stroke-dasharray: 0.5,0.825; stroke-dashoffset: 0; stroke: #d3d3d3; stroke-opacity: 0.3; stroke-width: 0.5"/>
     </g>
     <g id="line2d_69">
      <g>
       <use xlink:href="#md10a7b0950" x="759.709062" y="497.797416" style="stroke: #000000; stroke-width: 0.8"/>
      </g>
     </g>
     <g id="text_10">
      <!-- October -->
      <g transform="translate(732.711947 535.612908) rotate(-45) scale(0.1 -0.1)">
       <defs>
        <path id="IBMPlexSans-4f" d="M 2266 -77 
C 3418 -77 4160 736 4160 2234 
C 4160 3731 3418 4544 2266 4544 
C 1114 4544 371 3731 371 2234 
C 371 736 1114 -77 2266 -77 
z
M 2266 403 
C 1491 403 947 979 947 1862 
L 947 2605 
C 947 3488 1491 4064 2266 4064 
C 3040 4064 3584 3488 3584 2605 
L 3584 1862 
C 3584 979 3040 403 2266 403 
z
" transform="scale(0.015625)"/>
        <path id="IBMPlexSans-6f" d="M 1792 -77 
C 2675 -77 3283 602 3283 1651 
C 3283 2701 2675 3379 1792 3379 
C 909 3379 301 2701 301 1651 
C 301 602 909 -77 1792 -77 
z
M 1792 378 
C 1242 378 851 717 851 1414 
L 851 1888 
C 851 2586 1242 2925 1792 2925 
C 2342 2925 2733 2586 2733 1888 
L 2733 1414 
C 2733 717 2342 378 1792 378 
z
" transform="scale(0.015625)"/>
       </defs>
       <use xlink:href="#IBMPlexSans-4f"/>
       <use xlink:href="#IBMPlexSans-63" transform="translate(70.799988 0)"/>
       <use xlink:href="#IBMPlexSans-74" transform="translate(121.099976 0)"/>
       <use xlink:href="#IBMPlexSans-6f" transform="translate(156.199966 0)"/>
       <use xlink:href="#IBMPlexSans-62" transform="translate(212.199951 0)"/>
       <use xlink:href="#IBMPlexSans-65" transform="translate(270.199936 0)"/>
       <use xlink:href="#IBMPlexSans-72" transform="translate(325.09993 0)"/>
      </g>
     </g>
    </g>
    <g id="xtick_11">
     <g id="line2d_70">
      <path d="M 839.559612 497.797416 
L 839.559612 39.185 
" clip-path="url(#pdc17646249)" style="fill: none; stroke-dasharray: 0.5,0.825; stroke-dashoffset: 0; stroke: #d3d3d3; stroke-opacity: 0.3; stroke-width: 0.5"/>
     </g>
     <g id="line2d_71">
      <g>
       <use xlink:href="#md10a7b0950" x="839.559612" y="497.797416" style="stroke: #000000; stroke-width: 0.8"/>
      </g>
     </g>
     <g id="text_11">
      <!-- November -->
      <g transform="translate(805.072688 543.102716) rotate(-45) scale(0.1 -0.1)">
       <defs>
        <path id="IBMPlexSans-4e" d="M 3309 0 
L 3930 0 
L 3930 4467 
L 3405 4467 
L 3405 749 
L 3386 749 
L 2848 1741 
L 1216 4467 
L 595 4467 
L 595 0 
L 1120 0 
L 1120 3718 
L 1139 3718 
L 1677 2726 
L 3309 0 
z
" transform="scale(0.015625)"/>
        <path id="IBMPlexSans-76" d="M 1869 0 
L 3034 3302 
L 2541 3302 
L 1952 1664 
L 1594 538 
L 1562 538 
L 1203 1664 
L 627 3302 
L 115 3302 
L 1274 0 
L 1869 0 
z
" transform="scale(0.015625)"/>
       </defs>
       <use xlink:href="#IBMPlexSans-4e"/>
       <use xlink:href="#IBMPlexSans-6f" transform="translate(70.699982 0)"/>
       <use xlink:href="#IBMPlexSans-76" transform="translate(126.699966 0)"/>
       <use xlink:href="#IBMPlexSans-65" transform="translate(175.899963 0)"/>
       <use xlink:href="#IBMPlexSans-6d" transform="translate(230.799957 0)"/>
       <use xlink:href="#IBMPlexSans-62" transform="translate(318.099945 0)"/>
       <use xlink:href="#IBMPlexSans-65" transform="translate(376.09993 0)"/>
       <use xlink:href="#IBMPlexSans-72" transform="translate(430.999924 0)"/>
      </g>
     </g>
    </g>
    <g id="xtick_12">
     <g id="line2d_72">
      <path d="M 916.834337 497.797416 
L 916.834337 39.185 
" clip-path="url(#pdc17646249)" style="fill: none; stroke-dasharray: 0.5,0.825; stroke-dashoffset: 0; stroke: #d3d3d3; stroke-opacity: 0.3; stroke-width: 0.5"/>
     </g>
     <g id="line2d_73">
      <g>
       <use xlink:href="#md10a7b0950" x="916.834337" y="497.797416" style="stroke: #000000; stroke-width: 0.8"/>
      </g>
     </g>
     <g id="text_12">
      <!-- December -->
      <g transform="translate(882.602635 542.847494) rotate(-45) scale(0.1 -0.1)">
       <defs>
        <path id="IBMPlexSans-44" d="M 595 0 
L 2093 0 
C 3206 0 3923 742 3923 2234 
C 3923 3725 3206 4467 2093 4467 
L 595 4467 
L 595 0 
z
M 1133 474 
L 1133 3994 
L 2093 3994 
C 2829 3994 3347 3482 3347 2598 
L 3347 1869 
C 3347 986 2829 474 2093 474 
L 1133 474 
z
" transform="scale(0.015625)"/>
       </defs>
       <use xlink:href="#IBMPlexSans-44"/>
       <use xlink:href="#IBMPlexSans-65" transform="translate(67.099991 0)"/>
       <use xlink:href="#IBMPlexSans-63" transform="translate(121.999985 0)"/>
       <use xlink:href="#IBMPlexSans-65" transform="translate(172.299973 0)"/>
       <use xlink:href="#IBMPlexSans-6d" transform="translate(227.199966 0)"/>
       <use xlink:href="#IBMPlexSans-62" transform="translate(314.499954 0)"/>
       <use xlink:href="#IBMPlexSans-65" transform="translate(372.499939 0)"/>
       <use xlink:href="#IBMPlexSans-72" transform="translate(427.399933 0)"/>
      </g>
     </g>
    </g>
    <g id="text_13">
     <!-- Gregorian Month -->
     <g transform="translate(478.208125 559.640258) scale(0.12 -0.12)">
      <defs>
       <path id="IBMPlexSans-Bold-47" d="M 3328 0 
L 4147 0 
L 4147 2490 
L 2387 2490 
L 2387 1677 
L 3219 1677 
L 3219 1453 
C 3219 1018 2829 787 2342 787 
C 1741 787 1350 1133 1350 1875 
L 1350 2592 
C 1350 3334 1741 3680 2342 3680 
C 2861 3680 3136 3398 3270 3053 
L 4064 3507 
C 3731 4192 3136 4544 2342 4544 
C 1133 4544 320 3718 320 2214 
C 320 717 1126 -77 2150 -77 
C 2822 -77 3232 262 3296 710 
L 3328 710 
L 3328 0 
z
" transform="scale(0.015625)"/>
       <path id="IBMPlexSans-Bold-72" d="M 1389 0 
L 1389 1965 
C 1389 2355 1658 2477 2208 2477 
L 2445 2477 
L 2445 3360 
L 2278 3360 
C 1754 3360 1498 3002 1421 2630 
L 1389 2630 
L 1389 3360 
L 442 3360 
L 442 0 
L 1389 0 
z
" transform="scale(0.015625)"/>
       <path id="IBMPlexSans-Bold-65" d="M 1843 -77 
C 2458 -77 2950 134 3251 480 
L 2778 1069 
C 2566 851 2349 666 1952 666 
C 1446 666 1210 947 1210 1389 
L 1210 1440 
L 3366 1440 
L 3366 1722 
C 3366 2630 2918 3437 1805 3437 
C 794 3437 230 2746 230 1683 
C 230 608 813 -77 1843 -77 
z
M 1824 2739 
C 2202 2739 2387 2464 2387 2054 
L 2387 1997 
L 1210 1997 
L 1210 2048 
C 1210 2464 1446 2739 1824 2739 
z
" transform="scale(0.015625)"/>
       <path id="IBMPlexSans-Bold-67" d="M 3552 -243 
C 3552 378 3200 736 2381 736 
L 1408 736 
C 1120 736 1005 832 1005 992 
C 1005 1107 1062 1203 1152 1261 
C 1325 1216 1523 1190 1747 1190 
C 2720 1190 3187 1632 3187 2304 
C 3187 2733 3002 3078 2611 3264 
L 2611 3302 
L 3354 3302 
L 3354 4006 
L 2822 4006 
C 2502 4006 2317 3853 2317 3501 
L 2317 3373 
C 2150 3418 1958 3437 1747 3437 
C 781 3437 307 2982 307 2304 
C 307 1869 506 1530 909 1344 
L 909 1318 
C 595 1254 282 1075 282 723 
C 282 435 448 192 768 134 
L 768 64 
C 378 13 141 -205 141 -576 
C 141 -1062 570 -1357 1734 -1357 
C 3104 -1357 3552 -954 3552 -243 
z
M 2662 -371 
C 2662 -614 2470 -730 1958 -730 
L 1574 -730 
C 1062 -730 870 -614 870 -371 
C 870 -269 909 -154 992 -70 
L 2144 -70 
C 2522 -70 2662 -179 2662 -371 
z
M 1747 1811 
C 1376 1811 1190 1978 1190 2272 
L 1190 2349 
C 1190 2643 1376 2810 1747 2810 
C 2118 2810 2304 2643 2304 2349 
L 2304 2272 
C 2304 1978 2118 1811 1747 1811 
z
" transform="scale(0.015625)"/>
       <path id="IBMPlexSans-Bold-6f" d="M 1805 -77 
C 2790 -77 3379 602 3379 1683 
C 3379 2765 2790 3437 1805 3437 
C 819 3437 230 2765 230 1683 
C 230 602 819 -77 1805 -77 
z
M 1805 672 
C 1434 672 1216 915 1216 1338 
L 1216 2022 
C 1216 2445 1434 2688 1805 2688 
C 2176 2688 2394 2445 2394 2022 
L 2394 1338 
C 2394 915 2176 672 1805 672 
z
" transform="scale(0.015625)"/>
       <path id="IBMPlexSans-Bold-69" d="M 915 3718 
C 1299 3718 1466 3917 1466 4186 
L 1466 4326 
C 1466 4595 1299 4794 915 4794 
C 531 4794 365 4595 365 4326 
L 365 4186 
C 365 3917 531 3718 915 3718 
z
M 442 0 
L 1389 0 
L 1389 3360 
L 442 3360 
L 442 0 
z
" transform="scale(0.015625)"/>
       <path id="IBMPlexSans-Bold-61" d="M 3450 0 
L 3450 736 
L 3136 736 
L 3136 2208 
C 3136 3002 2650 3437 1702 3437 
C 998 3437 614 3194 346 2797 
L 909 2298 
C 1056 2502 1254 2694 1632 2694 
C 2029 2694 2189 2490 2189 2163 
L 2189 1952 
L 1658 1952 
C 768 1952 218 1613 218 902 
C 218 320 589 -77 1261 -77 
C 1773 -77 2144 154 2246 589 
L 2285 589 
C 2342 230 2586 0 2925 0 
L 3450 0 
z
M 1613 582 
C 1331 582 1171 698 1171 941 
L 1171 1037 
C 1171 1280 1363 1414 1728 1414 
L 2189 1414 
L 2189 1018 
C 2189 710 1926 582 1613 582 
z
" transform="scale(0.015625)"/>
       <path id="IBMPlexSans-Bold-6e" d="M 1389 0 
L 1389 2176 
C 1389 2509 1690 2669 1997 2669 
C 2342 2669 2464 2458 2464 2029 
L 2464 0 
L 3411 0 
L 3411 2106 
C 3411 2950 3046 3437 2362 3437 
C 1830 3437 1549 3142 1427 2790 
L 1389 2790 
L 1389 3360 
L 442 3360 
L 442 0 
L 1389 0 
z
" transform="scale(0.015625)"/>
       <path id="IBMPlexSans-Bold-20" transform="scale(0.015625)"/>
       <path id="IBMPlexSans-Bold-4d" d="M 3834 0 
L 4749 0 
L 4749 4467 
L 3712 4467 
L 2630 2374 
L 2618 2374 
L 1523 4467 
L 493 4467 
L 493 0 
L 1408 0 
L 1408 2976 
L 1427 2976 
L 1766 2272 
L 2618 698 
L 3488 2278 
L 3814 2931 
L 3834 2931 
L 3834 0 
z
" transform="scale(0.015625)"/>
       <path id="IBMPlexSans-Bold-74" d="M 2182 0 
L 2182 736 
L 1568 736 
L 1568 2624 
L 2234 2624 
L 2234 3360 
L 1568 3360 
L 1568 4269 
L 717 4269 
L 717 3718 
C 717 3488 640 3360 384 3360 
L 147 3360 
L 147 2624 
L 621 2624 
L 621 979 
C 621 339 966 0 1619 0 
L 2182 0 
z
" transform="scale(0.015625)"/>
       <path id="IBMPlexSans-Bold-68" d="M 442 0 
L 1389 0 
L 1389 2176 
C 1389 2509 1690 2669 1997 2669 
C 2342 2669 2464 2458 2464 2029 
L 2464 0 
L 3411 0 
L 3411 2106 
C 3411 2950 3046 3437 2362 3437 
C 1830 3437 1549 3142 1427 2790 
L 1389 2790 
L 1389 4736 
L 442 4736 
L 442 0 
z
" transform="scale(0.015625)"/>
      </defs>
      <use xlink:href="#IBMPlexSans-Bold-47"/>
      <use xlink:href="#IBMPlexSans-Bold-72" transform="translate(71.899994 0)"/>
      <use xlink:href="#IBMPlexSans-Bold-65" transform="translate(112.299988 0)"/>
      <use xlink:href="#IBMPlexSans-Bold-67" transform="translate(168.499985 0)"/>
      <use xlink:href="#IBMPlexSans-Bold-6f" transform="translate(223.699982 0)"/>
      <use xlink:href="#IBMPlexSans-Bold-72" transform="translate(280.099976 0)"/>
      <use xlink:href="#IBMPlexSans-Bold-69" transform="translate(320.499969 0)"/>
      <use xlink:href="#IBMPlexSans-Bold-61" transform="translate(349.09996 0)"/>
      <use xlink:href="#IBMPlexSans-Bold-6e" transform="translate(405.999954 0)"/>
      <use xlink:href="#IBMPlexSans-Bold-20" transform="translate(465.599945 0)"/>
      <use xlink:href="#IBMPlexSans-Bold-4d" transform="translate(489.199936 0)"/>
      <use xlink:href="#IBMPlexSans-Bold-6f" transform="translate(571.09993 0)"/>
      <use xlink:href="#IBMPlexSans-Bold-6e" transform="translate(627.499924 0)"/>
      <use xlink:href="#IBMPlexSans-Bold-74" transform="translate(687.099915 0)"/>
      <use xlink:href="#IBMPlexSans-Bold-68" transform="translate(725.399902 0)"/>
     </g>
    </g>
   </g>
   <g id="matplotlib.axis_2">
    <g id="ytick_1">
     <g id="line2d_74">
      <path d="M 56.509063 39.185 
L 994.109063 39.185 
" clip-path="url(#pdc17646249)" style="fill: none; stroke-dasharray: 0.5,0.825; stroke-dashoffset: 0; stroke: #d3d3d3; stroke-opacity: 0.3; stroke-width: 0.5"/>
     </g>
     <g id="line2d_75">
      <defs>
       <path id="meb2b8bab06" d="M 0 0 
L -3.5 0 
" style="stroke: #000000; stroke-width: 0.8"/>
      </defs>
      <g>
       <use xlink:href="#meb2b8bab06" x="56.509063" y="39.185" style="stroke: #000000; stroke-width: 0.8"/>
      </g>
     </g>
     <g id="text_14">
      <!-- 00:00 -->
      <g transform="translate(22.58875 42.885) scale(0.1 -0.1)">
       <defs>
        <path id="IBMPlexSans-30" d="M 1920 -77 
C 2989 -77 3456 774 3456 2234 
C 3456 3693 2989 4544 1920 4544 
C 851 4544 384 3693 384 2234 
C 384 774 851 -77 1920 -77 
z
M 1920 390 
C 1222 390 947 1005 947 1869 
L 947 2598 
C 947 3462 1222 4077 1920 4077 
C 2618 4077 2893 3462 2893 2598 
L 2893 1869 
C 2893 1005 2618 390 1920 390 
z
" transform="scale(0.015625)"/>
        <path id="IBMPlexSans-3a" d="M 934 -77 
C 1203 -77 1325 77 1325 294 
L 1325 378 
C 1325 595 1203 749 934 749 
C 666 749 544 595 544 378 
L 544 294 
C 544 77 666 -77 934 -77 
z
M 934 2554 
C 1203 2554 1325 2707 1325 2925 
L 1325 3008 
C 1325 3226 1203 3379 934 3379 
C 666 3379 544 3226 544 3008 
L 544 2925 
C 544 2707 666 2554 934 2554 
z
" transform="scale(0.015625)"/>
       </defs>
       <use xlink:href="#IBMPlexSans-30"/>
       <use xlink:href="#IBMPlexSans-30" transform="translate(59.999985 0)"/>
       <use xlink:href="#IBMPlexSans-3a" transform="translate(119.999969 0)"/>
       <use xlink:href="#IBMPlexSans-30" transform="translate(149.199966 0)"/>
       <use xlink:href="#IBMPlexSans-30" transform="translate(209.199951 0)"/>
      </g>
     </g>
    </g>
    <g id="ytick_2">
     <g id="line2d_76">
      <path d="M 56.509063 58.293851 
L 994.109063 58.293851 
" clip-path="url(#pdc17646249)" style="fill: none; stroke-dasharray: 0.5,0.825; stroke-dashoffset: 0; stroke: #d3d3d3; stroke-opacity: 0.3; stroke-width: 0.5"/>
     </g>
     <g id="line2d_77">
      <g>
       <use xlink:href="#meb2b8bab06" x="56.509063" y="58.293851" style="stroke: #000000; stroke-width: 0.8"/>
      </g>
     </g>
     <g id="text_15">
      <!-- 01:00 -->
      <g transform="translate(22.58875 61.993851) scale(0.1 -0.1)">
       <defs>
        <path id="IBMPlexSans-31" d="M 3501 0 
L 3501 474 
L 2349 474 
L 2349 4467 
L 1510 4467 
L 326 3360 
L 640 3021 
L 1766 4070 
L 1811 4070 
L 1811 474 
L 563 474 
L 563 0 
L 3501 0 
z
" transform="scale(0.015625)"/>
       </defs>
       <use xlink:href="#IBMPlexSans-30"/>
       <use xlink:href="#IBMPlexSans-31" transform="translate(59.999985 0)"/>
       <use xlink:href="#IBMPlexSans-3a" transform="translate(119.999969 0)"/>
       <use xlink:href="#IBMPlexSans-30" transform="translate(149.199966 0)"/>
       <use xlink:href="#IBMPlexSans-30" transform="translate(209.199951 0)"/>
      </g>
     </g>
    </g>
    <g id="ytick_3">
     <g id="line2d_78">
      <path d="M 56.509063 77.402701 
L 994.109063 77.402701 
" clip-path="url(#pdc17646249)" style="fill: none; stroke-dasharray: 0.5,0.825; stroke-dashoffset: 0; stroke: #d3d3d3; stroke-opacity: 0.3; stroke-width: 0.5"/>
     </g>
     <g id="line2d_79">
      <g>
       <use xlink:href="#meb2b8bab06" x="56.509063" y="77.402701" style="stroke: #000000; stroke-width: 0.8"/>
      </g>
     </g>
     <g id="text_16">
      <!-- 02:00 -->
      <g transform="translate(22.58875 81.102701) scale(0.1 -0.1)">
       <defs>
        <path id="IBMPlexSans-32" d="M 3411 474 
L 1062 474 
L 2266 1555 
C 2835 2067 3245 2554 3245 3245 
C 3245 4006 2746 4544 1875 4544 
C 1011 4544 614 4019 442 3494 
L 922 3309 
C 1043 3731 1299 4064 1850 4064 
C 2400 4064 2675 3725 2675 3232 
L 2675 3155 
C 2675 2726 2355 2278 1939 1894 
L 480 550 
L 480 0 
L 3411 0 
L 3411 474 
z
" transform="scale(0.015625)"/>
       </defs>
       <use xlink:href="#IBMPlexSans-30"/>
       <use xlink:href="#IBMPlexSans-32" transform="translate(59.999985 0)"/>
       <use xlink:href="#IBMPlexSans-3a" transform="translate(119.999969 0)"/>
       <use xlink:href="#IBMPlexSans-30" transform="translate(149.199966 0)"/>
       <use xlink:href="#IBMPlexSans-30" transform="translate(209.199951 0)"/>
      </g>
     </g>
    </g>
    <g id="ytick_4">
     <g id="line2d_80">
      <path d="M 56.509063 96.511552 
L 994.109063 96.511552 
" clip-path="url(#pdc17646249)" style="fill: none; stroke-dasharray: 0.5,0.825; stroke-dashoffset: 0; stroke: #d3d3d3; stroke-opacity: 0.3; stroke-width: 0.5"/>
     </g>
     <g id="line2d_81">
      <g>
       <use xlink:href="#meb2b8bab06" x="56.509063" y="96.511552" style="stroke: #000000; stroke-width: 0.8"/>
      </g>
     </g>
     <g id="text_17">
      <!-- 03:00 -->
      <g transform="translate(22.58875 100.211552) scale(0.1 -0.1)">
       <defs>
        <path id="IBMPlexSans-33" d="M 1184 2573 
L 1184 2106 
L 1709 2106 
C 2336 2106 2669 1805 2669 1280 
L 2669 1229 
C 2669 704 2336 403 1709 403 
C 1165 403 902 640 672 992 
L 269 685 
C 544 301 941 -77 1715 -77 
C 2624 -77 3232 454 3232 1222 
C 3232 1894 2771 2253 2291 2349 
L 2291 2374 
C 2765 2496 3149 2842 3149 3418 
C 3149 4141 2547 4544 1792 4544 
C 1075 4544 685 4173 461 3814 
L 858 3507 
C 1043 3846 1318 4064 1779 4064 
C 2253 4064 2579 3827 2579 3360 
L 2579 3315 
C 2579 2886 2272 2573 1670 2573 
L 1184 2573 
z
" transform="scale(0.015625)"/>
       </defs>
       <use xlink:href="#IBMPlexSans-30"/>
       <use xlink:href="#IBMPlexSans-33" transform="translate(59.999985 0)"/>
       <use xlink:href="#IBMPlexSans-3a" transform="translate(119.999969 0)"/>
       <use xlink:href="#IBMPlexSans-30" transform="translate(149.199966 0)"/>
       <use xlink:href="#IBMPlexSans-30" transform="translate(209.199951 0)"/>
      </g>
     </g>
    </g>
    <g id="ytick_5">
     <g id="line2d_82">
      <path d="M 56.509063 115.620403 
L 994.109063 115.620403 
" clip-path="url(#pdc17646249)" style="fill: none; stroke-dasharray: 0.5,0.825; stroke-dashoffset: 0; stroke: #d3d3d3; stroke-opacity: 0.3; stroke-width: 0.5"/>
     </g>
     <g id="line2d_83">
      <g>
       <use xlink:href="#meb2b8bab06" x="56.509063" y="115.620403" style="stroke: #000000; stroke-width: 0.8"/>
      </g>
     </g>
     <g id="text_18">
      <!-- 04:00 -->
      <g transform="translate(22.58875 119.320403) scale(0.1 -0.1)">
       <defs>
        <path id="IBMPlexSans-34" d="M 2912 0 
L 2912 877 
L 3558 877 
L 3558 1325 
L 2912 1325 
L 2912 4467 
L 2112 4467 
L 243 1350 
L 243 877 
L 2400 877 
L 2400 0 
L 2912 0 
z
M 2368 4051 
L 2400 4051 
L 2400 1325 
L 749 1325 
L 2368 4051 
z
" transform="scale(0.015625)"/>
       </defs>
       <use xlink:href="#IBMPlexSans-30"/>
       <use xlink:href="#IBMPlexSans-34" transform="translate(59.999985 0)"/>
       <use xlink:href="#IBMPlexSans-3a" transform="translate(119.999969 0)"/>
       <use xlink:href="#IBMPlexSans-30" transform="translate(149.199966 0)"/>
       <use xlink:href="#IBMPlexSans-30" transform="translate(209.199951 0)"/>
      </g>
     </g>
    </g>
    <g id="ytick_6">
     <g id="line2d_84">
      <path d="M 56.509063 134.729253 
L 994.109063 134.729253 
" clip-path="url(#pdc17646249)" style="fill: none; stroke-dasharray: 0.5,0.825; stroke-dashoffset: 0; stroke: #d3d3d3; stroke-opacity: 0.3; stroke-width: 0.5"/>
     </g>
     <g id="line2d_85">
      <g>
       <use xlink:href="#meb2b8bab06" x="56.509063" y="134.729253" style="stroke: #000000; stroke-width: 0.8"/>
      </g>
     </g>
     <g id="text_19">
      <!-- 05:00 -->
      <g transform="translate(22.58875 138.429253) scale(0.1 -0.1)">
       <defs>
        <path id="IBMPlexSans-35" d="M 3187 4467 
L 794 4467 
L 634 2010 
L 1088 1946 
C 1274 2150 1478 2323 1888 2323 
C 2496 2323 2822 1984 2822 1395 
L 2822 1331 
C 2822 742 2496 403 1888 403 
C 1350 403 1126 640 896 992 
L 493 685 
C 762 301 1146 -77 1888 -77 
C 2829 -77 3392 531 3392 1402 
C 3392 2266 2829 2784 2061 2784 
C 1594 2784 1357 2592 1146 2291 
L 1101 2291 
L 1229 3994 
L 3187 3994 
L 3187 4467 
z
" transform="scale(0.015625)"/>
       </defs>
       <use xlink:href="#IBMPlexSans-30"/>
       <use xlink:href="#IBMPlexSans-35" transform="translate(59.999985 0)"/>
       <use xlink:href="#IBMPlexSans-3a" transform="translate(119.999969 0)"/>
       <use xlink:href="#IBMPlexSans-30" transform="translate(149.199966 0)"/>
       <use xlink:href="#IBMPlexSans-30" transform="translate(209.199951 0)"/>
      </g>
     </g>
    </g>
    <g id="ytick_7">
     <g id="line2d_86">
      <path d="M 56.509063 153.838104 
L 994.109063 153.838104 
" clip-path="url(#pdc17646249)" style="fill: none; stroke-dasharray: 0.5,0.825; stroke-dashoffset: 0; stroke: #d3d3d3; stroke-opacity: 0.3; stroke-width: 0.5"/>
     </g>
     <g id="line2d_87">
      <g>
       <use xlink:href="#meb2b8bab06" x="56.509063" y="153.838104" style="stroke: #000000; stroke-width: 0.8"/>
      </g>
     </g>
     <g id="text_20">
      <!-- 06:00 -->
      <g transform="translate(22.58875 157.538104) scale(0.1 -0.1)">
       <defs>
        <path id="IBMPlexSans-36" d="M 1926 -77 
C 2822 -77 3411 525 3411 1402 
C 3411 2246 2861 2778 2093 2778 
C 1549 2778 1229 2502 1018 2138 
L 986 2150 
C 1229 3187 1760 3770 2714 4467 
L 2022 4467 
C 1306 4000 429 2963 429 1638 
C 429 576 998 -77 1926 -77 
z
M 1920 390 
C 1331 390 986 730 986 1331 
L 986 1382 
C 986 1984 1331 2323 1920 2323 
C 2509 2323 2854 1984 2854 1382 
L 2854 1331 
C 2854 730 2509 390 1920 390 
z
" transform="scale(0.015625)"/>
       </defs>
       <use xlink:href="#IBMPlexSans-30"/>
       <use xlink:href="#IBMPlexSans-36" transform="translate(59.999985 0)"/>
       <use xlink:href="#IBMPlexSans-3a" transform="translate(119.999969 0)"/>
       <use xlink:href="#IBMPlexSans-30" transform="translate(149.199966 0)"/>
       <use xlink:href="#IBMPlexSans-30" transform="translate(209.199951 0)"/>
      </g>
     </g>
    </g>
    <g id="ytick_8">
     <g id="line2d_88">
      <path d="M 56.509063 172.946955 
L 994.109063 172.946955 
" clip-path="url(#pdc17646249)" style="fill: none; stroke-dasharray: 0.5,0.825; stroke-dashoffset: 0; stroke: #d3d3d3; stroke-opacity: 0.3; stroke-width: 0.5"/>
     </g>
     <g id="line2d_89">
      <g>
       <use xlink:href="#meb2b8bab06" x="56.509063" y="172.946955" style="stroke: #000000; stroke-width: 0.8"/>
      </g>
     </g>
     <g id="text_21">
      <!-- 07:00 -->
      <g transform="translate(22.58875 176.646955) scale(0.1 -0.1)">
       <defs>
        <path id="IBMPlexSans-37" d="M 1696 0 
L 3373 3994 
L 3373 4467 
L 442 4467 
L 442 3174 
L 922 3174 
L 922 4006 
L 2829 4006 
L 1120 0 
L 1696 0 
z
" transform="scale(0.015625)"/>
       </defs>
       <use xlink:href="#IBMPlexSans-30"/>
       <use xlink:href="#IBMPlexSans-37" transform="translate(59.999985 0)"/>
       <use xlink:href="#IBMPlexSans-3a" transform="translate(119.999969 0)"/>
       <use xlink:href="#IBMPlexSans-30" transform="translate(149.199966 0)"/>
       <use xlink:href="#IBMPlexSans-30" transform="translate(209.199951 0)"/>
      </g>
     </g>
    </g>
    <g id="ytick_9">
     <g id="line2d_90">
      <path d="M 56.509063 192.055805 
L 994.109063 192.055805 
" clip-path="url(#pdc17646249)" style="fill: none; stroke-dasharray: 0.5,0.825; stroke-dashoffset: 0; stroke: #d3d3d3; stroke-opacity: 0.3; stroke-width: 0.5"/>
     </g>
     <g id="line2d_91">
      <g>
       <use xlink:href="#meb2b8bab06" x="56.509063" y="192.055805" style="stroke: #000000; stroke-width: 0.8"/>
      </g>
     </g>
     <g id="text_22">
      <!-- 08:00 -->
      <g transform="translate(22.58875 195.755805) scale(0.1 -0.1)">
       <defs>
        <path id="IBMPlexSans-38" d="M 1920 -77 
C 2938 -77 3469 480 3469 1216 
C 3469 1824 3104 2176 2566 2323 
L 2566 2374 
C 3034 2534 3334 2912 3334 3424 
C 3334 4102 2810 4544 1920 4544 
C 1030 4544 506 4102 506 3424 
C 506 2912 806 2534 1274 2374 
L 1274 2323 
C 736 2176 371 1824 371 1216 
C 371 480 902 -77 1920 -77 
z
M 1920 390 
C 1299 390 941 685 941 1190 
L 941 1325 
C 941 1830 1299 2125 1920 2125 
C 2541 2125 2899 1830 2899 1325 
L 2899 1190 
C 2899 685 2541 390 1920 390 
z
M 1920 2573 
C 1363 2573 1062 2822 1062 3277 
L 1062 3373 
C 1062 3827 1363 4077 1920 4077 
C 2477 4077 2778 3827 2778 3373 
L 2778 3277 
C 2778 2822 2477 2573 1920 2573 
z
" transform="scale(0.015625)"/>
       </defs>
       <use xlink:href="#IBMPlexSans-30"/>
       <use xlink:href="#IBMPlexSans-38" transform="translate(59.999985 0)"/>
       <use xlink:href="#IBMPlexSans-3a" transform="translate(119.999969 0)"/>
       <use xlink:href="#IBMPlexSans-30" transform="translate(149.199966 0)"/>
       <use xlink:href="#IBMPlexSans-30" transform="translate(209.199951 0)"/>
      </g>
     </g>
    </g>
    <g id="ytick_10">
     <g id="line2d_92">
      <path d="M 56.509063 211.164656 
L 994.109063 211.164656 
" clip-path="url(#pdc17646249)" style="fill: none; stroke-dasharray: 0.5,0.825; stroke-dashoffset: 0; stroke: #d3d3d3; stroke-opacity: 0.3; stroke-width: 0.5"/>
     </g>
     <g id="line2d_93">
      <g>
       <use xlink:href="#meb2b8bab06" x="56.509063" y="211.164656" style="stroke: #000000; stroke-width: 0.8"/>
      </g>
     </g>
     <g id="text_23">
      <!-- 09:00 -->
      <g transform="translate(22.58875 214.864656) scale(0.1 -0.1)">
       <defs>
        <path id="IBMPlexSans-39" d="M 3411 2829 
C 3411 3891 2842 4544 1914 4544 
C 1018 4544 429 3942 429 3066 
C 429 2221 979 1690 1747 1690 
C 2291 1690 2611 1965 2822 2330 
L 2854 2317 
C 2611 1280 2080 698 1126 0 
L 1818 0 
C 2534 467 3411 1504 3411 2829 
z
M 1920 2144 
C 1331 2144 986 2483 986 3085 
L 986 3136 
C 986 3738 1331 4077 1920 4077 
C 2509 4077 2854 3738 2854 3136 
L 2854 3085 
C 2854 2483 2509 2144 1920 2144 
z
" transform="scale(0.015625)"/>
       </defs>
       <use xlink:href="#IBMPlexSans-30"/>
       <use xlink:href="#IBMPlexSans-39" transform="translate(59.999985 0)"/>
       <use xlink:href="#IBMPlexSans-3a" transform="translate(119.999969 0)"/>
       <use xlink:href="#IBMPlexSans-30" transform="translate(149.199966 0)"/>
       <use xlink:href="#IBMPlexSans-30" transform="translate(209.199951 0)"/>
      </g>
     </g>
    </g>
    <g id="ytick_11">
     <g id="line2d_94">
      <path d="M 56.509063 230.273507 
L 994.109063 230.273507 
" clip-path="url(#pdc17646249)" style="fill: none; stroke-dasharray: 0.5,0.825; stroke-dashoffset: 0; stroke: #d3d3d3; stroke-opacity: 0.3; stroke-width: 0.5"/>
     </g>
     <g id="line2d_95">
      <g>
       <use xlink:href="#meb2b8bab06" x="56.509063" y="230.273507" style="stroke: #000000; stroke-width: 0.8"/>
      </g>
     </g>
     <g id="text_24">
      <!-- 10:00 -->
      <g transform="translate(22.58875 233.973507) scale(0.1 -0.1)">
       <use xlink:href="#IBMPlexSans-31"/>
       <use xlink:href="#IBMPlexSans-30" transform="translate(59.999985 0)"/>
       <use xlink:href="#IBMPlexSans-3a" transform="translate(119.999969 0)"/>
       <use xlink:href="#IBMPlexSans-30" transform="translate(149.199966 0)"/>
       <use xlink:href="#IBMPlexSans-30" transform="translate(209.199951 0)"/>
      </g>
     </g>
    </g>
    <g id="ytick_12">
     <g id="line2d_96">
      <path d="M 56.509063 249.382357 
L 994.109063 249.382357 
" clip-path="url(#pdc17646249)" style="fill: none; stroke-dasharray: 0.5,0.825; stroke-dashoffset: 0; stroke: #d3d3d3; stroke-opacity: 0.3; stroke-width: 0.5"/>
     </g>
     <g id="line2d_97">
      <g>
       <use xlink:href="#meb2b8bab06" x="56.509063" y="249.382357" style="stroke: #000000; stroke-width: 0.8"/>
      </g>
     </g>
     <g id="text_25">
      <!-- 11:00 -->
      <g transform="translate(22.58875 253.082357) scale(0.1 -0.1)">
       <use xlink:href="#IBMPlexSans-31"/>
       <use xlink:href="#IBMPlexSans-31" transform="translate(59.999985 0)"/>
       <use xlink:href="#IBMPlexSans-3a" transform="translate(119.999969 0)"/>
       <use xlink:href="#IBMPlexSans-30" transform="translate(149.199966 0)"/>
       <use xlink:href="#IBMPlexSans-30" transform="translate(209.199951 0)"/>
      </g>
     </g>
    </g>
    <g id="ytick_13">
     <g id="line2d_98">
      <path d="M 56.509063 268.491208 
L 994.109063 268.491208 
" clip-path="url(#pdc17646249)" style="fill: none; stroke-dasharray: 0.5,0.825; stroke-dashoffset: 0; stroke: #d3d3d3; stroke-opacity: 0.3; stroke-width: 0.5"/>
     </g>
     <g id="line2d_99">
      <g>
       <use xlink:href="#meb2b8bab06" x="56.509063" y="268.491208" style="stroke: #000000; stroke-width: 0.8"/>
      </g>
     </g>
     <g id="text_26">
      <!-- 12:00 -->
      <g transform="translate(22.58875 272.191208) scale(0.1 -0.1)">
       <use xlink:href="#IBMPlexSans-31"/>
       <use xlink:href="#IBMPlexSans-32" transform="translate(59.999985 0)"/>
       <use xlink:href="#IBMPlexSans-3a" transform="translate(119.999969 0)"/>
       <use xlink:href="#IBMPlexSans-30" transform="translate(149.199966 0)"/>
       <use xlink:href="#IBMPlexSans-30" transform="translate(209.199951 0)"/>
      </g>
     </g>
    </g>
    <g id="ytick_14">
     <g id="line2d_100">
      <path d="M 56.509063 287.600058 
L 994.109063 287.600058 
" clip-path="url(#pdc17646249)" style="fill: none; stroke-dasharray: 0.5,0.825; stroke-dashoffset: 0; stroke: #d3d3d3; stroke-opacity: 0.3; stroke-width: 0.5"/>
     </g>
     <g id="line2d_101">
      <g>
       <use xlink:href="#meb2b8bab06" x="56.509063" y="287.600058" style="stroke: #000000; stroke-width: 0.8"/>
      </g>
     </g>
     <g id="text_27">
      <!-- 13:00 -->
      <g transform="translate(22.58875 291.300058) scale(0.1 -0.1)">
       <use xlink:href="#IBMPlexSans-31"/>
       <use xlink:href="#IBMPlexSans-33" transform="translate(59.999985 0)"/>
       <use xlink:href="#IBMPlexSans-3a" transform="translate(119.999969 0)"/>
       <use xlink:href="#IBMPlexSans-30" transform="translate(149.199966 0)"/>
       <use xlink:href="#IBMPlexSans-30" transform="translate(209.199951 0)"/>
      </g>
     </g>
    </g>
    <g id="ytick_15">
     <g id="line2d_102">
      <path d="M 56.509063 306.708909 
L 994.109063 306.708909 
" clip-path="url(#pdc17646249)" style="fill: none; stroke-dasharray: 0.5,0.825; stroke-dashoffset: 0; stroke: #d3d3d3; stroke-opacity: 0.3; stroke-width: 0.5"/>
     </g>
     <g id="line2d_103">
      <g>
       <use xlink:href="#meb2b8bab06" x="56.509063" y="306.708909" style="stroke: #000000; stroke-width: 0.8"/>
      </g>
     </g>
     <g id="text_28">
      <!-- 14:00 -->
      <g transform="translate(22.58875 310.408909) scale(0.1 -0.1)">
       <use xlink:href="#IBMPlexSans-31"/>
       <use xlink:href="#IBMPlexSans-34" transform="translate(59.999985 0)"/>
       <use xlink:href="#IBMPlexSans-3a" transform="translate(119.999969 0)"/>
       <use xlink:href="#IBMPlexSans-30" transform="translate(149.199966 0)"/>
       <use xlink:href="#IBMPlexSans-30" transform="translate(209.199951 0)"/>
      </g>
     </g>
    </g>
    <g id="ytick_16">
     <g id="line2d_104">
      <path d="M 56.509063 325.81776 
L 994.109063 325.81776 
" clip-path="url(#pdc17646249)" style="fill: none; stroke-dasharray: 0.5,0.825; stroke-dashoffset: 0; stroke: #d3d3d3; stroke-opacity: 0.3; stroke-width: 0.5"/>
     </g>
     <g id="line2d_105">
      <g>
       <use xlink:href="#meb2b8bab06" x="56.509063" y="325.81776" style="stroke: #000000; stroke-width: 0.8"/>
      </g>
     </g>
     <g id="text_29">
      <!-- 15:00 -->
      <g transform="translate(22.58875 329.51776) scale(0.1 -0.1)">
       <use xlink:href="#IBMPlexSans-31"/>
       <use xlink:href="#IBMPlexSans-35" transform="translate(59.999985 0)"/>
       <use xlink:href="#IBMPlexSans-3a" transform="translate(119.999969 0)"/>
       <use xlink:href="#IBMPlexSans-30" transform="translate(149.199966 0)"/>
       <use xlink:href="#IBMPlexSans-30" transform="translate(209.199951 0)"/>
      </g>
     </g>
    </g>
    <g id="ytick_17">
     <g id="line2d_106">
      <path d="M 56.509063 344.92661 
L 994.109063 344.92661 
" clip-path="url(#pdc17646249)" style="fill: none; stroke-dasharray: 0.5,0.825; stroke-dashoffset: 0; stroke: #d3d3d3; stroke-opacity: 0.3; stroke-width: 0.5"/>
     </g>
     <g id="line2d_107">
      <g>
       <use xlink:href="#meb2b8bab06" x="56.509063" y="344.92661" style="stroke: #000000; stroke-width: 0.8"/>
      </g>
     </g>
     <g id="text_30">
      <!-- 16:00 -->
      <g transform="translate(22.58875 348.62661) scale(0.1 -0.1)">
       <use xlink:href="#IBMPlexSans-31"/>
       <use xlink:href="#IBMPlexSans-36" transform="translate(59.999985 0)"/>
       <use xlink:href="#IBMPlexSans-3a" transform="translate(119.999969 0)"/>
       <use xlink:href="#IBMPlexSans-30" transform="translate(149.199966 0)"/>
       <use xlink:href="#IBMPlexSans-30" transform="translate(209.199951 0)"/>
      </g>
     </g>
    </g>
    <g id="ytick_18">
     <g id="line2d_108">
      <path d="M 56.509063 364.035461 
L 994.109063 364.035461 
" clip-path="url(#pdc17646249)" style="fill: none; stroke-dasharray: 0.5,0.825; stroke-dashoffset: 0; stroke: #d3d3d3; stroke-opacity: 0.3; stroke-width: 0.5"/>
     </g>
     <g id="line2d_109">
      <g>
       <use xlink:href="#meb2b8bab06" x="56.509063" y="364.035461" style="stroke: #000000; stroke-width: 0.8"/>
      </g>
     </g>
     <g id="text_31">
      <!-- 17:00 -->
      <g transform="translate(22.58875 367.735461) scale(0.1 -0.1)">
       <use xlink:href="#IBMPlexSans-31"/>
       <use xlink:href="#IBMPlexSans-37" transform="translate(59.999985 0)"/>
       <use xlink:href="#IBMPlexSans-3a" transform="translate(119.999969 0)"/>
       <use xlink:href="#IBMPlexSans-30" transform="translate(149.199966 0)"/>
       <use xlink:href="#IBMPlexSans-30" transform="translate(209.199951 0)"/>
      </g>
     </g>
    </g>
    <g id="ytick_19">
     <g id="line2d_110">
      <path d="M 56.509063 383.144312 
L 994.109063 383.144312 
" clip-path="url(#pdc17646249)" style="fill: none; stroke-dasharray: 0.5,0.825; stroke-dashoffset: 0; stroke: #d3d3d3; stroke-opacity: 0.3; stroke-width: 0.5"/>
     </g>
     <g id="line2d_111">
      <g>
       <use xlink:href="#meb2b8bab06" x="56.509063" y="383.144312" style="stroke: #000000; stroke-width: 0.8"/>
      </g>
     </g>
     <g id="text_32">
      <!-- 18:00 -->
      <g transform="translate(22.58875 386.844312) scale(0.1 -0.1)">
       <use xlink:href="#IBMPlexSans-31"/>
       <use xlink:href="#IBMPlexSans-38" transform="translate(59.999985 0)"/>
       <use xlink:href="#IBMPlexSans-3a" transform="translate(119.999969 0)"/>
       <use xlink:href="#IBMPlexSans-30" transform="translate(149.199966 0)"/>
       <use xlink:href="#IBMPlexSans-30" transform="translate(209.199951 0)"/>
      </g>
     </g>
    </g>
    <g id="ytick_20">
     <g id="line2d_112">
      <path d="M 56.509063 402.253162 
L 994.109063 402.253162 
" clip-path="url(#pdc17646249)" style="fill: none; stroke-dasharray: 0.5,0.825; stroke-dashoffset: 0; stroke: #d3d3d3; stroke-opacity: 0.3; stroke-width: 0.5"/>
     </g>
     <g id="line2d_113">
      <g>
       <use xlink:href="#meb2b8bab06" x="56.509063" y="402.253162" style="stroke: #000000; stroke-width: 0.8"/>
      </g>
     </g>
     <g id="text_33">
      <!-- 19:00 -->
      <g transform="translate(22.58875 405.953162) scale(0.1 -0.1)">
       <use xlink:href="#IBMPlexSans-31"/>
       <use xlink:href="#IBMPlexSans-39" transform="translate(59.999985 0)"/>
       <use xlink:href="#IBMPlexSans-3a" transform="translate(119.999969 0)"/>
       <use xlink:href="#IBMPlexSans-30" transform="translate(149.199966 0)"/>
       <use xlink:href="#IBMPlexSans-30" transform="translate(209.199951 0)"/>
      </g>
     </g>
    </g>
    <g id="ytick_21">
     <g id="line2d_114">
      <path d="M 56.509063 421.362013 
L 994.109063 421.362013 
" clip-path="url(#pdc17646249)" style="fill: none; stroke-dasharray: 0.5,0.825; stroke-dashoffset: 0; stroke: #d3d3d3; stroke-opacity: 0.3; stroke-width: 0.5"/>
     </g>
     <g id="line2d_115">
      <g>
       <use xlink:href="#meb2b8bab06" x="56.509063" y="421.362013" style="stroke: #000000; stroke-width: 0.8"/>
      </g>
     </g>
     <g id="text_34">
      <!-- 20:00 -->
      <g transform="translate(22.58875 425.062013) scale(0.1 -0.1)">
       <use xlink:href="#IBMPlexSans-32"/>
       <use xlink:href="#IBMPlexSans-30" transform="translate(59.999985 0)"/>
       <use xlink:href="#IBMPlexSans-3a" transform="translate(119.999969 0)"/>
       <use xlink:href="#IBMPlexSans-30" transform="translate(149.199966 0)"/>
       <use xlink:href="#IBMPlexSans-30" transform="translate(209.199951 0)"/>
      </g>
     </g>
    </g>
    <g id="ytick_22">
     <g id="line2d_116">
      <path d="M 56.509063 440.470864 
L 994.109063 440.470864 
" clip-path="url(#pdc17646249)" style="fill: none; stroke-dasharray: 0.5,0.825; stroke-dashoffset: 0; stroke: #d3d3d3; stroke-opacity: 0.3; stroke-width: 0.5"/>
     </g>
     <g id="line2d_117">
      <g>
       <use xlink:href="#meb2b8bab06" x="56.509063" y="440.470864" style="stroke: #000000; stroke-width: 0.8"/>
      </g>
     </g>
     <g id="text_35">
      <!-- 21:00 -->
      <g transform="translate(22.58875 444.170864) scale(0.1 -0.1)">
       <use xlink:href="#IBMPlexSans-32"/>
       <use xlink:href="#IBMPlexSans-31" transform="translate(59.999985 0)"/>
       <use xlink:href="#IBMPlexSans-3a" transform="translate(119.999969 0)"/>
       <use xlink:href="#IBMPlexSans-30" transform="translate(149.199966 0)"/>
       <use xlink:href="#IBMPlexSans-30" transform="translate(209.199951 0)"/>
      </g>
     </g>
    </g>
    <g id="ytick_23">
     <g id="line2d_118">
      <path d="M 56.509063 459.579714 
L 994.109063 459.579714 
" clip-path="url(#pdc17646249)" style="fill: none; stroke-dasharray: 0.5,0.825; stroke-dashoffset: 0; stroke: #d3d3d3; stroke-opacity: 0.3; stroke-width: 0.5"/>
     </g>
     <g id="line2d_119">
      <g>
       <use xlink:href="#meb2b8bab06" x="56.509063" y="459.579714" style="stroke: #000000; stroke-width: 0.8"/>
      </g>
     </g>
     <g id="text_36">
      <!-- 22:00 -->
      <g transform="translate(22.58875 463.279714) scale(0.1 -0.1)">
       <use xlink:href="#IBMPlexSans-32"/>
       <use xlink:href="#IBMPlexSans-32" transform="translate(59.999985 0)"/>
       <use xlink:href="#IBMPlexSans-3a" transform="translate(119.999969 0)"/>
       <use xlink:href="#IBMPlexSans-30" transform="translate(149.199966 0)"/>
       <use xlink:href="#IBMPlexSans-30" transform="translate(209.199951 0)"/>
      </g>
     </g>
    </g>
    <g id="ytick_24">
     <g id="line2d_120">
      <path d="M 56.509063 478.688565 
L 994.109063 478.688565 
" clip-path="url(#pdc17646249)" style="fill: none; stroke-dasharray: 0.5,0.825; stroke-dashoffset: 0; stroke: #d3d3d3; stroke-opacity: 0.3; stroke-width: 0.5"/>
     </g>
     <g id="line2d_121">
      <g>
       <use xlink:href="#meb2b8bab06" x="56.509063" y="478.688565" style="stroke: #000000; stroke-width: 0.8"/>
      </g>
     </g>
     <g id="text_37">
      <!-- 23:00 -->
      <g transform="translate(22.58875 482.388565) scale(0.1 -0.1)">
       <use xlink:href="#IBMPlexSans-32"/>
       <use xlink:href="#IBMPlexSans-33" transform="translate(59.999985 0)"/>
       <use xlink:href="#IBMPlexSans-3a" transform="translate(119.999969 0)"/>
       <use xlink:href="#IBMPlexSans-30" transform="translate(149.199966 0)"/>
       <use xlink:href="#IBMPlexSans-30" transform="translate(209.199951 0)"/>
      </g>
     </g>
    </g>
    <g id="ytick_25">
     <g id="line2d_122">
      <path d="M 56.509063 497.797416 
L 994.109063 497.797416 
" clip-path="url(#pdc17646249)" style="fill: none; stroke-dasharray: 0.5,0.825; stroke-dashoffset: 0; stroke: #d3d3d3; stroke-opacity: 0.3; stroke-width: 0.5"/>
     </g>
     <g id="line2d_123">
      <g>
       <use xlink:href="#meb2b8bab06" x="56.509063" y="497.797416" style="stroke: #000000; stroke-width: 0.8"/>
      </g>
     </g>
     <g id="text_38">
      <!-- 24:00 -->
      <g transform="translate(22.58875 501.497416) scale(0.1 -0.1)">
       <use xlink:href="#IBMPlexSans-32"/>
       <use xlink:href="#IBMPlexSans-34" transform="translate(59.999985 0)"/>
       <use xlink:href="#IBMPlexSans-3a" transform="translate(119.999969 0)"/>
       <use xlink:href="#IBMPlexSans-30" transform="translate(149.199966 0)"/>
       <use xlink:href="#IBMPlexSans-30" transform="translate(209.199951 0)"/>
      </g>
     </g>
    </g>
    <g id="text_39">
     <!-- Time of Day -->
     <g transform="translate(16.18875 301.629958) rotate(-90) scale(0.12 -0.12)">
      <defs>
       <path id="IBMPlexSans-Bold-54" d="M 3565 3603 
L 3565 4467 
L 173 4467 
L 173 3603 
L 1382 3603 
L 1382 0 
L 2355 0 
L 2355 3603 
L 3565 3603 
z
" transform="scale(0.015625)"/>
       <path id="IBMPlexSans-Bold-6d" d="M 1389 0 
L 1389 2176 
C 1389 2509 1670 2669 1946 2669 
C 2253 2669 2406 2464 2406 2029 
L 2406 0 
L 3354 0 
L 3354 2176 
C 3354 2509 3629 2669 3910 2669 
C 4224 2669 4371 2464 4371 2029 
L 4371 0 
L 5318 0 
L 5318 2106 
C 5318 2950 4960 3437 4314 3437 
C 3802 3437 3411 3136 3290 2758 
L 3270 2758 
C 3123 3200 2790 3437 2330 3437 
C 1830 3437 1549 3149 1427 2790 
L 1389 2790 
L 1389 3360 
L 442 3360 
L 442 0 
L 1389 0 
z
" transform="scale(0.015625)"/>
       <path id="IBMPlexSans-Bold-66" d="M 608 0 
L 1555 0 
L 1555 2624 
L 2227 2624 
L 2227 3360 
L 1555 3360 
L 1555 4000 
L 2227 4000 
L 2227 4736 
L 1613 4736 
C 960 4736 608 4403 608 3757 
L 608 3360 
L 134 3360 
L 134 2624 
L 608 2624 
L 608 0 
z
" transform="scale(0.015625)"/>
       <path id="IBMPlexSans-Bold-44" d="M 493 0 
L 2176 0 
C 3360 0 4141 749 4141 2234 
C 4141 3718 3360 4467 2176 4467 
L 493 4467 
L 493 0 
z
M 1466 864 
L 1466 3603 
L 2176 3603 
C 2752 3603 3110 3290 3110 2579 
L 3110 1888 
C 3110 1178 2752 864 2176 864 
L 1466 864 
z
" transform="scale(0.015625)"/>
       <path id="IBMPlexSans-Bold-79" d="M 2003 1792 
L 1754 819 
L 1715 819 
L 1472 1792 
L 979 3360 
L 38 3360 
L 1216 -173 
L 1101 -544 
L 467 -544 
L 467 -1280 
L 1056 -1280 
C 1632 -1280 1914 -1037 2086 -518 
L 3379 3360 
L 2496 3360 
L 2003 1792 
z
" transform="scale(0.015625)"/>
      </defs>
      <use xlink:href="#IBMPlexSans-Bold-54"/>
      <use xlink:href="#IBMPlexSans-Bold-69" transform="translate(58.399994 0)"/>
      <use xlink:href="#IBMPlexSans-Bold-6d" transform="translate(86.999985 0)"/>
      <use xlink:href="#IBMPlexSans-Bold-65" transform="translate(176.399979 0)"/>
      <use xlink:href="#IBMPlexSans-Bold-20" transform="translate(232.599976 0)"/>
      <use xlink:href="#IBMPlexSans-Bold-6f" transform="translate(256.199966 0)"/>
      <use xlink:href="#IBMPlexSans-Bold-66" transform="translate(312.59996 0)"/>
      <use xlink:href="#IBMPlexSans-Bold-20" transform="translate(348.699951 0)"/>
      <use xlink:href="#IBMPlexSans-Bold-44" transform="translate(372.299942 0)"/>
      <use xlink:href="#IBMPlexSans-Bold-61" transform="translate(441.999924 0)"/>
      <use xlink:href="#IBMPlexSans-Bold-79" transform="translate(498.899918 0)"/>
     </g>
    </g>
   </g>
   <g id="patch_3">
    <path d="M 56.509063 497.797416 
L 56.509063 39.185 
" style="fill: none; stroke: #000000; stroke-width: 0.8; stroke-linejoin: miter; stroke-linecap: square"/>
   </g>
   <g id="patch_4">
    <path d="M 994.109063 497.797416 
L 994.109063 39.185 
" style="fill: none; stroke: #000000; stroke-width: 0.8; stroke-linejoin: miter; stroke-linecap: square"/>
   </g>
   <g id="patch_5">
    <path d="M 56.509062 497.797416 
L 994.109063 497.797416 
" style="fill: none; stroke: #000000; stroke-width: 0.8; stroke-linejoin: miter; stroke-linecap: square"/>
   </g>
   <g id="patch_6">
    <path d="M 56.509062 39.185 
L 994.109063 39.185 
" style="fill: none; stroke: #000000; stroke-width: 0.8; stroke-linejoin: miter; stroke-linecap: square"/>
   </g>
   <g id="line2d_124">
    <path d="M 56.509062 170.054087 
L 69.388183 170.218635 
L 79.69148 170.170863 
L 92.570601 169.873614 
L 105.449722 169.321581 
L 118.328843 168.525379 
L 131.207964 167.495624 
L 144.087084 166.253549 
L 159.54203 164.501904 
L 174.996975 162.500783 
L 190.45192 160.282033 
L 208.482689 157.479402 
L 231.665106 153.609859 
L 259.999172 148.657482 
L 319.243128 138.381167 
L 339.849722 135.095506 
L 357.880491 132.441499 
L 375.91126 130.052893 
L 391.366205 128.253476 
L 404.245326 126.953013 
L 417.124447 125.843638 
L 430.003568 124.941275 
L 442.882689 124.256541 
L 455.76181 123.794744 
L 468.640931 123.550576 
L 481.520052 123.534652 
L 494.399172 123.72574 
L 507.278293 124.118533 
L 522.733238 124.829807 
L 538.188183 125.769326 
L 556.218953 127.096329 
L 579.40137 129.07091 
L 612.887084 132.213255 
L 695.313458 140.085039 
L 759.709062 146.162716 
L 788.043128 149.013119 
L 818.953019 152.367784 
L 847.287084 155.685293 
L 883.348623 160.106869 
L 916.834337 164.087879 
L 934.865106 166.00938 
L 952.895876 167.654865 
L 968.350821 168.785472 
L 981.229942 169.496745 
L 994.109063 169.974467 
L 994.109063 169.974467 
" clip-path="url(#pdc17646249)" style="fill: none; stroke: #ffa500; stroke-width: 2.5; stroke-linecap: square"/>
   </g>
   <g id="line2d_125">
    <path d="M 56.509062 263.517599 
L 82.267304 264.908298 
L 100.298073 265.709808 
L 118.328843 266.325538 
L 138.935436 266.776719 
L 156.966205 266.941268 
L 177.572799 266.88288 
L 198.179392 266.585631 
L 221.36181 266.017673 
L 259.999172 264.71721 
L 321.818953 262.525 
L 345.00137 261.898654 
L 368.183788 261.468705 
L 391.366205 261.272309 
L 414.548623 261.314773 
L 440.306865 261.633254 
L 471.216755 262.302063 
L 553.643128 264.255413 
L 576.825546 264.483657 
L 597.432139 264.483657 
L 620.614557 264.234181 
L 641.22115 263.804231 
L 661.827744 263.199118 
L 687.585986 262.248983 
L 741.678293 259.913457 
L 775.164008 258.565222 
L 800.922249 257.763711 
L 821.528843 257.344378 
L 839.559612 257.174522 
L 857.590381 257.222294 
L 873.045326 257.434615 
L 891.076095 257.891104 
L 909.106865 258.554605 
L 932.289282 259.66398 
L 958.047524 261.139608 
L 994.109063 263.331818 
L 994.109063 263.331818 
" clip-path="url(#pdc17646249)" style="fill: none; stroke: #ffd700; stroke-width: 2.5; stroke-linecap: square"/>
   </g>
   <g id="line2d_126">
    <path d="M 56.509062 357.055423 
L 71.964008 358.631903 
L 89.994777 360.702028 
L 118.328843 364.25309 
L 185.300271 372.69814 
L 211.058513 375.681244 
L 247.120052 379.59325 
L 296.060711 384.625248 
L 414.548623 396.722212 
L 435.155216 398.574709 
L 453.185986 399.98664 
L 468.640931 400.989855 
L 484.095876 401.754209 
L 496.974997 402.189466 
L 509.854117 402.417711 
L 522.733238 402.428327 
L 535.612359 402.216006 
L 548.49148 401.770133 
L 558.794777 401.255256 
L 571.673898 400.405973 
L 584.553019 399.339063 
L 597.432139 398.075755 
L 612.887084 396.308187 
L 628.34203 394.301757 
L 643.796975 392.077699 
L 661.827744 389.264452 
L 682.434337 385.814243 
L 703.040931 382.194177 
L 788.043128 367.066337 
L 806.073898 364.162853 
L 824.104667 361.503538 
L 836.983788 359.778434 
L 852.438733 357.936553 
L 865.317854 356.620165 
L 878.196975 355.516098 
L 891.076095 354.645584 
L 903.955216 354.024547 
L 914.258513 353.706066 
L 927.137634 353.552133 
L 940.016755 353.658294 
L 952.895876 354.019239 
L 965.774997 354.62966 
L 978.654117 355.473634 
L 994.109063 356.752866 
L 994.109063 356.752866 
" clip-path="url(#pdc17646249)" style="fill: none; stroke: #dc143c; stroke-width: 2.5; stroke-linecap: square"/>
   </g>
   <g id="text_40">
    <!-- Tokyo - Sunrise and Sunset Graph for 2025 -->
    <g transform="translate(364.405312 19.185) scale(0.16 -0.16)">
     <defs>
      <path id="IBMPlexSans-Bold-6b" d="M 442 0 
L 1389 0 
L 1389 947 
L 1811 1421 
L 2566 0 
L 3693 0 
L 2445 2074 
L 3565 3360 
L 2515 3360 
L 1843 2560 
L 1427 1939 
L 1389 1939 
L 1389 4736 
L 442 4736 
L 442 0 
z
" transform="scale(0.015625)"/>
      <path id="IBMPlexSans-Bold-2d" d="M 2240 1491 
L 2240 2413 
L 339 2413 
L 339 1491 
L 2240 1491 
z
" transform="scale(0.015625)"/>
      <path id="IBMPlexSans-Bold-53" d="M 1939 -77 
C 3053 -77 3680 518 3680 1376 
C 3680 2144 3238 2554 2323 2701 
L 1882 2771 
C 1510 2829 1350 2944 1350 3251 
C 1350 3520 1562 3686 1997 3686 
C 2458 3686 2746 3514 2957 3264 
L 3603 3917 
C 3238 4320 2726 4544 2054 4544 
C 1005 4544 378 3987 378 3187 
C 378 2438 806 1978 1747 1856 
L 2189 1798 
C 2605 1741 2707 1562 2707 1318 
C 2707 992 2477 781 2003 781 
C 1568 781 1184 954 883 1293 
L 243 646 
C 627 224 1158 -77 1939 -77 
z
" transform="scale(0.015625)"/>
      <path id="IBMPlexSans-Bold-75" d="M 2426 0 
L 3373 0 
L 3373 3360 
L 2426 3360 
L 2426 1178 
C 2426 858 2125 691 1830 691 
C 1485 691 1350 922 1350 1331 
L 1350 3360 
L 403 3360 
L 403 1248 
C 403 403 768 -77 1453 -77 
C 2003 -77 2278 224 2394 563 
L 2426 563 
L 2426 0 
z
" transform="scale(0.015625)"/>
      <path id="IBMPlexSans-Bold-73" d="M 1581 -77 
C 2445 -77 3021 397 3021 1043 
C 3021 1626 2643 1958 1914 2054 
L 1536 2106 
C 1261 2144 1184 2240 1184 2419 
C 1184 2586 1312 2701 1632 2701 
C 1914 2701 2195 2566 2406 2355 
L 2950 2912 
C 2611 3245 2285 3437 1581 3437 
C 781 3437 275 2989 275 2342 
C 275 1734 646 1402 1408 1306 
L 1773 1261 
C 2010 1229 2112 1146 2112 979 
C 2112 781 1984 659 1613 659 
C 1248 659 960 826 723 1088 
L 166 525 
C 512 141 934 -77 1581 -77 
z
" transform="scale(0.015625)"/>
      <path id="IBMPlexSans-Bold-64" d="M 2502 0 
L 3450 0 
L 3450 4736 
L 2502 4736 
L 2502 2797 
L 2470 2797 
C 2374 3168 2003 3437 1568 3437 
C 717 3437 275 2822 275 1683 
C 275 544 717 -77 1568 -77 
C 2003 -77 2374 198 2470 563 
L 2502 563 
L 2502 0 
z
M 1882 691 
C 1523 691 1261 966 1261 1389 
L 1261 1971 
C 1261 2394 1523 2669 1882 2669 
C 2240 2669 2502 2483 2502 2176 
L 2502 1184 
C 2502 877 2240 691 1882 691 
z
" transform="scale(0.015625)"/>
      <path id="IBMPlexSans-Bold-70" d="M 442 -1280 
L 1389 -1280 
L 1389 563 
L 1421 563 
C 1517 198 1888 -77 2323 -77 
C 3174 -77 3616 544 3616 1683 
C 3616 2822 3174 3437 2323 3437 
C 1888 3437 1517 3168 1421 2797 
L 1389 2797 
L 1389 3360 
L 442 3360 
L 442 -1280 
z
M 2010 691 
C 1651 691 1389 877 1389 1184 
L 1389 2176 
C 1389 2483 1651 2669 2010 2669 
C 2368 2669 2630 2394 2630 1971 
L 2630 1389 
C 2630 966 2368 691 2010 691 
z
" transform="scale(0.015625)"/>
      <path id="IBMPlexSans-Bold-32" d="M 3526 806 
L 1414 806 
L 2246 1459 
C 2886 1965 3437 2432 3437 3200 
C 3437 3974 2880 4544 1914 4544 
C 986 4544 467 4026 269 3405 
L 1107 3085 
C 1197 3424 1402 3712 1824 3712 
C 2112 3712 2413 3539 2413 3200 
L 2413 3110 
C 2413 2733 2240 2483 1741 2054 
L 365 877 
L 365 0 
L 3526 0 
L 3526 806 
z
" transform="scale(0.015625)"/>
      <path id="IBMPlexSans-Bold-30" d="M 1920 -77 
C 3091 -77 3642 774 3642 2234 
C 3642 3693 3091 4544 1920 4544 
C 749 4544 198 3693 198 2234 
C 198 774 749 -77 1920 -77 
z
M 1920 736 
C 1408 736 1242 1133 1242 1811 
L 1242 2656 
C 1242 3334 1408 3731 1920 3731 
C 2432 3731 2598 3334 2598 2656 
L 2598 1811 
C 2598 1133 2432 736 1920 736 
z
" transform="scale(0.015625)"/>
      <path id="IBMPlexSans-Bold-35" d="M 3341 4467 
L 608 4467 
L 442 1939 
L 1229 1830 
C 1344 1965 1574 2144 1920 2144 
C 2336 2144 2592 1888 2592 1478 
L 2592 1427 
C 2592 992 2355 704 1894 704 
C 1434 704 1184 986 992 1331 
L 294 781 
C 563 326 1024 -77 1888 -77 
C 2989 -77 3603 595 3603 1504 
C 3603 2400 2989 2925 2227 2925 
C 1658 2925 1446 2637 1267 2214 
L 1216 2214 
L 1312 3629 
L 3341 3629 
L 3341 4467 
z
" transform="scale(0.015625)"/>
     </defs>
     <use xlink:href="#IBMPlexSans-Bold-54"/>
     <use xlink:href="#IBMPlexSans-Bold-6f" transform="translate(58.399994 0)"/>
     <use xlink:href="#IBMPlexSans-Bold-6b" transform="translate(114.799988 0)"/>
     <use xlink:href="#IBMPlexSans-Bold-79" transform="translate(172.499985 0)"/>
     <use xlink:href="#IBMPlexSans-Bold-6f" transform="translate(225.899979 0)"/>
     <use xlink:href="#IBMPlexSans-Bold-20" transform="translate(282.299973 0)"/>
     <use xlink:href="#IBMPlexSans-Bold-2d" transform="translate(305.899963 0)"/>
     <use xlink:href="#IBMPlexSans-Bold-20" transform="translate(346.199951 0)"/>
     <use xlink:href="#IBMPlexSans-Bold-53" transform="translate(369.799942 0)"/>
     <use xlink:href="#IBMPlexSans-Bold-75" transform="translate(432.199936 0)"/>
     <use xlink:href="#IBMPlexSans-Bold-6e" transform="translate(491.799927 0)"/>
     <use xlink:href="#IBMPlexSans-Bold-72" transform="translate(551.399918 0)"/>
     <use xlink:href="#IBMPlexSans-Bold-69" transform="translate(591.799911 0)"/>
     <use xlink:href="#IBMPlexSans-Bold-73" transform="translate(620.399902 0)"/>
     <use xlink:href="#IBMPlexSans-Bold-65" transform="translate(670.799896 0)"/>
     <use xlink:href="#IBMPlexSans-Bold-20" transform="translate(726.999893 0)"/>
     <use xlink:href="#IBMPlexSans-Bold-61" transform="translate(750.599884 0)"/>
     <use xlink:href="#IBMPlexSans-Bold-6e" transform="translate(807.499878 0)"/>
     <use xlink:href="#IBMPlexSans-Bold-64" transform="translate(867.099869 0)"/>
     <use xlink:href="#IBMPlexSans-Bold-20" transform="translate(927.899857 0)"/>
     <use xlink:href="#IBMPlexSans-Bold-53" transform="translate(951.499847 0)"/>
     <use xlink:href="#IBMPlexSans-Bold-75" transform="translate(1013.899841 0)"/>
     <use xlink:href="#IBMPlexSans-Bold-6e" transform="translate(1073.499832 0)"/>
     <use xlink:href="#IBMPlexSans-Bold-73" transform="translate(1133.099823 0)"/>
     <use xlink:href="#IBMPlexSans-Bold-65" transform="translate(1183.499817 0)"/>
     <use xlink:href="#IBMPlexSans-Bold-74" transform="translate(1239.699814 0)"/>
     <use xlink:href="#IBMPlexSans-Bold-20" transform="translate(1277.999802 0)"/>
     <use xlink:href="#IBMPlexSans-Bold-47" transform="translate(1301.599792 0)"/>
     <use xlink:href="#IBMPlexSans-Bold-72" transform="translate(1373.499786 0)"/>
     <use xlink:href="#IBMPlexSans-Bold-61" transform="translate(1413.89978 0)"/>
     <use xlink:href="#IBMPlexSans-Bold-70" transform="translate(1470.799774 0)"/>
     <use xlink:href="#IBMPlexSans-Bold-68" transform="translate(1531.599762 0)"/>
     <use xlink:href="#IBMPlexSans-Bold-20" transform="translate(1591.199753 0)"/>
     <use xlink:href="#IBMPlexSans-Bold-66" transform="translate(1614.799744 0)"/>
     <use xlink:href="#IBMPlexSans-Bold-6f" transform="translate(1650.899734 0)"/>
     <use xlink:href="#IBMPlexSans-Bold-72" transform="translate(1707.299728 0)"/>
     <use xlink:href="#IBMPlexSans-Bold-20" transform="translate(1747.699722 0)"/>
     <use xlink:href="#IBMPlexSans-Bold-32" transform="translate(1771.299713 0)"/>
     <use xlink:href="#IBMPlexSans-Bold-30" transform="translate(1831.299698 0)"/>
     <use xlink:href="#IBMPlexSans-Bold-32" transform="translate(1891.299683 0)"/>
     <use xlink:href="#IBMPlexSans-Bold-35" transform="translate(1951.299667 0)"/>
    </g>
   </g>
   <g id="legend_1">
    <g id="patch_7">
     <path d="M 896.814063 95.505 
L 986.409063 95.505 
Q 988.609063 95.505 988.609063 93.305 
L 988.609063 46.885 
Q 988.609063 44.685 986.409063 44.685 
L 896.814063 44.685 
Q 894.614063 44.685 894.614063 46.885 
L 894.614063 93.305 
Q 894.614063 95.505 896.814063 95.505 
z
" style="fill: #ffffff; opacity: 0.9; stroke: #cccccc; stroke-linejoin: miter"/>
    </g>
    <g id="line2d_127">
     <path d="M 899.014063 53.375 
L 910.014063 53.375 
L 921.014063 53.375 
" style="fill: none; stroke: #ffa500; stroke-width: 2.5; stroke-linecap: square"/>
    </g>
    <g id="text_41">
     <!-- Sunrise -->
     <g transform="translate(929.814062 57.225) scale(0.11 -0.11)">
      <use xlink:href="#IBMPlexSans-53"/>
      <use xlink:href="#IBMPlexSans-75" transform="translate(58.099991 0)"/>
      <use xlink:href="#IBMPlexSans-6e" transform="translate(114.899979 0)"/>
      <use xlink:href="#IBMPlexSans-72" transform="translate(171.699966 0)"/>
      <use xlink:href="#IBMPlexSans-69" transform="translate(208.399963 0)"/>
      <use xlink:href="#IBMPlexSans-73" transform="translate(233.399948 0)"/>
      <use xlink:href="#IBMPlexSans-65" transform="translate(282.099945 0)"/>
     </g>
    </g>
    <g id="line2d_128">
     <path d="M 899.014063 69.215 
L 910.014063 69.215 
L 921.014063 69.215 
" style="fill: none; stroke: #ffd700; stroke-width: 2.5; stroke-linecap: square"/>
    </g>
    <g id="text_42">
     <!-- Solar Noon -->
     <g transform="translate(929.814062 73.065) scale(0.11 -0.11)">
      <defs>
       <path id="IBMPlexSans-20" transform="scale(0.015625)"/>
      </defs>
      <use xlink:href="#IBMPlexSans-53"/>
      <use xlink:href="#IBMPlexSans-6f" transform="translate(58.099991 0)"/>
      <use xlink:href="#IBMPlexSans-6c" transform="translate(114.099976 0)"/>
      <use xlink:href="#IBMPlexSans-61" transform="translate(141.299973 0)"/>
      <use xlink:href="#IBMPlexSans-72" transform="translate(194.699966 0)"/>
      <use xlink:href="#IBMPlexSans-20" transform="translate(231.399963 0)"/>
      <use xlink:href="#IBMPlexSans-4e" transform="translate(254.999954 0)"/>
      <use xlink:href="#IBMPlexSans-6f" transform="translate(325.699936 0)"/>
      <use xlink:href="#IBMPlexSans-6f" transform="translate(381.699921 0)"/>
      <use xlink:href="#IBMPlexSans-6e" transform="translate(437.699905 0)"/>
     </g>
    </g>
    <g id="line2d_129">
     <path d="M 899.014063 85.055 
L 910.014063 85.055 
L 921.014063 85.055 
" style="fill: none; stroke: #dc143c; stroke-width: 2.5; stroke-linecap: square"/>
    </g>
    <g id="text_43">
     <!-- Sunset -->
     <g transform="translate(929.814062 88.905) scale(0.11 -0.11)">
      <use xlink:href="#IBMPlexSans-53"/>
      <use xlink:href="#IBMPlexSans-75" transform="translate(58.099991 0)"/>
      <use xlink:href="#IBMPlexSans-6e" transform="translate(114.899979 0)"/>
      <use xlink:href="#IBMPlexSans-73" transform="translate(171.699966 0)"/>
      <use xlink:href="#IBMPlexSans-65" transform="translate(220.399963 0)"/>
      <use xlink:href="#IBMPlexSans-74" transform="translate(275.299957 0)"/>
     </g>
    </g>
   </g>
  </g>
 </g>
 <defs>
  <clipPath id="pdc17646249">
   <rect x="56.509063" y="39.185" width="937.6" height="458.612416"/>
  </clipPath>
 </defs>
</svg>
