<?xml version="1.0" encoding="utf-8" standalone="no"?>
<!DOCTYPE svg PUBLIC "-//W3C//DTD SVG 1.1//EN"
  "http://www.w3.org/Graphics/SVG/1.1/DTD/svg11.dtd">
<svg xmlns:xlink="http://www.w3.org/1999/xlink" width="1000.91pt" height="568.776421pt" viewBox="0 0 1000.91 568.776421" xmlns="http://www.w3.org/2000/svg" version="1.1">
 <metadata>
  <rdf:RDF xmlns:dc="http://purl.org/dc/elements/1.1/" xmlns:cc="http://creativecommons.org/ns#" xmlns:rdf="http://www.w3.org/1999/02/22-rdf-syntax-ns#">
   <cc:Work>
    <dc:type rdf:resource="http://purl.org/dc/dcmitype/StillImage"/>
    <dc:date>2025-10-23T22:16:41.551353</dc:date>
    <dc:format>image/svg+xml</dc:format>
    <dc:creator>
     <cc:Agent>
      <dc:title>Matplotlib v3.10.7, https://matplotlib.org/</dc:title>
     </cc:Agent>
    </dc:creator>
   </cc:Work>
  </rdf:RDF>
 </metadata>
 <defs>
  <style type="text/css">*{stroke-linejoin: round; stroke-linecap: butt}</style>
 </defs>
 <g id="figure_1">
  <g id="patch_1">
   <path d="M 0 568.776421 
L 1000.91 568.776421 
L 1000.91 0 
L 0 0 
z
" style="fill: #ffffff"/>
  </g>
  <g id="axes_1">
   <g id="patch_2">
    <path d="M 80.5 509.815373 
L 993.71 509.815373 
L 993.71 39.935 
L 80.5 39.935 
z
" style="fill: #ffffff"/>
   </g>
   <g id="line2d_1">
    <path d="M 80.5 509.815373 
L 80.5 39.935 
" clip-path="url(#pc97b3c90a7)" style="fill: none; stroke: #d3d3d3; stroke-opacity: 0.7; stroke-width: 0.8; stroke-linecap: square"/>
   </g>
   <g id="line2d_2">
    <path d="M 115.623462 509.815373 
L 115.623462 39.935 
" clip-path="url(#pc97b3c90a7)" style="fill: none; stroke: #d3d3d3; stroke-opacity: 0.7; stroke-width: 0.8; stroke-linecap: square"/>
   </g>
   <g id="line2d_3">
    <path d="M 158.273379 509.815373 
L 158.273379 39.935 
" clip-path="url(#pc97b3c90a7)" style="fill: none; stroke: #d3d3d3; stroke-opacity: 0.7; stroke-width: 0.8; stroke-linecap: square"/>
   </g>
   <g id="line2d_4">
    <path d="M 193.396841 509.815373 
L 193.396841 39.935 
" clip-path="url(#pc97b3c90a7)" style="fill: none; stroke: #d3d3d3; stroke-opacity: 0.7; stroke-width: 0.8; stroke-linecap: square"/>
   </g>
   <g id="line2d_5">
    <path d="M 228.520302 509.815373 
L 228.520302 39.935 
" clip-path="url(#pc97b3c90a7)" style="fill: none; stroke: #d3d3d3; stroke-opacity: 0.7; stroke-width: 0.8; stroke-linecap: square"/>
   </g>
   <g id="line2d_6">
    <path d="M 263.643764 509.815373 
L 263.643764 39.935 
" clip-path="url(#pc97b3c90a7)" style="fill: none; stroke: #d3d3d3; stroke-opacity: 0.7; stroke-width: 0.8; stroke-linecap: square"/>
   </g>
   <g id="line2d_7">
    <path d="M 306.293681 509.815373 
L 306.293681 39.935 
" clip-path="url(#pc97b3c90a7)" style="fill: none; stroke: #d3d3d3; stroke-opacity: 0.7; stroke-width: 0.8; stroke-linecap: square"/>
   </g>
   <g id="line2d_8">
    <path d="M 341.417143 509.815373 
L 341.417143 39.935 
" clip-path="url(#pc97b3c90a7)" style="fill: none; stroke: #d3d3d3; stroke-opacity: 0.7; stroke-width: 0.8; stroke-linecap: square"/>
   </g>
   <g id="line2d_9">
    <path d="M 381.558242 509.815373 
L 381.558242 39.935 
" clip-path="url(#pc97b3c90a7)" style="fill: none; stroke: #d3d3d3; stroke-opacity: 0.7; stroke-width: 0.8; stroke-linecap: square"/>
   </g>
   <g id="line2d_10">
    <path d="M 416.681703 509.815373 
L 416.681703 39.935 
" clip-path="url(#pc97b3c90a7)" style="fill: none; stroke: #d3d3d3; stroke-opacity: 0.7; stroke-width: 0.8; stroke-linecap: square"/>
   </g>
   <g id="line2d_11">
    <path d="M 459.331621 509.815373 
L 459.331621 39.935 
" clip-path="url(#pc97b3c90a7)" style="fill: none; stroke: #d3d3d3; stroke-opacity: 0.7; stroke-width: 0.8; stroke-linecap: square"/>
   </g>
   <g id="line2d_12">
    <path d="M 494.455082 509.815373 
L 494.455082 39.935 
" clip-path="url(#pc97b3c90a7)" style="fill: none; stroke: #d3d3d3; stroke-opacity: 0.7; stroke-width: 0.8; stroke-linecap: square"/>
   </g>
   <g id="line2d_13">
    <path d="M 534.596181 509.815373 
L 534.596181 39.935 
" clip-path="url(#pc97b3c90a7)" style="fill: none; stroke: #d3d3d3; stroke-opacity: 0.7; stroke-width: 0.8; stroke-linecap: square"/>
   </g>
   <g id="line2d_14">
    <path d="M 569.719643 509.815373 
L 569.719643 39.935 
" clip-path="url(#pc97b3c90a7)" style="fill: none; stroke: #d3d3d3; stroke-opacity: 0.7; stroke-width: 0.8; stroke-linecap: square"/>
   </g>
   <g id="line2d_15">
    <path d="M 612.36956 509.815373 
L 612.36956 39.935 
" clip-path="url(#pc97b3c90a7)" style="fill: none; stroke: #d3d3d3; stroke-opacity: 0.7; stroke-width: 0.8; stroke-linecap: square"/>
   </g>
   <g id="line2d_16">
    <path d="M 647.493022 509.815373 
L 647.493022 39.935 
" clip-path="url(#pc97b3c90a7)" style="fill: none; stroke: #d3d3d3; stroke-opacity: 0.7; stroke-width: 0.8; stroke-linecap: square"/>
   </g>
   <g id="line2d_17">
    <path d="M 690.14294 509.815373 
L 690.14294 39.935 
" clip-path="url(#pc97b3c90a7)" style="fill: none; stroke: #d3d3d3; stroke-opacity: 0.7; stroke-width: 0.8; stroke-linecap: square"/>
   </g>
   <g id="line2d_18">
    <path d="M 725.266401 509.815373 
L 725.266401 39.935 
" clip-path="url(#pc97b3c90a7)" style="fill: none; stroke: #d3d3d3; stroke-opacity: 0.7; stroke-width: 0.8; stroke-linecap: square"/>
   </g>
   <g id="line2d_19">
    <path d="M 765.4075 509.815373 
L 765.4075 39.935 
" clip-path="url(#pc97b3c90a7)" style="fill: none; stroke: #d3d3d3; stroke-opacity: 0.7; stroke-width: 0.8; stroke-linecap: square"/>
   </g>
   <g id="line2d_20">
    <path d="M 800.530962 509.815373 
L 800.530962 39.935 
" clip-path="url(#pc97b3c90a7)" style="fill: none; stroke: #d3d3d3; stroke-opacity: 0.7; stroke-width: 0.8; stroke-linecap: square"/>
   </g>
   <g id="line2d_21">
    <path d="M 843.180879 509.815373 
L 843.180879 39.935 
" clip-path="url(#pc97b3c90a7)" style="fill: none; stroke: #d3d3d3; stroke-opacity: 0.7; stroke-width: 0.8; stroke-linecap: square"/>
   </g>
   <g id="line2d_22">
    <path d="M 878.304341 509.815373 
L 878.304341 39.935 
" clip-path="url(#pc97b3c90a7)" style="fill: none; stroke: #d3d3d3; stroke-opacity: 0.7; stroke-width: 0.8; stroke-linecap: square"/>
   </g>
   <g id="line2d_23">
    <path d="M 918.44544 509.815373 
L 918.44544 39.935 
" clip-path="url(#pc97b3c90a7)" style="fill: none; stroke: #d3d3d3; stroke-opacity: 0.7; stroke-width: 0.8; stroke-linecap: square"/>
   </g>
   <g id="line2d_24">
    <path d="M 953.568901 509.815373 
L 953.568901 39.935 
" clip-path="url(#pc97b3c90a7)" style="fill: none; stroke: #d3d3d3; stroke-opacity: 0.7; stroke-width: 0.8; stroke-linecap: square"/>
   </g>
   <g id="line2d_25">
    <path d="M 80.5 39.935 
L 993.71 39.935 
" clip-path="url(#pc97b3c90a7)" style="fill: none; stroke: #d3d3d3; stroke-opacity: 0.7; stroke-width: 0.8; stroke-linecap: square"/>
   </g>
   <g id="line2d_26">
    <path d="M 80.5 59.513349 
L 993.71 59.513349 
" clip-path="url(#pc97b3c90a7)" style="fill: none; stroke: #d3d3d3; stroke-opacity: 0.7; stroke-width: 0.8; stroke-linecap: square"/>
   </g>
   <g id="line2d_27">
    <path d="M 80.5 79.091698 
L 993.71 79.091698 
" clip-path="url(#pc97b3c90a7)" style="fill: none; stroke: #d3d3d3; stroke-opacity: 0.7; stroke-width: 0.8; stroke-linecap: square"/>
   </g>
   <g id="line2d_28">
    <path d="M 80.5 98.670047 
L 993.71 98.670047 
" clip-path="url(#pc97b3c90a7)" style="fill: none; stroke: #d3d3d3; stroke-opacity: 0.7; stroke-width: 0.8; stroke-linecap: square"/>
   </g>
   <g id="line2d_29">
    <path d="M 80.5 118.248396 
L 993.71 118.248396 
" clip-path="url(#pc97b3c90a7)" style="fill: none; stroke: #d3d3d3; stroke-opacity: 0.7; stroke-width: 0.8; stroke-linecap: square"/>
   </g>
   <g id="line2d_30">
    <path d="M 80.5 137.826744 
L 993.71 137.826744 
" clip-path="url(#pc97b3c90a7)" style="fill: none; stroke: #d3d3d3; stroke-opacity: 0.7; stroke-width: 0.8; stroke-linecap: square"/>
   </g>
   <g id="line2d_31">
    <path d="M 80.5 157.405093 
L 993.71 157.405093 
" clip-path="url(#pc97b3c90a7)" style="fill: none; stroke: #d3d3d3; stroke-opacity: 0.7; stroke-width: 0.8; stroke-linecap: square"/>
   </g>
   <g id="line2d_32">
    <path d="M 80.5 176.983442 
L 993.71 176.983442 
" clip-path="url(#pc97b3c90a7)" style="fill: none; stroke: #d3d3d3; stroke-opacity: 0.7; stroke-width: 0.8; stroke-linecap: square"/>
   </g>
   <g id="line2d_33">
    <path d="M 80.5 196.561791 
L 993.71 196.561791 
" clip-path="url(#pc97b3c90a7)" style="fill: none; stroke: #d3d3d3; stroke-opacity: 0.7; stroke-width: 0.8; stroke-linecap: square"/>
   </g>
   <g id="line2d_34">
    <path d="M 80.5 216.14014 
L 993.71 216.14014 
" clip-path="url(#pc97b3c90a7)" style="fill: none; stroke: #d3d3d3; stroke-opacity: 0.7; stroke-width: 0.8; stroke-linecap: square"/>
   </g>
   <g id="line2d_35">
    <path d="M 80.5 235.718489 
L 993.71 235.718489 
" clip-path="url(#pc97b3c90a7)" style="fill: none; stroke: #d3d3d3; stroke-opacity: 0.7; stroke-width: 0.8; stroke-linecap: square"/>
   </g>
   <g id="line2d_36">
    <path d="M 80.5 255.296838 
L 993.71 255.296838 
" clip-path="url(#pc97b3c90a7)" style="fill: none; stroke: #d3d3d3; stroke-opacity: 0.7; stroke-width: 0.8; stroke-linecap: square"/>
   </g>
   <g id="line2d_37">
    <path d="M 80.5 274.875187 
L 993.71 274.875187 
" clip-path="url(#pc97b3c90a7)" style="fill: none; stroke: #d3d3d3; stroke-opacity: 0.7; stroke-width: 0.8; stroke-linecap: square"/>
   </g>
   <g id="line2d_38">
    <path d="M 80.5 294.453536 
L 993.71 294.453536 
" clip-path="url(#pc97b3c90a7)" style="fill: none; stroke: #d3d3d3; stroke-opacity: 0.7; stroke-width: 0.8; stroke-linecap: square"/>
   </g>
   <g id="line2d_39">
    <path d="M 80.5 314.031884 
L 993.71 314.031884 
" clip-path="url(#pc97b3c90a7)" style="fill: none; stroke: #d3d3d3; stroke-opacity: 0.7; stroke-width: 0.8; stroke-linecap: square"/>
   </g>
   <g id="line2d_40">
    <path d="M 80.5 333.610233 
L 993.71 333.610233 
" clip-path="url(#pc97b3c90a7)" style="fill: none; stroke: #d3d3d3; stroke-opacity: 0.7; stroke-width: 0.8; stroke-linecap: square"/>
   </g>
   <g id="line2d_41">
    <path d="M 80.5 353.188582 
L 993.71 353.188582 
" clip-path="url(#pc97b3c90a7)" style="fill: none; stroke: #d3d3d3; stroke-opacity: 0.7; stroke-width: 0.8; stroke-linecap: square"/>
   </g>
   <g id="line2d_42">
    <path d="M 80.5 372.766931 
L 993.71 372.766931 
" clip-path="url(#pc97b3c90a7)" style="fill: none; stroke: #d3d3d3; stroke-opacity: 0.7; stroke-width: 0.8; stroke-linecap: square"/>
   </g>
   <g id="line2d_43">
    <path d="M 80.5 392.34528 
L 993.71 392.34528 
" clip-path="url(#pc97b3c90a7)" style="fill: none; stroke: #d3d3d3; stroke-opacity: 0.7; stroke-width: 0.8; stroke-linecap: square"/>
   </g>
   <g id="line2d_44">
    <path d="M 80.5 411.923629 
L 993.71 411.923629 
" clip-path="url(#pc97b3c90a7)" style="fill: none; stroke: #d3d3d3; stroke-opacity: 0.7; stroke-width: 0.8; stroke-linecap: square"/>
   </g>
   <g id="line2d_45">
    <path d="M 80.5 431.501978 
L 993.71 431.501978 
" clip-path="url(#pc97b3c90a7)" style="fill: none; stroke: #d3d3d3; stroke-opacity: 0.7; stroke-width: 0.8; stroke-linecap: square"/>
   </g>
   <g id="line2d_46">
    <path d="M 80.5 451.080327 
L 993.71 451.080327 
" clip-path="url(#pc97b3c90a7)" style="fill: none; stroke: #d3d3d3; stroke-opacity: 0.7; stroke-width: 0.8; stroke-linecap: square"/>
   </g>
   <g id="line2d_47">
    <path d="M 80.5 470.658676 
L 993.71 470.658676 
" clip-path="url(#pc97b3c90a7)" style="fill: none; stroke: #d3d3d3; stroke-opacity: 0.7; stroke-width: 0.8; stroke-linecap: square"/>
   </g>
   <g id="line2d_48">
    <path d="M 80.5 490.237025 
L 993.71 490.237025 
" clip-path="url(#pc97b3c90a7)" style="fill: none; stroke: #d3d3d3; stroke-opacity: 0.7; stroke-width: 0.8; stroke-linecap: square"/>
   </g>
   <g id="line2d_49">
    <path d="M 80.5 509.815373 
L 993.71 509.815373 
" clip-path="url(#pc97b3c90a7)" style="fill: none; stroke: #d3d3d3; stroke-opacity: 0.7; stroke-width: 0.8; stroke-linecap: square"/>
   </g>
   <g id="matplotlib.axis_1">
    <g id="xtick_1">
     <g id="line2d_50">
      <path d="M 80.5 509.815373 
L 80.5 39.935 
" clip-path="url(#pc97b3c90a7)" style="fill: none; stroke-dasharray: 0.5,0.825; stroke-dashoffset: 0; stroke: #d3d3d3; stroke-opacity: 0.3; stroke-width: 0.5"/>
     </g>
     <g id="line2d_51">
      <defs>
       <path id="m7bdcffc9a5" d="M 0 0 
L 0 3.5 
" style="stroke: #000000; stroke-width: 0.8"/>
      </defs>
      <g>
       <use xlink:href="#m7bdcffc9a5" x="80.5" y="509.815373" style="stroke: #000000; stroke-width: 0.8"/>
      </g>
     </g>
     <g id="text_1">
      <!-- １月 -->
      <g transform="translate(64.738148 536.585637) rotate(-45) scale(0.1 -0.1)">
       <defs>
        <path id="NotoSansCJKjp-Regular-ff11" d="M 1581 0 
L 4928 0 
L 4928 486 
L 3590 486 
L 3590 4704 
L 3149 4704 
C 2848 4512 2451 4454 1920 4365 
L 1920 3994 
L 3008 3994 
L 3008 486 
L 1581 486 
L 1581 0 
z
" transform="scale(0.015625)"/>
        <path id="NotoSansCJKjp-Regular-6708" d="M 1325 5037 
L 1325 3066 
C 1325 2035 1222 736 186 -173 
C 294 -237 480 -416 550 -518 
C 1178 32 1498 755 1658 1485 
L 4749 1485 
L 4749 205 
C 4749 64 4704 19 4550 13 
C 4403 6 3885 0 3354 19 
C 3437 -115 3526 -339 3558 -486 
C 4243 -486 4672 -480 4922 -390 
C 5158 -307 5254 -147 5254 198 
L 5254 5037 
L 1325 5037 
z
M 1811 4570 
L 4749 4570 
L 4749 3494 
L 1811 3494 
L 1811 4570 
z
M 1811 3040 
L 4749 3040 
L 4749 1952 
L 1741 1952 
C 1792 2330 1811 2701 1811 3040 
z
" transform="scale(0.015625)"/>
       </defs>
       <use xlink:href="#NotoSansCJKjp-Regular-ff11"/>
       <use xlink:href="#NotoSansCJKjp-Regular-6708" transform="translate(99.999985 0)"/>
      </g>
     </g>
    </g>
    <g id="xtick_2">
     <g id="line2d_52">
      <path d="M 158.273379 509.815373 
L 158.273379 39.935 
" clip-path="url(#pc97b3c90a7)" style="fill: none; stroke-dasharray: 0.5,0.825; stroke-dashoffset: 0; stroke: #d3d3d3; stroke-opacity: 0.3; stroke-width: 0.5"/>
     </g>
     <g id="line2d_53">
      <g>
       <use xlink:href="#m7bdcffc9a5" x="158.273379" y="509.815373" style="stroke: #000000; stroke-width: 0.8"/>
      </g>
     </g>
     <g id="text_2">
      <!-- ２月 -->
      <g transform="translate(142.511527 536.585637) rotate(-45) scale(0.1 -0.1)">
       <defs>
        <path id="NotoSansCJKjp-Regular-ff12" d="M 1555 0 
L 4902 0 
L 4902 499 
L 3245 499 
C 3002 499 2758 480 2502 461 
C 3706 1446 4672 2406 4672 3354 
C 4672 4243 4051 4781 3123 4781 
C 2458 4781 1920 4442 1478 3936 
L 1850 3603 
C 2221 4019 2605 4294 3098 4294 
C 3731 4294 4090 3891 4090 3341 
C 4090 2522 3040 1523 1555 339 
L 1555 0 
z
" transform="scale(0.015625)"/>
       </defs>
       <use xlink:href="#NotoSansCJKjp-Regular-ff12"/>
       <use xlink:href="#NotoSansCJKjp-Regular-6708" transform="translate(99.999985 0)"/>
      </g>
     </g>
    </g>
    <g id="xtick_3">
     <g id="line2d_54">
      <path d="M 228.520302 509.815373 
L 228.520302 39.935 
" clip-path="url(#pc97b3c90a7)" style="fill: none; stroke-dasharray: 0.5,0.825; stroke-dashoffset: 0; stroke: #d3d3d3; stroke-opacity: 0.3; stroke-width: 0.5"/>
     </g>
     <g id="line2d_55">
      <g>
       <use xlink:href="#m7bdcffc9a5" x="228.520302" y="509.815373" style="stroke: #000000; stroke-width: 0.8"/>
      </g>
     </g>
     <g id="text_3">
      <!-- ３月 -->
      <g transform="translate(212.75845 536.585637) rotate(-45) scale(0.1 -0.1)">
       <defs>
        <path id="NotoSansCJKjp-Regular-ff13" d="M 3181 -77 
C 4070 -77 4806 422 4806 1248 
C 4806 1894 4365 2336 3776 2451 
L 3776 2477 
C 4333 2630 4672 3034 4672 3597 
C 4672 4294 4090 4781 3162 4781 
C 2509 4781 1971 4499 1523 4064 
L 1843 3706 
C 2214 4096 2662 4294 3142 4294 
C 3763 4294 4109 3974 4109 3533 
C 4109 3078 3661 2656 2611 2656 
L 2611 2208 
C 3776 2208 4237 1843 4237 1280 
C 4237 742 3757 410 3149 410 
C 2528 410 2054 678 1702 1088 
L 1395 717 
C 1754 282 2317 -77 3181 -77 
z
" transform="scale(0.015625)"/>
       </defs>
       <use xlink:href="#NotoSansCJKjp-Regular-ff13"/>
       <use xlink:href="#NotoSansCJKjp-Regular-6708" transform="translate(99.999985 0)"/>
      </g>
     </g>
    </g>
    <g id="xtick_4">
     <g id="line2d_56">
      <path d="M 306.293681 509.815373 
L 306.293681 39.935 
" clip-path="url(#pc97b3c90a7)" style="fill: none; stroke-dasharray: 0.5,0.825; stroke-dashoffset: 0; stroke: #d3d3d3; stroke-opacity: 0.3; stroke-width: 0.5"/>
     </g>
     <g id="line2d_57">
      <g>
       <use xlink:href="#m7bdcffc9a5" x="306.293681" y="509.815373" style="stroke: #000000; stroke-width: 0.8"/>
      </g>
     </g>
     <g id="text_4">
      <!-- ４月 -->
      <g transform="translate(290.531829 536.585637) rotate(-45) scale(0.1 -0.1)">
       <defs>
        <path id="NotoSansCJKjp-Regular-ff14" d="M 3789 0 
L 4339 0 
L 4339 1293 
L 5062 1293 
L 5062 1760 
L 4339 1760 
L 4339 4704 
L 3616 4704 
L 1421 1683 
L 1421 1293 
L 3789 1293 
L 3789 0 
z
M 3789 1760 
L 2086 1760 
L 3283 3386 
C 3450 3622 3603 3891 3789 4186 
L 3814 4186 
C 3795 3872 3789 3584 3789 3328 
L 3789 1760 
z
" transform="scale(0.015625)"/>
       </defs>
       <use xlink:href="#NotoSansCJKjp-Regular-ff14"/>
       <use xlink:href="#NotoSansCJKjp-Regular-6708" transform="translate(99.999985 0)"/>
      </g>
     </g>
    </g>
    <g id="xtick_5">
     <g id="line2d_58">
      <path d="M 381.558242 509.815373 
L 381.558242 39.935 
" clip-path="url(#pc97b3c90a7)" style="fill: none; stroke-dasharray: 0.5,0.825; stroke-dashoffset: 0; stroke: #d3d3d3; stroke-opacity: 0.3; stroke-width: 0.5"/>
     </g>
     <g id="line2d_59">
      <g>
       <use xlink:href="#m7bdcffc9a5" x="381.558242" y="509.815373" style="stroke: #000000; stroke-width: 0.8"/>
      </g>
     </g>
     <g id="text_5">
      <!-- ５月 -->
      <g transform="translate(365.79639 536.585637) rotate(-45) scale(0.1 -0.1)">
       <defs>
        <path id="NotoSansCJKjp-Regular-ff15" d="M 3104 -77 
C 3987 -77 4826 493 4826 1536 
C 4826 2534 4096 3027 3232 3027 
C 2829 3027 2547 2957 2266 2790 
L 2381 4198 
L 4640 4198 
L 4640 4704 
L 1875 4704 
L 1728 2451 
L 2042 2259 
C 2368 2490 2669 2579 3098 2579 
C 3770 2579 4230 2163 4230 1517 
C 4230 832 3686 416 3053 416 
C 2438 416 2042 659 1702 998 
L 1408 621 
C 1792 237 2298 -77 3104 -77 
z
" transform="scale(0.015625)"/>
       </defs>
       <use xlink:href="#NotoSansCJKjp-Regular-ff15"/>
       <use xlink:href="#NotoSansCJKjp-Regular-6708" transform="translate(99.999985 0)"/>
      </g>
     </g>
    </g>
    <g id="xtick_6">
     <g id="line2d_60">
      <path d="M 459.331621 509.815373 
L 459.331621 39.935 
" clip-path="url(#pc97b3c90a7)" style="fill: none; stroke-dasharray: 0.5,0.825; stroke-dashoffset: 0; stroke: #d3d3d3; stroke-opacity: 0.3; stroke-width: 0.5"/>
     </g>
     <g id="line2d_61">
      <g>
       <use xlink:href="#m7bdcffc9a5" x="459.331621" y="509.815373" style="stroke: #000000; stroke-width: 0.8"/>
      </g>
     </g>
     <g id="text_6">
      <!-- ６月 -->
      <g transform="translate(443.569769 536.585637) rotate(-45) scale(0.1 -0.1)">
       <defs>
        <path id="NotoSansCJKjp-Regular-ff16" d="M 3347 -77 
C 4205 -77 4883 493 4883 1485 
C 4883 2464 4192 2925 3386 2925 
C 2854 2925 2445 2669 2106 2304 
C 2157 3814 2874 4288 3494 4288 
C 3910 4288 4198 4147 4474 3859 
L 4806 4224 
C 4525 4531 4109 4774 3482 4774 
C 2522 4774 1542 4038 1542 2118 
C 1542 576 2368 -77 3347 -77 
z
M 2125 1754 
C 2413 2189 2835 2470 3309 2470 
C 3872 2470 4326 2150 4326 1472 
C 4326 787 3923 390 3354 390 
C 2726 390 2227 806 2125 1754 
z
" transform="scale(0.015625)"/>
       </defs>
       <use xlink:href="#NotoSansCJKjp-Regular-ff16"/>
       <use xlink:href="#NotoSansCJKjp-Regular-6708" transform="translate(99.999985 0)"/>
      </g>
     </g>
    </g>
    <g id="xtick_7">
     <g id="line2d_62">
      <path d="M 534.596181 509.815373 
L 534.596181 39.935 
" clip-path="url(#pc97b3c90a7)" style="fill: none; stroke-dasharray: 0.5,0.825; stroke-dashoffset: 0; stroke: #d3d3d3; stroke-opacity: 0.3; stroke-width: 0.5"/>
     </g>
     <g id="line2d_63">
      <g>
       <use xlink:href="#m7bdcffc9a5" x="534.596181" y="509.815373" style="stroke: #000000; stroke-width: 0.8"/>
      </g>
     </g>
     <g id="text_7">
      <!-- ７月 -->
      <g transform="translate(518.834329 536.585637) rotate(-45) scale(0.1 -0.1)">
       <defs>
        <path id="NotoSansCJKjp-Regular-ff17" d="M 2630 0 
L 3251 0 
C 3290 1773 3667 2822 4877 4339 
L 4877 4704 
L 1542 4704 
L 1542 4205 
L 4205 4205 
C 3181 2880 2714 1818 2630 0 
z
" transform="scale(0.015625)"/>
       </defs>
       <use xlink:href="#NotoSansCJKjp-Regular-ff17"/>
       <use xlink:href="#NotoSansCJKjp-Regular-6708" transform="translate(99.999985 0)"/>
      </g>
     </g>
    </g>
    <g id="xtick_8">
     <g id="line2d_64">
      <path d="M 612.36956 509.815373 
L 612.36956 39.935 
" clip-path="url(#pc97b3c90a7)" style="fill: none; stroke-dasharray: 0.5,0.825; stroke-dashoffset: 0; stroke: #d3d3d3; stroke-opacity: 0.3; stroke-width: 0.5"/>
     </g>
     <g id="line2d_65">
      <g>
       <use xlink:href="#m7bdcffc9a5" x="612.36956" y="509.815373" style="stroke: #000000; stroke-width: 0.8"/>
      </g>
     </g>
     <g id="text_8">
      <!-- ８月 -->
      <g transform="translate(596.607708 536.585637) rotate(-45) scale(0.1 -0.1)">
       <defs>
        <path id="NotoSansCJKjp-Regular-ff18" d="M 3213 -77 
C 4282 -77 4890 486 4890 1171 
C 4890 1702 4595 2061 4013 2349 
L 4013 2374 
C 4493 2714 4723 3098 4723 3552 
C 4717 4237 4147 4781 3200 4781 
C 2310 4781 1690 4256 1696 3546 
C 1696 3098 1926 2752 2387 2509 
L 2387 2483 
C 1830 2189 1498 1786 1498 1197 
C 1498 493 2144 -77 3213 -77 
z
M 3629 2522 
C 2893 2726 2234 2963 2234 3546 
C 2234 3987 2630 4346 3181 4346 
C 3853 4346 4205 3923 4205 3501 
C 4211 3155 4083 2874 3629 2522 
z
M 3232 352 
C 2509 352 2042 755 2042 1248 
C 2042 1677 2285 2003 2771 2285 
C 3635 2035 4314 1805 4314 1190 
C 4314 736 3923 352 3232 352 
z
" transform="scale(0.015625)"/>
       </defs>
       <use xlink:href="#NotoSansCJKjp-Regular-ff18"/>
       <use xlink:href="#NotoSansCJKjp-Regular-6708" transform="translate(99.999985 0)"/>
      </g>
     </g>
    </g>
    <g id="xtick_9">
     <g id="line2d_66">
      <path d="M 690.14294 509.815373 
L 690.14294 39.935 
" clip-path="url(#pc97b3c90a7)" style="fill: none; stroke-dasharray: 0.5,0.825; stroke-dashoffset: 0; stroke: #d3d3d3; stroke-opacity: 0.3; stroke-width: 0.5"/>
     </g>
     <g id="line2d_67">
      <g>
       <use xlink:href="#m7bdcffc9a5" x="690.14294" y="509.815373" style="stroke: #000000; stroke-width: 0.8"/>
      </g>
     </g>
     <g id="text_9">
      <!-- ９月 -->
      <g transform="translate(674.381087 536.585637) rotate(-45) scale(0.1 -0.1)">
       <defs>
        <path id="NotoSansCJKjp-Regular-ff19" d="M 3053 4774 
C 2195 4774 1517 4205 1517 3206 
C 1517 2227 2208 1766 3014 1766 
C 3546 1766 3955 2022 4294 2394 
C 4243 883 3526 410 2906 410 
C 2490 410 2202 550 1926 832 
L 1594 474 
C 1875 160 2291 -77 2918 -77 
C 3878 -77 4858 659 4858 2573 
C 4858 4122 4032 4774 3053 4774 
z
M 4275 2938 
C 3987 2509 3565 2227 3091 2227 
C 2528 2227 2074 2547 2074 3219 
C 2074 3910 2477 4307 3046 4307 
C 3674 4307 4173 3885 4275 2938 
z
" transform="scale(0.015625)"/>
       </defs>
       <use xlink:href="#NotoSansCJKjp-Regular-ff19"/>
       <use xlink:href="#NotoSansCJKjp-Regular-6708" transform="translate(99.999985 0)"/>
      </g>
     </g>
    </g>
    <g id="xtick_10">
     <g id="line2d_68">
      <path d="M 765.4075 509.815373 
L 765.4075 39.935 
" clip-path="url(#pc97b3c90a7)" style="fill: none; stroke-dasharray: 0.5,0.825; stroke-dashoffset: 0; stroke: #d3d3d3; stroke-opacity: 0.3; stroke-width: 0.5"/>
     </g>
     <g id="line2d_69">
      <g>
       <use xlink:href="#m7bdcffc9a5" x="765.4075" y="509.815373" style="stroke: #000000; stroke-width: 0.8"/>
      </g>
     </g>
     <g id="text_10">
      <!-- １０月 -->
      <g transform="translate(742.57458 543.656705) rotate(-45) scale(0.1 -0.1)">
       <defs>
        <path id="NotoSansCJKjp-Regular-ff10" d="M 3200 -77 
C 4224 -77 4934 762 4934 2368 
C 4934 3974 4224 4774 3200 4774 
C 2176 4774 1466 3974 1466 2368 
C 1466 762 2176 -77 3200 -77 
z
M 3200 397 
C 2528 397 2042 979 2042 2368 
C 2042 3763 2528 4301 3200 4301 
C 3872 4301 4358 3763 4358 2368 
C 4358 979 3872 397 3200 397 
z
" transform="scale(0.015625)"/>
       </defs>
       <use xlink:href="#NotoSansCJKjp-Regular-ff11"/>
       <use xlink:href="#NotoSansCJKjp-Regular-ff10" transform="translate(99.999985 0)"/>
       <use xlink:href="#NotoSansCJKjp-Regular-6708" transform="translate(199.999969 0)"/>
      </g>
     </g>
    </g>
    <g id="xtick_11">
     <g id="line2d_70">
      <path d="M 843.180879 509.815373 
L 843.180879 39.935 
" clip-path="url(#pc97b3c90a7)" style="fill: none; stroke-dasharray: 0.5,0.825; stroke-dashoffset: 0; stroke: #d3d3d3; stroke-opacity: 0.3; stroke-width: 0.5"/>
     </g>
     <g id="line2d_71">
      <g>
       <use xlink:href="#m7bdcffc9a5" x="843.180879" y="509.815373" style="stroke: #000000; stroke-width: 0.8"/>
      </g>
     </g>
     <g id="text_11">
      <!-- １１月 -->
      <g transform="translate(820.347959 543.656705) rotate(-45) scale(0.1 -0.1)">
       <use xlink:href="#NotoSansCJKjp-Regular-ff11"/>
       <use xlink:href="#NotoSansCJKjp-Regular-ff11" transform="translate(99.999985 0)"/>
       <use xlink:href="#NotoSansCJKjp-Regular-6708" transform="translate(199.999969 0)"/>
      </g>
     </g>
    </g>
    <g id="xtick_12">
     <g id="line2d_72">
      <path d="M 918.44544 509.815373 
L 918.44544 39.935 
" clip-path="url(#pc97b3c90a7)" style="fill: none; stroke-dasharray: 0.5,0.825; stroke-dashoffset: 0; stroke: #d3d3d3; stroke-opacity: 0.3; stroke-width: 0.5"/>
     </g>
     <g id="line2d_73">
      <g>
       <use xlink:href="#m7bdcffc9a5" x="918.44544" y="509.815373" style="stroke: #000000; stroke-width: 0.8"/>
      </g>
     </g>
     <g id="text_12">
      <!-- １２月 -->
      <g transform="translate(895.61252 543.656705) rotate(-45) scale(0.1 -0.1)">
       <use xlink:href="#NotoSansCJKjp-Regular-ff11"/>
       <use xlink:href="#NotoSansCJKjp-Regular-ff12" transform="translate(99.999985 0)"/>
       <use xlink:href="#NotoSansCJKjp-Regular-6708" transform="translate(199.999969 0)"/>
      </g>
     </g>
    </g>
    <g id="text_13">
     <!-- 西暦の月 -->
     <g transform="translate(513.105 558.827671) scale(0.12 -0.12)">
      <defs>
       <path id="NotoSansCJKjp-Regular-897f" d="M 378 4960 
L 378 4493 
L 2189 4493 
L 2189 3565 
L 659 3565 
L 659 -486 
L 1120 -486 
L 1120 -90 
L 5293 -90 
L 5293 -467 
L 5773 -467 
L 5773 3565 
L 4083 3565 
L 4083 4493 
L 6010 4493 
L 6010 4960 
L 378 4960 
z
M 1120 358 
L 1120 3123 
L 2208 3123 
L 2208 2829 
C 2208 2342 2048 1773 1178 1357 
C 1274 1293 1453 1133 1510 1037 
C 2451 1504 2662 2214 2662 2816 
L 2662 3123 
L 3603 3123 
L 3603 2003 
C 3603 1542 3712 1414 4192 1414 
C 4288 1414 4723 1414 4826 1414 
C 5082 1414 5216 1491 5293 1760 
L 5293 358 
L 1120 358 
z
M 4064 3123 
L 5293 3123 
L 5293 2182 
C 5178 2214 5030 2278 4954 2336 
C 4934 1907 4909 1843 4768 1843 
C 4678 1843 4320 1843 4250 1843 
C 4090 1843 4064 1869 4064 2010 
L 4064 3123 
z
M 2662 3565 
L 2662 4493 
L 3603 4493 
L 3603 3565 
L 2662 3565 
z
" transform="scale(0.015625)"/>
       <path id="NotoSansCJKjp-Regular-66a6" d="M 781 5069 
L 781 3174 
C 781 2163 736 742 218 -269 
C 333 -314 531 -429 621 -499 
C 1165 557 1242 2112 1242 3174 
L 1242 4634 
L 6042 4634 
L 6042 5069 
L 781 5069 
z
M 2266 4480 
L 2266 3917 
L 1434 3917 
L 1434 3533 
L 2170 3533 
C 1946 3091 1581 2637 1235 2406 
C 1325 2336 1453 2202 1523 2106 
C 1779 2317 2048 2669 2266 3040 
L 2266 2010 
L 2669 2010 
L 2669 3027 
C 2854 2867 3059 2675 3149 2566 
L 3398 2880 
C 3283 2976 2835 3302 2669 3411 
L 2669 3533 
L 3424 3533 
L 3424 3917 
L 2669 3917 
L 2669 4480 
L 2266 4480 
z
M 4480 4480 
L 4480 3917 
L 3616 3917 
L 3616 3533 
L 4314 3533 
C 4064 3098 3667 2656 3283 2438 
C 3379 2368 3507 2227 3565 2131 
C 3891 2362 4230 2758 4480 3187 
L 4480 2010 
L 4890 2010 
L 4890 3181 
C 5139 2758 5491 2374 5850 2163 
C 5914 2266 6042 2413 6131 2483 
C 5709 2682 5299 3098 5062 3533 
L 5952 3533 
L 5952 3917 
L 4890 3917 
L 4890 4480 
L 4480 4480 
z
M 2298 602 
L 4966 602 
L 4966 83 
L 2298 83 
L 2298 602 
z
M 2298 947 
L 2298 1440 
L 4966 1440 
L 4966 947 
L 2298 947 
z
M 1837 1818 
L 1837 -512 
L 2298 -512 
L 2298 -294 
L 4966 -294 
L 4966 -499 
L 5440 -499 
L 5440 1818 
L 1837 1818 
z
" transform="scale(0.015625)"/>
       <path id="NotoSansCJKjp-Regular-306e" d="M 3046 4109 
C 2976 3520 2848 2912 2688 2381 
C 2362 1299 2022 870 1722 870 
C 1434 870 1062 1229 1062 2035 
C 1062 2906 1818 3955 3046 4109 
z
M 3578 4122 
C 4666 4026 5286 3226 5286 2259 
C 5286 1152 4480 544 3661 358 
C 3514 326 3315 294 3110 275 
L 3411 -198 
C 4928 0 5811 896 5811 2240 
C 5811 3539 4858 4595 3360 4595 
C 1798 4595 563 3379 563 1990 
C 563 934 1133 282 1702 282 
C 2298 282 2803 954 3194 2272 
C 3373 2867 3494 3520 3578 4122 
z
" transform="scale(0.015625)"/>
      </defs>
      <use xlink:href="#NotoSansCJKjp-Regular-897f"/>
      <use xlink:href="#NotoSansCJKjp-Regular-66a6" transform="translate(99.999985 0)"/>
      <use xlink:href="#NotoSansCJKjp-Regular-306e" transform="translate(199.999969 0)"/>
      <use xlink:href="#NotoSansCJKjp-Regular-6708" transform="translate(299.999954 0)"/>
     </g>
    </g>
   </g>
   <g id="matplotlib.axis_2">
    <g id="ytick_1">
     <g id="line2d_74">
      <path d="M 80.5 39.935 
L 993.71 39.935 
" clip-path="url(#pc97b3c90a7)" style="fill: none; stroke-dasharray: 0.5,0.825; stroke-dashoffset: 0; stroke: #d3d3d3; stroke-opacity: 0.3; stroke-width: 0.5"/>
     </g>
     <g id="line2d_75">
      <defs>
       <path id="m121b7d2bc1" d="M 0 0 
L -3.5 0 
" style="stroke: #000000; stroke-width: 0.8"/>
      </defs>
      <g>
       <use xlink:href="#m121b7d2bc1" x="80.5" y="39.935" style="stroke: #000000; stroke-width: 0.8"/>
      </g>
     </g>
     <g id="text_14">
      <!-- ００：００ -->
      <g transform="translate(23.5 43.914687) scale(0.1 -0.1)">
       <defs>
        <path id="NotoSansCJKjp-Regular-ff1a" d="M 3200 3482 
C 3456 3482 3686 3667 3686 3962 
C 3686 4256 3456 4442 3200 4442 
C 2944 4442 2714 4256 2714 3962 
C 2714 3667 2944 3482 3200 3482 
z
M 3200 346 
C 3456 346 3686 538 3686 826 
C 3686 1120 3456 1312 3200 1312 
C 2944 1312 2714 1120 2714 826 
C 2714 538 2944 346 3200 346 
z
" transform="scale(0.015625)"/>
       </defs>
       <use xlink:href="#NotoSansCJKjp-Regular-ff10"/>
       <use xlink:href="#NotoSansCJKjp-Regular-ff10" transform="translate(99.999985 0)"/>
       <use xlink:href="#NotoSansCJKjp-Regular-ff1a" transform="translate(199.999969 0)"/>
       <use xlink:href="#NotoSansCJKjp-Regular-ff10" transform="translate(299.999954 0)"/>
       <use xlink:href="#NotoSansCJKjp-Regular-ff10" transform="translate(399.999939 0)"/>
      </g>
     </g>
    </g>
    <g id="ytick_2">
     <g id="line2d_76">
      <path d="M 80.5 59.513349 
L 993.71 59.513349 
" clip-path="url(#pc97b3c90a7)" style="fill: none; stroke-dasharray: 0.5,0.825; stroke-dashoffset: 0; stroke: #d3d3d3; stroke-opacity: 0.3; stroke-width: 0.5"/>
     </g>
     <g id="line2d_77">
      <g>
       <use xlink:href="#m121b7d2bc1" x="80.5" y="59.513349" style="stroke: #000000; stroke-width: 0.8"/>
      </g>
     </g>
     <g id="text_15">
      <!-- ０１：００ -->
      <g transform="translate(23.5 63.493036) scale(0.1 -0.1)">
       <use xlink:href="#NotoSansCJKjp-Regular-ff10"/>
       <use xlink:href="#NotoSansCJKjp-Regular-ff11" transform="translate(99.999985 0)"/>
       <use xlink:href="#NotoSansCJKjp-Regular-ff1a" transform="translate(199.999969 0)"/>
       <use xlink:href="#NotoSansCJKjp-Regular-ff10" transform="translate(299.999954 0)"/>
       <use xlink:href="#NotoSansCJKjp-Regular-ff10" transform="translate(399.999939 0)"/>
      </g>
     </g>
    </g>
    <g id="ytick_3">
     <g id="line2d_78">
      <path d="M 80.5 79.091698 
L 993.71 79.091698 
" clip-path="url(#pc97b3c90a7)" style="fill: none; stroke-dasharray: 0.5,0.825; stroke-dashoffset: 0; stroke: #d3d3d3; stroke-opacity: 0.3; stroke-width: 0.5"/>
     </g>
     <g id="line2d_79">
      <g>
       <use xlink:href="#m121b7d2bc1" x="80.5" y="79.091698" style="stroke: #000000; stroke-width: 0.8"/>
      </g>
     </g>
     <g id="text_16">
      <!-- ０２：００ -->
      <g transform="translate(23.5 83.071385) scale(0.1 -0.1)">
       <use xlink:href="#NotoSansCJKjp-Regular-ff10"/>
       <use xlink:href="#NotoSansCJKjp-Regular-ff12" transform="translate(99.999985 0)"/>
       <use xlink:href="#NotoSansCJKjp-Regular-ff1a" transform="translate(199.999969 0)"/>
       <use xlink:href="#NotoSansCJKjp-Regular-ff10" transform="translate(299.999954 0)"/>
       <use xlink:href="#NotoSansCJKjp-Regular-ff10" transform="translate(399.999939 0)"/>
      </g>
     </g>
    </g>
    <g id="ytick_4">
     <g id="line2d_80">
      <path d="M 80.5 98.670047 
L 993.71 98.670047 
" clip-path="url(#pc97b3c90a7)" style="fill: none; stroke-dasharray: 0.5,0.825; stroke-dashoffset: 0; stroke: #d3d3d3; stroke-opacity: 0.3; stroke-width: 0.5"/>
     </g>
     <g id="line2d_81">
      <g>
       <use xlink:href="#m121b7d2bc1" x="80.5" y="98.670047" style="stroke: #000000; stroke-width: 0.8"/>
      </g>
     </g>
     <g id="text_17">
      <!-- ０３：００ -->
      <g transform="translate(23.5 102.649734) scale(0.1 -0.1)">
       <use xlink:href="#NotoSansCJKjp-Regular-ff10"/>
       <use xlink:href="#NotoSansCJKjp-Regular-ff13" transform="translate(99.999985 0)"/>
       <use xlink:href="#NotoSansCJKjp-Regular-ff1a" transform="translate(199.999969 0)"/>
       <use xlink:href="#NotoSansCJKjp-Regular-ff10" transform="translate(299.999954 0)"/>
       <use xlink:href="#NotoSansCJKjp-Regular-ff10" transform="translate(399.999939 0)"/>
      </g>
     </g>
    </g>
    <g id="ytick_5">
     <g id="line2d_82">
      <path d="M 80.5 118.248396 
L 993.71 118.248396 
" clip-path="url(#pc97b3c90a7)" style="fill: none; stroke-dasharray: 0.5,0.825; stroke-dashoffset: 0; stroke: #d3d3d3; stroke-opacity: 0.3; stroke-width: 0.5"/>
     </g>
     <g id="line2d_83">
      <g>
       <use xlink:href="#m121b7d2bc1" x="80.5" y="118.248396" style="stroke: #000000; stroke-width: 0.8"/>
      </g>
     </g>
     <g id="text_18">
      <!-- ０４：００ -->
      <g transform="translate(23.5 122.228083) scale(0.1 -0.1)">
       <use xlink:href="#NotoSansCJKjp-Regular-ff10"/>
       <use xlink:href="#NotoSansCJKjp-Regular-ff14" transform="translate(99.999985 0)"/>
       <use xlink:href="#NotoSansCJKjp-Regular-ff1a" transform="translate(199.999969 0)"/>
       <use xlink:href="#NotoSansCJKjp-Regular-ff10" transform="translate(299.999954 0)"/>
       <use xlink:href="#NotoSansCJKjp-Regular-ff10" transform="translate(399.999939 0)"/>
      </g>
     </g>
    </g>
    <g id="ytick_6">
     <g id="line2d_84">
      <path d="M 80.5 137.826744 
L 993.71 137.826744 
" clip-path="url(#pc97b3c90a7)" style="fill: none; stroke-dasharray: 0.5,0.825; stroke-dashoffset: 0; stroke: #d3d3d3; stroke-opacity: 0.3; stroke-width: 0.5"/>
     </g>
     <g id="line2d_85">
      <g>
       <use xlink:href="#m121b7d2bc1" x="80.5" y="137.826744" style="stroke: #000000; stroke-width: 0.8"/>
      </g>
     </g>
     <g id="text_19">
      <!-- ０５：００ -->
      <g transform="translate(23.5 141.806432) scale(0.1 -0.1)">
       <use xlink:href="#NotoSansCJKjp-Regular-ff10"/>
       <use xlink:href="#NotoSansCJKjp-Regular-ff15" transform="translate(99.999985 0)"/>
       <use xlink:href="#NotoSansCJKjp-Regular-ff1a" transform="translate(199.999969 0)"/>
       <use xlink:href="#NotoSansCJKjp-Regular-ff10" transform="translate(299.999954 0)"/>
       <use xlink:href="#NotoSansCJKjp-Regular-ff10" transform="translate(399.999939 0)"/>
      </g>
     </g>
    </g>
    <g id="ytick_7">
     <g id="line2d_86">
      <path d="M 80.5 157.405093 
L 993.71 157.405093 
" clip-path="url(#pc97b3c90a7)" style="fill: none; stroke-dasharray: 0.5,0.825; stroke-dashoffset: 0; stroke: #d3d3d3; stroke-opacity: 0.3; stroke-width: 0.5"/>
     </g>
     <g id="line2d_87">
      <g>
       <use xlink:href="#m121b7d2bc1" x="80.5" y="157.405093" style="stroke: #000000; stroke-width: 0.8"/>
      </g>
     </g>
     <g id="text_20">
      <!-- ０６：００ -->
      <g transform="translate(23.5 161.384781) scale(0.1 -0.1)">
       <use xlink:href="#NotoSansCJKjp-Regular-ff10"/>
       <use xlink:href="#NotoSansCJKjp-Regular-ff16" transform="translate(99.999985 0)"/>
       <use xlink:href="#NotoSansCJKjp-Regular-ff1a" transform="translate(199.999969 0)"/>
       <use xlink:href="#NotoSansCJKjp-Regular-ff10" transform="translate(299.999954 0)"/>
       <use xlink:href="#NotoSansCJKjp-Regular-ff10" transform="translate(399.999939 0)"/>
      </g>
     </g>
    </g>
    <g id="ytick_8">
     <g id="line2d_88">
      <path d="M 80.5 176.983442 
L 993.71 176.983442 
" clip-path="url(#pc97b3c90a7)" style="fill: none; stroke-dasharray: 0.5,0.825; stroke-dashoffset: 0; stroke: #d3d3d3; stroke-opacity: 0.3; stroke-width: 0.5"/>
     </g>
     <g id="line2d_89">
      <g>
       <use xlink:href="#m121b7d2bc1" x="80.5" y="176.983442" style="stroke: #000000; stroke-width: 0.8"/>
      </g>
     </g>
     <g id="text_21">
      <!-- ０７：００ -->
      <g transform="translate(23.5 180.96313) scale(0.1 -0.1)">
       <use xlink:href="#NotoSansCJKjp-Regular-ff10"/>
       <use xlink:href="#NotoSansCJKjp-Regular-ff17" transform="translate(99.999985 0)"/>
       <use xlink:href="#NotoSansCJKjp-Regular-ff1a" transform="translate(199.999969 0)"/>
       <use xlink:href="#NotoSansCJKjp-Regular-ff10" transform="translate(299.999954 0)"/>
       <use xlink:href="#NotoSansCJKjp-Regular-ff10" transform="translate(399.999939 0)"/>
      </g>
     </g>
    </g>
    <g id="ytick_9">
     <g id="line2d_90">
      <path d="M 80.5 196.561791 
L 993.71 196.561791 
" clip-path="url(#pc97b3c90a7)" style="fill: none; stroke-dasharray: 0.5,0.825; stroke-dashoffset: 0; stroke: #d3d3d3; stroke-opacity: 0.3; stroke-width: 0.5"/>
     </g>
     <g id="line2d_91">
      <g>
       <use xlink:href="#m121b7d2bc1" x="80.5" y="196.561791" style="stroke: #000000; stroke-width: 0.8"/>
      </g>
     </g>
     <g id="text_22">
      <!-- ０８：００ -->
      <g transform="translate(23.5 200.541479) scale(0.1 -0.1)">
       <use xlink:href="#NotoSansCJKjp-Regular-ff10"/>
       <use xlink:href="#NotoSansCJKjp-Regular-ff18" transform="translate(99.999985 0)"/>
       <use xlink:href="#NotoSansCJKjp-Regular-ff1a" transform="translate(199.999969 0)"/>
       <use xlink:href="#NotoSansCJKjp-Regular-ff10" transform="translate(299.999954 0)"/>
       <use xlink:href="#NotoSansCJKjp-Regular-ff10" transform="translate(399.999939 0)"/>
      </g>
     </g>
    </g>
    <g id="ytick_10">
     <g id="line2d_92">
      <path d="M 80.5 216.14014 
L 993.71 216.14014 
" clip-path="url(#pc97b3c90a7)" style="fill: none; stroke-dasharray: 0.5,0.825; stroke-dashoffset: 0; stroke: #d3d3d3; stroke-opacity: 0.3; stroke-width: 0.5"/>
     </g>
     <g id="line2d_93">
      <g>
       <use xlink:href="#m121b7d2bc1" x="80.5" y="216.14014" style="stroke: #000000; stroke-width: 0.8"/>
      </g>
     </g>
     <g id="text_23">
      <!-- ０９：００ -->
      <g transform="translate(23.5 220.119828) scale(0.1 -0.1)">
       <use xlink:href="#NotoSansCJKjp-Regular-ff10"/>
       <use xlink:href="#NotoSansCJKjp-Regular-ff19" transform="translate(99.999985 0)"/>
       <use xlink:href="#NotoSansCJKjp-Regular-ff1a" transform="translate(199.999969 0)"/>
       <use xlink:href="#NotoSansCJKjp-Regular-ff10" transform="translate(299.999954 0)"/>
       <use xlink:href="#NotoSansCJKjp-Regular-ff10" transform="translate(399.999939 0)"/>
      </g>
     </g>
    </g>
    <g id="ytick_11">
     <g id="line2d_94">
      <path d="M 80.5 235.718489 
L 993.71 235.718489 
" clip-path="url(#pc97b3c90a7)" style="fill: none; stroke-dasharray: 0.5,0.825; stroke-dashoffset: 0; stroke: #d3d3d3; stroke-opacity: 0.3; stroke-width: 0.5"/>
     </g>
     <g id="line2d_95">
      <g>
       <use xlink:href="#m121b7d2bc1" x="80.5" y="235.718489" style="stroke: #000000; stroke-width: 0.8"/>
      </g>
     </g>
     <g id="text_24">
      <!-- １０：００ -->
      <g transform="translate(23.5 239.698176) scale(0.1 -0.1)">
       <use xlink:href="#NotoSansCJKjp-Regular-ff11"/>
       <use xlink:href="#NotoSansCJKjp-Regular-ff10" transform="translate(99.999985 0)"/>
       <use xlink:href="#NotoSansCJKjp-Regular-ff1a" transform="translate(199.999969 0)"/>
       <use xlink:href="#NotoSansCJKjp-Regular-ff10" transform="translate(299.999954 0)"/>
       <use xlink:href="#NotoSansCJKjp-Regular-ff10" transform="translate(399.999939 0)"/>
      </g>
     </g>
    </g>
    <g id="ytick_12">
     <g id="line2d_96">
      <path d="M 80.5 255.296838 
L 993.71 255.296838 
" clip-path="url(#pc97b3c90a7)" style="fill: none; stroke-dasharray: 0.5,0.825; stroke-dashoffset: 0; stroke: #d3d3d3; stroke-opacity: 0.3; stroke-width: 0.5"/>
     </g>
     <g id="line2d_97">
      <g>
       <use xlink:href="#m121b7d2bc1" x="80.5" y="255.296838" style="stroke: #000000; stroke-width: 0.8"/>
      </g>
     </g>
     <g id="text_25">
      <!-- １１：００ -->
      <g transform="translate(23.5 259.276525) scale(0.1 -0.1)">
       <use xlink:href="#NotoSansCJKjp-Regular-ff11"/>
       <use xlink:href="#NotoSansCJKjp-Regular-ff11" transform="translate(99.999985 0)"/>
       <use xlink:href="#NotoSansCJKjp-Regular-ff1a" transform="translate(199.999969 0)"/>
       <use xlink:href="#NotoSansCJKjp-Regular-ff10" transform="translate(299.999954 0)"/>
       <use xlink:href="#NotoSansCJKjp-Regular-ff10" transform="translate(399.999939 0)"/>
      </g>
     </g>
    </g>
    <g id="ytick_13">
     <g id="line2d_98">
      <path d="M 80.5 274.875187 
L 993.71 274.875187 
" clip-path="url(#pc97b3c90a7)" style="fill: none; stroke-dasharray: 0.5,0.825; stroke-dashoffset: 0; stroke: #d3d3d3; stroke-opacity: 0.3; stroke-width: 0.5"/>
     </g>
     <g id="line2d_99">
      <g>
       <use xlink:href="#m121b7d2bc1" x="80.5" y="274.875187" style="stroke: #000000; stroke-width: 0.8"/>
      </g>
     </g>
     <g id="text_26">
      <!-- １２：００ -->
      <g transform="translate(23.5 278.854874) scale(0.1 -0.1)">
       <use xlink:href="#NotoSansCJKjp-Regular-ff11"/>
       <use xlink:href="#NotoSansCJKjp-Regular-ff12" transform="translate(99.999985 0)"/>
       <use xlink:href="#NotoSansCJKjp-Regular-ff1a" transform="translate(199.999969 0)"/>
       <use xlink:href="#NotoSansCJKjp-Regular-ff10" transform="translate(299.999954 0)"/>
       <use xlink:href="#NotoSansCJKjp-Regular-ff10" transform="translate(399.999939 0)"/>
      </g>
     </g>
    </g>
    <g id="ytick_14">
     <g id="line2d_100">
      <path d="M 80.5 294.453536 
L 993.71 294.453536 
" clip-path="url(#pc97b3c90a7)" style="fill: none; stroke-dasharray: 0.5,0.825; stroke-dashoffset: 0; stroke: #d3d3d3; stroke-opacity: 0.3; stroke-width: 0.5"/>
     </g>
     <g id="line2d_101">
      <g>
       <use xlink:href="#m121b7d2bc1" x="80.5" y="294.453536" style="stroke: #000000; stroke-width: 0.8"/>
      </g>
     </g>
     <g id="text_27">
      <!-- １３：００ -->
      <g transform="translate(23.5 298.433223) scale(0.1 -0.1)">
       <use xlink:href="#NotoSansCJKjp-Regular-ff11"/>
       <use xlink:href="#NotoSansCJKjp-Regular-ff13" transform="translate(99.999985 0)"/>
       <use xlink:href="#NotoSansCJKjp-Regular-ff1a" transform="translate(199.999969 0)"/>
       <use xlink:href="#NotoSansCJKjp-Regular-ff10" transform="translate(299.999954 0)"/>
       <use xlink:href="#NotoSansCJKjp-Regular-ff10" transform="translate(399.999939 0)"/>
      </g>
     </g>
    </g>
    <g id="ytick_15">
     <g id="line2d_102">
      <path d="M 80.5 314.031884 
L 993.71 314.031884 
" clip-path="url(#pc97b3c90a7)" style="fill: none; stroke-dasharray: 0.5,0.825; stroke-dashoffset: 0; stroke: #d3d3d3; stroke-opacity: 0.3; stroke-width: 0.5"/>
     </g>
     <g id="line2d_103">
      <g>
       <use xlink:href="#m121b7d2bc1" x="80.5" y="314.031884" style="stroke: #000000; stroke-width: 0.8"/>
      </g>
     </g>
     <g id="text_28">
      <!-- １４：００ -->
      <g transform="translate(23.5 318.011572) scale(0.1 -0.1)">
       <use xlink:href="#NotoSansCJKjp-Regular-ff11"/>
       <use xlink:href="#NotoSansCJKjp-Regular-ff14" transform="translate(99.999985 0)"/>
       <use xlink:href="#NotoSansCJKjp-Regular-ff1a" transform="translate(199.999969 0)"/>
       <use xlink:href="#NotoSansCJKjp-Regular-ff10" transform="translate(299.999954 0)"/>
       <use xlink:href="#NotoSansCJKjp-Regular-ff10" transform="translate(399.999939 0)"/>
      </g>
     </g>
    </g>
    <g id="ytick_16">
     <g id="line2d_104">
      <path d="M 80.5 333.610233 
L 993.71 333.610233 
" clip-path="url(#pc97b3c90a7)" style="fill: none; stroke-dasharray: 0.5,0.825; stroke-dashoffset: 0; stroke: #d3d3d3; stroke-opacity: 0.3; stroke-width: 0.5"/>
     </g>
     <g id="line2d_105">
      <g>
       <use xlink:href="#m121b7d2bc1" x="80.5" y="333.610233" style="stroke: #000000; stroke-width: 0.8"/>
      </g>
     </g>
     <g id="text_29">
      <!-- １５：００ -->
      <g transform="translate(23.5 337.589921) scale(0.1 -0.1)">
       <use xlink:href="#NotoSansCJKjp-Regular-ff11"/>
       <use xlink:href="#NotoSansCJKjp-Regular-ff15" transform="translate(99.999985 0)"/>
       <use xlink:href="#NotoSansCJKjp-Regular-ff1a" transform="translate(199.999969 0)"/>
       <use xlink:href="#NotoSansCJKjp-Regular-ff10" transform="translate(299.999954 0)"/>
       <use xlink:href="#NotoSansCJKjp-Regular-ff10" transform="translate(399.999939 0)"/>
      </g>
     </g>
    </g>
    <g id="ytick_17">
     <g id="line2d_106">
      <path d="M 80.5 353.188582 
L 993.71 353.188582 
" clip-path="url(#pc97b3c90a7)" style="fill: none; stroke-dasharray: 0.5,0.825; stroke-dashoffset: 0; stroke: #d3d3d3; stroke-opacity: 0.3; stroke-width: 0.5"/>
     </g>
     <g id="line2d_107">
      <g>
       <use xlink:href="#m121b7d2bc1" x="80.5" y="353.188582" style="stroke: #000000; stroke-width: 0.8"/>
      </g>
     </g>
     <g id="text_30">
      <!-- １６：００ -->
      <g transform="translate(23.5 357.16827) scale(0.1 -0.1)">
       <use xlink:href="#NotoSansCJKjp-Regular-ff11"/>
       <use xlink:href="#NotoSansCJKjp-Regular-ff16" transform="translate(99.999985 0)"/>
       <use xlink:href="#NotoSansCJKjp-Regular-ff1a" transform="translate(199.999969 0)"/>
       <use xlink:href="#NotoSansCJKjp-Regular-ff10" transform="translate(299.999954 0)"/>
       <use xlink:href="#NotoSansCJKjp-Regular-ff10" transform="translate(399.999939 0)"/>
      </g>
     </g>
    </g>
    <g id="ytick_18">
     <g id="line2d_108">
      <path d="M 80.5 372.766931 
L 993.71 372.766931 
" clip-path="url(#pc97b3c90a7)" style="fill: none; stroke-dasharray: 0.5,0.825; stroke-dashoffset: 0; stroke: #d3d3d3; stroke-opacity: 0.3; stroke-width: 0.5"/>
     </g>
     <g id="line2d_109">
      <g>
       <use xlink:href="#m121b7d2bc1" x="80.5" y="372.766931" style="stroke: #000000; stroke-width: 0.8"/>
      </g>
     </g>
     <g id="text_31">
      <!-- １７：００ -->
      <g transform="translate(23.5 376.746619) scale(0.1 -0.1)">
       <use xlink:href="#NotoSansCJKjp-Regular-ff11"/>
       <use xlink:href="#NotoSansCJKjp-Regular-ff17" transform="translate(99.999985 0)"/>
       <use xlink:href="#NotoSansCJKjp-Regular-ff1a" transform="translate(199.999969 0)"/>
       <use xlink:href="#NotoSansCJKjp-Regular-ff10" transform="translate(299.999954 0)"/>
       <use xlink:href="#NotoSansCJKjp-Regular-ff10" transform="translate(399.999939 0)"/>
      </g>
     </g>
    </g>
    <g id="ytick_19">
     <g id="line2d_110">
      <path d="M 80.5 392.34528 
L 993.71 392.34528 
" clip-path="url(#pc97b3c90a7)" style="fill: none; stroke-dasharray: 0.5,0.825; stroke-dashoffset: 0; stroke: #d3d3d3; stroke-opacity: 0.3; stroke-width: 0.5"/>
     </g>
     <g id="line2d_111">
      <g>
       <use xlink:href="#m121b7d2bc1" x="80.5" y="392.34528" style="stroke: #000000; stroke-width: 0.8"/>
      </g>
     </g>
     <g id="text_32">
      <!-- １８：００ -->
      <g transform="translate(23.5 396.324968) scale(0.1 -0.1)">
       <use xlink:href="#NotoSansCJKjp-Regular-ff11"/>
       <use xlink:href="#NotoSansCJKjp-Regular-ff18" transform="translate(99.999985 0)"/>
       <use xlink:href="#NotoSansCJKjp-Regular-ff1a" transform="translate(199.999969 0)"/>
       <use xlink:href="#NotoSansCJKjp-Regular-ff10" transform="translate(299.999954 0)"/>
       <use xlink:href="#NotoSansCJKjp-Regular-ff10" transform="translate(399.999939 0)"/>
      </g>
     </g>
    </g>
    <g id="ytick_20">
     <g id="line2d_112">
      <path d="M 80.5 411.923629 
L 993.71 411.923629 
" clip-path="url(#pc97b3c90a7)" style="fill: none; stroke-dasharray: 0.5,0.825; stroke-dashoffset: 0; stroke: #d3d3d3; stroke-opacity: 0.3; stroke-width: 0.5"/>
     </g>
     <g id="line2d_113">
      <g>
       <use xlink:href="#m121b7d2bc1" x="80.5" y="411.923629" style="stroke: #000000; stroke-width: 0.8"/>
      </g>
     </g>
     <g id="text_33">
      <!-- １９：００ -->
      <g transform="translate(23.5 415.903316) scale(0.1 -0.1)">
       <use xlink:href="#NotoSansCJKjp-Regular-ff11"/>
       <use xlink:href="#NotoSansCJKjp-Regular-ff19" transform="translate(99.999985 0)"/>
       <use xlink:href="#NotoSansCJKjp-Regular-ff1a" transform="translate(199.999969 0)"/>
       <use xlink:href="#NotoSansCJKjp-Regular-ff10" transform="translate(299.999954 0)"/>
       <use xlink:href="#NotoSansCJKjp-Regular-ff10" transform="translate(399.999939 0)"/>
      </g>
     </g>
    </g>
    <g id="ytick_21">
     <g id="line2d_114">
      <path d="M 80.5 431.501978 
L 993.71 431.501978 
" clip-path="url(#pc97b3c90a7)" style="fill: none; stroke-dasharray: 0.5,0.825; stroke-dashoffset: 0; stroke: #d3d3d3; stroke-opacity: 0.3; stroke-width: 0.5"/>
     </g>
     <g id="line2d_115">
      <g>
       <use xlink:href="#m121b7d2bc1" x="80.5" y="431.501978" style="stroke: #000000; stroke-width: 0.8"/>
      </g>
     </g>
     <g id="text_34">
      <!-- ２０：００ -->
      <g transform="translate(23.5 435.481665) scale(0.1 -0.1)">
       <use xlink:href="#NotoSansCJKjp-Regular-ff12"/>
       <use xlink:href="#NotoSansCJKjp-Regular-ff10" transform="translate(99.999985 0)"/>
       <use xlink:href="#NotoSansCJKjp-Regular-ff1a" transform="translate(199.999969 0)"/>
       <use xlink:href="#NotoSansCJKjp-Regular-ff10" transform="translate(299.999954 0)"/>
       <use xlink:href="#NotoSansCJKjp-Regular-ff10" transform="translate(399.999939 0)"/>
      </g>
     </g>
    </g>
    <g id="ytick_22">
     <g id="line2d_116">
      <path d="M 80.5 451.080327 
L 993.71 451.080327 
" clip-path="url(#pc97b3c90a7)" style="fill: none; stroke-dasharray: 0.5,0.825; stroke-dashoffset: 0; stroke: #d3d3d3; stroke-opacity: 0.3; stroke-width: 0.5"/>
     </g>
     <g id="line2d_117">
      <g>
       <use xlink:href="#m121b7d2bc1" x="80.5" y="451.080327" style="stroke: #000000; stroke-width: 0.8"/>
      </g>
     </g>
     <g id="text_35">
      <!-- ２１：００ -->
      <g transform="translate(23.5 455.060014) scale(0.1 -0.1)">
       <use xlink:href="#NotoSansCJKjp-Regular-ff12"/>
       <use xlink:href="#NotoSansCJKjp-Regular-ff11" transform="translate(99.999985 0)"/>
       <use xlink:href="#NotoSansCJKjp-Regular-ff1a" transform="translate(199.999969 0)"/>
       <use xlink:href="#NotoSansCJKjp-Regular-ff10" transform="translate(299.999954 0)"/>
       <use xlink:href="#NotoSansCJKjp-Regular-ff10" transform="translate(399.999939 0)"/>
      </g>
     </g>
    </g>
    <g id="ytick_23">
     <g id="line2d_118">
      <path d="M 80.5 470.658676 
L 993.71 470.658676 
" clip-path="url(#pc97b3c90a7)" style="fill: none; stroke-dasharray: 0.5,0.825; stroke-dashoffset: 0; stroke: #d3d3d3; stroke-opacity: 0.3; stroke-width: 0.5"/>
     </g>
     <g id="line2d_119">
      <g>
       <use xlink:href="#m121b7d2bc1" x="80.5" y="470.658676" style="stroke: #000000; stroke-width: 0.8"/>
      </g>
     </g>
     <g id="text_36">
      <!-- ２２：００ -->
      <g transform="translate(23.5 474.638363) scale(0.1 -0.1)">
       <use xlink:href="#NotoSansCJKjp-Regular-ff12"/>
       <use xlink:href="#NotoSansCJKjp-Regular-ff12" transform="translate(99.999985 0)"/>
       <use xlink:href="#NotoSansCJKjp-Regular-ff1a" transform="translate(199.999969 0)"/>
       <use xlink:href="#NotoSansCJKjp-Regular-ff10" transform="translate(299.999954 0)"/>
       <use xlink:href="#NotoSansCJKjp-Regular-ff10" transform="translate(399.999939 0)"/>
      </g>
     </g>
    </g>
    <g id="ytick_24">
     <g id="line2d_120">
      <path d="M 80.5 490.237025 
L 993.71 490.237025 
" clip-path="url(#pc97b3c90a7)" style="fill: none; stroke-dasharray: 0.5,0.825; stroke-dashoffset: 0; stroke: #d3d3d3; stroke-opacity: 0.3; stroke-width: 0.5"/>
     </g>
     <g id="line2d_121">
      <g>
       <use xlink:href="#m121b7d2bc1" x="80.5" y="490.237025" style="stroke: #000000; stroke-width: 0.8"/>
      </g>
     </g>
     <g id="text_37">
      <!-- ２３：００ -->
      <g transform="translate(23.5 494.216712) scale(0.1 -0.1)">
       <use xlink:href="#NotoSansCJKjp-Regular-ff12"/>
       <use xlink:href="#NotoSansCJKjp-Regular-ff13" transform="translate(99.999985 0)"/>
       <use xlink:href="#NotoSansCJKjp-Regular-ff1a" transform="translate(199.999969 0)"/>
       <use xlink:href="#NotoSansCJKjp-Regular-ff10" transform="translate(299.999954 0)"/>
       <use xlink:href="#NotoSansCJKjp-Regular-ff10" transform="translate(399.999939 0)"/>
      </g>
     </g>
    </g>
    <g id="ytick_25">
     <g id="line2d_122">
      <path d="M 80.5 509.815373 
L 993.71 509.815373 
" clip-path="url(#pc97b3c90a7)" style="fill: none; stroke-dasharray: 0.5,0.825; stroke-dashoffset: 0; stroke: #d3d3d3; stroke-opacity: 0.3; stroke-width: 0.5"/>
     </g>
     <g id="line2d_123">
      <g>
       <use xlink:href="#m121b7d2bc1" x="80.5" y="509.815373" style="stroke: #000000; stroke-width: 0.8"/>
      </g>
     </g>
     <g id="text_38">
      <!-- ２４：００ -->
      <g transform="translate(23.5 513.795061) scale(0.1 -0.1)">
       <use xlink:href="#NotoSansCJKjp-Regular-ff12"/>
       <use xlink:href="#NotoSansCJKjp-Regular-ff14" transform="translate(99.999985 0)"/>
       <use xlink:href="#NotoSansCJKjp-Regular-ff1a" transform="translate(199.999969 0)"/>
       <use xlink:href="#NotoSansCJKjp-Regular-ff10" transform="translate(299.999954 0)"/>
       <use xlink:href="#NotoSansCJKjp-Regular-ff10" transform="translate(399.999939 0)"/>
      </g>
     </g>
    </g>
    <g id="text_39">
     <!-- 時刻 -->
     <g transform="translate(16.75125 286.875187) rotate(-90) scale(0.12 -0.12)">
      <defs>
       <path id="NotoSansCJKjp-Regular-6642" d="M 2848 1338 
C 3174 998 3520 525 3661 211 
L 4070 461 
C 3923 781 3558 1235 3232 1562 
L 2848 1338 
z
M 4038 5382 
L 4038 4614 
L 2694 4614 
L 2694 4186 
L 4038 4186 
L 4038 3373 
L 2426 3373 
L 2426 2938 
L 4883 2938 
L 4883 2214 
L 2458 2214 
L 2458 1786 
L 4883 1786 
L 4883 64 
C 4883 -32 4851 -58 4749 -58 
C 4646 -64 4282 -64 3891 -51 
C 3962 -186 4032 -378 4051 -506 
C 4570 -506 4890 -499 5094 -422 
C 5293 -352 5357 -218 5357 58 
L 5357 1786 
L 6106 1786 
L 6106 2214 
L 5357 2214 
L 5357 2938 
L 6170 2938 
L 6170 3373 
L 4512 3373 
L 4512 4186 
L 5901 4186 
L 5901 4614 
L 4512 4614 
L 4512 5382 
L 4038 5382 
z
M 1862 2662 
L 1862 1184 
L 934 1184 
L 934 2662 
L 1862 2662 
z
M 1862 3098 
L 934 3098 
L 934 4518 
L 1862 4518 
L 1862 3098 
z
M 486 4960 
L 486 224 
L 934 224 
L 934 749 
L 2317 749 
L 2317 4960 
L 486 4960 
z
" transform="scale(0.015625)"/>
       <path id="NotoSansCJKjp-Regular-523b" d="M 3968 4666 
L 3968 1094 
L 4429 1094 
L 4429 4666 
L 3968 4666 
z
M 5382 5248 
L 5382 102 
C 5382 -13 5344 -45 5229 -45 
C 5120 -51 4762 -58 4365 -38 
C 4429 -179 4499 -390 4525 -518 
C 5062 -525 5389 -512 5581 -429 
C 5773 -352 5850 -205 5850 102 
L 5850 5248 
L 5382 5248 
z
M 2701 3616 
C 2470 3213 2150 2816 1786 2451 
C 1632 2605 1421 2778 1203 2944 
C 1504 3270 1843 3706 2125 4096 
L 2099 4109 
L 3661 4109 
L 3661 4544 
L 2240 4544 
L 2240 5338 
L 1773 5338 
L 1773 4544 
L 333 4544 
L 333 4109 
L 1555 4109 
C 1370 3808 1114 3456 877 3174 
L 595 3366 
L 320 3046 
C 704 2790 1165 2432 1446 2144 
C 1088 1837 698 1568 301 1363 
C 416 1274 550 1126 627 1018 
C 1606 1568 2547 2470 3123 3450 
L 2701 3616 
z
M 3174 2406 
C 2554 1350 1414 397 198 -134 
C 314 -237 454 -397 525 -512 
C 1139 -218 1734 173 2259 627 
C 2662 275 3117 -160 3347 -448 
L 3718 -109 
C 3475 173 3002 602 2598 947 
C 2989 1338 3328 1766 3597 2221 
L 3174 2406 
z
" transform="scale(0.015625)"/>
      </defs>
      <use xlink:href="#NotoSansCJKjp-Regular-6642"/>
      <use xlink:href="#NotoSansCJKjp-Regular-523b" transform="translate(99.999985 0)"/>
     </g>
    </g>
   </g>
   <g id="patch_3">
    <path d="M 80.5 509.815373 
L 80.5 39.935 
" style="fill: none; stroke: #000000; stroke-width: 0.8; stroke-linejoin: miter; stroke-linecap: square"/>
   </g>
   <g id="patch_4">
    <path d="M 993.71 509.815373 
L 993.71 39.935 
" style="fill: none; stroke: #000000; stroke-width: 0.8; stroke-linejoin: miter; stroke-linecap: square"/>
   </g>
   <g id="patch_5">
    <path d="M 80.5 509.815373 
L 993.71 509.815373 
" style="fill: none; stroke: #000000; stroke-width: 0.8; stroke-linejoin: miter; stroke-linecap: square"/>
   </g>
   <g id="patch_6">
    <path d="M 80.5 39.935 
L 993.71 39.935 
" style="fill: none; stroke: #000000; stroke-width: 0.8; stroke-linejoin: miter; stroke-linecap: square"/>
   </g>
   <g id="line2d_124">
    <path d="M 80.5 174.019498 
L 93.044093 174.188089 
L 103.079368 174.139143 
L 115.623462 173.834591 
L 128.167555 173.268994 
L 140.711648 172.45323 
L 153.255742 171.398174 
L 165.799835 170.125582 
L 180.852747 168.3309 
L 195.905659 166.280612 
L 210.958571 164.007348 
L 228.520302 161.135857 
L 251.09967 157.171241 
L 278.696676 152.097185 
L 336.399505 141.568384 
L 353.961236 138.60444 
L 374.031786 135.482781 
L 391.593516 133.035487 
L 406.646429 131.19186 
L 419.190522 129.859444 
L 431.734615 128.722812 
L 444.278709 127.798279 
L 456.822802 127.096722 
L 469.366896 126.623578 
L 481.910989 126.37341 
L 494.455082 126.357095 
L 506.999176 126.552879 
L 519.543269 126.955322 
L 534.596181 127.684072 
L 549.649093 128.646674 
L 567.210824 130.006282 
L 587.281374 131.790087 
L 622.404835 135.248929 
L 700.178214 143.069391 
L 765.4075 149.541123 
L 793.004505 152.46156 
L 823.11033 155.898648 
L 850.707335 159.297667 
L 883.321978 163.501574 
L 913.427802 167.308475 
L 933.498352 169.608931 
L 948.551264 171.109938 
L 961.095357 172.17587 
L 973.639451 173.04058 
L 986.183544 173.671438 
L 993.71 173.937921 
L 993.71 173.937921 
" clip-path="url(#pc97b3c90a7)" style="fill: none; stroke: #ffa500; stroke-width: 2.5; stroke-linecap: square"/>
   </g>
   <g id="line2d_125">
    <path d="M 80.5 269.779378 
L 105.588187 271.204246 
L 123.149918 272.025449 
L 140.711648 272.656307 
L 160.782198 273.118574 
L 178.343929 273.287165 
L 198.414478 273.227342 
L 218.485027 272.92279 
L 241.064396 272.340878 
L 278.696676 271.008463 
L 338.908324 268.762391 
L 361.487692 268.120656 
L 384.06706 267.680143 
L 406.646429 267.478922 
L 429.225797 267.522429 
L 454.313984 267.848735 
L 484.419808 268.533977 
L 564.702005 270.535319 
L 587.281374 270.769172 
L 607.351923 270.769172 
L 629.931291 270.513566 
L 650.001841 270.073053 
L 670.07239 269.453072 
L 695.160577 268.479593 
L 747.845769 266.086683 
L 780.460412 264.705322 
L 805.548599 263.884119 
L 825.619148 263.454483 
L 843.180879 263.280453 
L 860.74261 263.329399 
L 875.795522 263.546937 
L 893.357253 264.014642 
L 910.918984 264.694445 
L 933.498352 265.831077 
L 958.586538 267.342961 
L 993.71 269.589033 
L 993.71 269.589033 
" clip-path="url(#pc97b3c90a7)" style="fill: none; stroke: #ffd700; stroke-width: 2.5; stroke-linecap: square"/>
   </g>
   <g id="line2d_126">
    <path d="M 80.5 365.615395 
L 93.044093 366.947811 
L 110.605824 369.036168 
L 133.185192 371.97292 
L 205.940934 381.642449 
L 231.029121 384.698847 
L 266.152582 388.70697 
L 311.311319 393.596119 
L 366.50533 399.562077 
L 411.664066 404.451226 
L 434.243434 406.751682 
L 456.822802 408.80197 
L 471.875714 409.971232 
L 486.928626 410.917519 
L 499.47272 411.521185 
L 512.016813 411.923629 
L 524.560907 412.113974 
L 537.105 412.081343 
L 549.649093 411.81486 
L 562.193187 411.314525 
L 574.73728 410.580337 
L 587.281374 409.617735 
L 599.825467 408.443034 
L 612.36956 407.067111 
L 624.913654 405.506281 
L 639.966566 403.412486 
L 657.528297 400.698709 
L 675.090027 397.756518 
L 700.178214 393.242621 
L 725.266401 388.516625 
L 777.951593 378.564298 
L 798.022143 375.002126 
L 815.583874 372.092566 
L 830.636786 369.802987 
L 845.689698 367.74726 
L 858.233791 366.229938 
L 870.777885 364.924715 
L 883.321978 363.842467 
L 895.866071 362.99951 
L 905.901346 362.510052 
L 915.936621 362.183746 
L 928.480714 362.026031 
L 941.024808 362.1348 
L 953.568901 362.504613 
L 966.112995 363.130033 
L 978.657088 363.994743 
L 993.71 365.305405 
L 993.71 365.305405 
" clip-path="url(#pc97b3c90a7)" style="fill: none; stroke: #dc143c; stroke-width: 2.5; stroke-linecap: square"/>
   </g>
   <g id="text_40">
    <!-- 東京都　－　２０２５年の日の出と日の入りのグラフ -->
    <g transform="translate(345.105 19.935) scale(0.16 -0.16)">
     <defs>
      <path id="NotoSansCJKjp-Regular-6771" d="M 979 3776 
L 979 1421 
L 2534 1421 
C 1958 819 1062 275 262 -6 
C 371 -102 518 -288 595 -410 
C 1414 -83 2323 531 2938 1222 
L 2938 -512 
L 3430 -512 
L 3430 1242 
C 4051 544 4979 -90 5818 -422 
C 5894 -294 6048 -109 6157 -6 
C 5344 262 4429 819 3840 1421 
L 5498 1421 
L 5498 3776 
L 3430 3776 
L 3430 4314 
L 6016 4314 
L 6016 4768 
L 3430 4768 
L 3430 5370 
L 2938 5370 
L 2938 4768 
L 422 4768 
L 422 4314 
L 2938 4314 
L 2938 3776 
L 979 3776 
z
M 1446 2426 
L 2938 2426 
L 2938 1805 
L 1446 1805 
L 1446 2426 
z
M 3430 2426 
L 5005 2426 
L 5005 1805 
L 3430 1805 
L 3430 2426 
z
M 1446 3392 
L 2938 3392 
L 2938 2784 
L 1446 2784 
L 1446 3392 
z
M 3430 3392 
L 5005 3392 
L 5005 2784 
L 3430 2784 
L 3430 3392 
z
" transform="scale(0.015625)"/>
      <path id="NotoSansCJKjp-Regular-4eac" d="M 1677 3168 
L 4755 3168 
L 4755 2112 
L 1677 2112 
L 1677 3168 
z
M 4397 1101 
C 4826 666 5350 58 5587 -320 
L 6048 -70 
C 5792 301 5254 890 4826 1312 
L 4397 1101 
z
M 1466 1318 
C 1235 877 755 339 294 6 
C 410 -51 582 -179 678 -275 
C 1158 90 1651 653 1952 1158 
L 1466 1318 
z
M 2931 5382 
L 2931 4634 
L 416 4634 
L 416 4173 
L 5997 4173 
L 5997 4634 
L 3437 4634 
L 3437 5382 
L 2931 5382 
z
M 1203 3590 
L 1203 1690 
L 2938 1690 
L 2938 58 
C 2938 -32 2912 -58 2797 -64 
C 2682 -70 2278 -70 1837 -58 
C 1907 -192 1978 -378 2003 -512 
C 2566 -512 2931 -512 3149 -442 
C 3373 -371 3437 -237 3437 45 
L 3437 1690 
L 5261 1690 
L 5261 3590 
L 1203 3590 
z
" transform="scale(0.015625)"/>
      <path id="NotoSansCJKjp-Regular-90fd" d="M 3251 5158 
C 3123 4851 2976 4563 2810 4288 
L 2810 4634 
L 2003 4634 
L 2003 5325 
L 1555 5325 
L 1555 4634 
L 570 4634 
L 570 4205 
L 1555 4205 
L 1555 3437 
L 275 3437 
L 275 3008 
L 1811 3008 
C 1318 2522 755 2118 134 1811 
C 224 1722 378 1523 435 1421 
C 614 1517 787 1619 954 1734 
L 954 -480 
L 1389 -480 
L 1389 -102 
L 2835 -102 
L 2835 -390 
L 3296 -390 
L 3296 2387 
L 1798 2387 
C 2016 2579 2221 2790 2413 3008 
L 3584 3008 
L 3584 3437 
L 2758 3437 
C 3123 3917 3430 4448 3686 5024 
L 3251 5158 
z
M 2003 4205 
L 2758 4205 
C 2592 3936 2406 3680 2202 3437 
L 2003 3437 
L 2003 4205 
z
M 1389 301 
L 1389 979 
L 2835 979 
L 2835 301 
L 1389 301 
z
M 1389 1363 
L 1389 1990 
L 2835 1990 
L 2835 1363 
L 1389 1363 
z
M 3859 5011 
L 3859 -512 
L 4333 -512 
L 4333 4557 
L 5530 4557 
C 5318 4045 5030 3354 4742 2810 
C 5414 2253 5619 1766 5619 1357 
C 5626 1126 5574 941 5427 851 
C 5344 806 5242 781 5126 781 
C 4986 768 4794 774 4582 794 
C 4666 659 4717 454 4723 320 
C 4928 307 5152 307 5325 326 
C 5491 346 5638 397 5760 474 
C 5990 621 6086 922 6086 1318 
C 6086 1773 5914 2278 5235 2874 
C 5549 3469 5901 4205 6163 4813 
L 5818 5030 
L 5741 5011 
L 3859 5011 
z
" transform="scale(0.015625)"/>
      <path id="NotoSansCJKjp-Regular-3000" transform="scale(0.015625)"/>
      <path id="NotoSansCJKjp-Regular-ff0d" d="M 5523 2624 
L 877 2624 
L 877 2182 
L 5523 2182 
L 5523 2624 
z
" transform="scale(0.015625)"/>
      <path id="NotoSansCJKjp-Regular-5e74" d="M 307 1427 
L 307 966 
L 3277 966 
L 3277 -512 
L 3770 -512 
L 3770 966 
L 6106 966 
L 6106 1427 
L 3770 1427 
L 3770 2701 
L 5658 2701 
L 5658 3155 
L 3770 3155 
L 3770 4141 
L 5805 4141 
L 5805 4602 
L 1965 4602 
C 2074 4819 2170 5043 2259 5274 
L 1773 5402 
C 1466 4531 934 3699 320 3174 
C 442 3104 646 2944 736 2867 
C 1082 3200 1421 3642 1715 4141 
L 3277 4141 
L 3277 3155 
L 1363 3155 
L 1363 1427 
L 307 1427 
z
M 1843 1427 
L 1843 2701 
L 3277 2701 
L 3277 1427 
L 1843 1427 
z
" transform="scale(0.015625)"/>
      <path id="NotoSansCJKjp-Regular-65e5" d="M 1619 2253 
L 4813 2253 
L 4813 454 
L 1619 454 
L 1619 2253 
z
M 1619 2726 
L 1619 4461 
L 4813 4461 
L 4813 2726 
L 1619 2726 
z
M 1126 4941 
L 1126 -442 
L 1619 -442 
L 1619 -26 
L 4813 -26 
L 4813 -410 
L 5325 -410 
L 5325 4941 
L 1126 4941 
z
" transform="scale(0.015625)"/>
      <path id="NotoSansCJKjp-Regular-51fa" d="M 966 4768 
L 966 2560 
L 2918 2560 
L 2918 365 
L 1203 365 
L 1203 2144 
L 723 2144 
L 723 -512 
L 1203 -512 
L 1203 -109 
L 5222 -109 
L 5222 -499 
L 5715 -499 
L 5715 2144 
L 5222 2144 
L 5222 365 
L 3418 365 
L 3418 2560 
L 5459 2560 
L 5459 4768 
L 4960 4768 
L 4960 3021 
L 3418 3021 
L 3418 5344 
L 2918 5344 
L 2918 3021 
L 1446 3021 
L 1446 4768 
L 966 4768 
z
" transform="scale(0.015625)"/>
      <path id="NotoSansCJKjp-Regular-3068" d="M 1971 4979 
L 1466 4768 
C 1760 4070 2099 3322 2394 2797 
C 1709 2317 1286 1798 1286 1139 
C 1286 179 2157 -179 3360 -179 
C 4160 -179 4896 -102 5382 -19 
L 5382 550 
C 4883 422 4032 333 3334 333 
C 2323 333 1818 666 1818 1197 
C 1818 1683 2176 2106 2771 2490 
C 3398 2906 4282 3328 4717 3552 
C 4902 3648 5062 3731 5210 3821 
L 4928 4275 
C 4794 4166 4659 4083 4474 3974 
C 4122 3782 3430 3443 2829 3078 
C 2547 3584 2227 4275 1971 4979 
z
" transform="scale(0.015625)"/>
      <path id="NotoSansCJKjp-Regular-5165" d="M 2842 3731 
C 2451 1920 1651 627 230 -115 
C 358 -205 582 -403 666 -499 
C 1946 250 2758 1427 3238 3085 
C 3533 1869 4218 461 5798 -493 
C 5882 -371 6074 -173 6189 -83 
C 3661 1414 3514 3846 3514 4986 
L 1459 4986 
L 1459 4499 
L 3040 4499 
C 3053 4256 3078 3981 3123 3680 
L 2842 3731 
z
" transform="scale(0.015625)"/>
      <path id="NotoSansCJKjp-Regular-308a" d="M 2170 5050 
L 1606 5069 
C 1594 4896 1581 4710 1555 4518 
C 1478 4000 1357 3059 1357 2451 
C 1357 2035 1395 1677 1427 1434 
L 1920 1472 
C 1882 1792 1875 2010 1907 2259 
C 1984 3098 2726 4262 3526 4262 
C 4198 4262 4544 3533 4544 2522 
C 4544 915 3456 346 2067 141 
L 2368 -320 
C 3955 -32 5069 749 5069 2528 
C 5069 3872 4461 4723 3610 4723 
C 2797 4723 2131 3923 1869 3270 
C 1907 3718 2035 4582 2170 5050 
z
" transform="scale(0.015625)"/>
      <path id="NotoSansCJKjp-Regular-30b0" d="M 4896 5120 
L 4557 4973 
C 4730 4736 4947 4346 5075 4090 
L 5421 4243 
C 5286 4506 5056 4890 4896 5120 
z
M 5600 5376 
L 5261 5229 
C 5440 4992 5651 4627 5792 4352 
L 6131 4506 
C 6016 4742 5766 5139 5600 5376 
z
M 3174 4813 
L 2586 5011 
C 2547 4845 2451 4614 2387 4499 
C 2106 3930 1478 2995 371 2336 
L 819 2010 
C 1523 2470 2054 3040 2445 3584 
L 4602 3584 
C 4474 3002 4077 2170 3584 1587 
C 3002 902 2202 326 1024 -19 
L 1491 -442 
C 2688 6 3456 589 4038 1299 
C 4608 1997 4998 2861 5171 3507 
C 5203 3610 5267 3757 5318 3846 
L 4896 4102 
C 4794 4064 4653 4045 4480 4045 
L 2746 4045 
L 2893 4314 
C 2957 4429 3072 4646 3174 4813 
z
" transform="scale(0.015625)"/>
      <path id="NotoSansCJKjp-Regular-30e9" d="M 1478 4768 
L 1478 4237 
C 1651 4250 1856 4256 2054 4256 
C 2406 4256 4205 4256 4563 4256 
C 4781 4256 4998 4250 5152 4237 
L 5152 4768 
C 4998 4742 4774 4736 4570 4736 
C 4192 4736 2400 4736 2054 4736 
C 1850 4736 1645 4742 1478 4768 
z
M 5619 3078 
L 5254 3309 
C 5184 3270 5050 3258 4902 3258 
C 4576 3258 1850 3258 1530 3258 
C 1357 3258 1139 3270 902 3296 
L 902 2758 
C 1133 2771 1376 2778 1530 2778 
C 1914 2778 4614 2778 4928 2778 
C 4813 2317 4557 1773 4166 1363 
C 3622 787 2822 378 1914 192 
L 2310 -262 
C 3123 -38 3930 339 4602 1075 
C 5075 1594 5363 2259 5536 2893 
C 5549 2938 5587 3021 5619 3078 
z
" transform="scale(0.015625)"/>
      <path id="NotoSansCJKjp-Regular-30d5" d="M 5510 4256 
L 5120 4506 
C 4998 4474 4877 4474 4781 4474 
C 4486 4474 1933 4474 1568 4474 
C 1357 4474 1107 4493 928 4512 
L 928 3949 
C 1094 3955 1312 3968 1568 3968 
C 1933 3968 4467 3968 4838 3968 
C 4749 3354 4454 2464 4000 1882 
C 3462 1197 2746 653 1504 339 
L 1939 -141 
C 3117 230 3878 826 4461 1574 
C 4966 2234 5274 3264 5414 3936 
C 5440 4058 5466 4166 5510 4256 
z
" transform="scale(0.015625)"/>
     </defs>
     <use xlink:href="#NotoSansCJKjp-Regular-6771"/>
     <use xlink:href="#NotoSansCJKjp-Regular-4eac" transform="translate(99.999985 0)"/>
     <use xlink:href="#NotoSansCJKjp-Regular-90fd" transform="translate(199.999969 0)"/>
     <use xlink:href="#NotoSansCJKjp-Regular-3000" transform="translate(299.999954 0)"/>
     <use xlink:href="#NotoSansCJKjp-Regular-ff0d" transform="translate(399.999939 0)"/>
     <use xlink:href="#NotoSansCJKjp-Regular-3000" transform="translate(499.999924 0)"/>
     <use xlink:href="#NotoSansCJKjp-Regular-ff12" transform="translate(599.999908 0)"/>
     <use xlink:href="#NotoSansCJKjp-Regular-ff10" transform="translate(699.999893 0)"/>
     <use xlink:href="#NotoSansCJKjp-Regular-ff12" transform="translate(799.999878 0)"/>
     <use xlink:href="#NotoSansCJKjp-Regular-ff15" transform="translate(899.999863 0)"/>
     <use xlink:href="#NotoSansCJKjp-Regular-5e74" transform="translate(999.999847 0)"/>
     <use xlink:href="#NotoSansCJKjp-Regular-306e" transform="translate(1099.999832 0)"/>
     <use xlink:href="#NotoSansCJKjp-Regular-65e5" transform="translate(1199.999817 0)"/>
     <use xlink:href="#NotoSansCJKjp-Regular-306e" transform="translate(1299.999802 0)"/>
     <use xlink:href="#NotoSansCJKjp-Regular-51fa" transform="translate(1399.999786 0)"/>
     <use xlink:href="#NotoSansCJKjp-Regular-3068" transform="translate(1499.999771 0)"/>
     <use xlink:href="#NotoSansCJKjp-Regular-65e5" transform="translate(1599.999756 0)"/>
     <use xlink:href="#NotoSansCJKjp-Regular-306e" transform="translate(1699.999741 0)"/>
     <use xlink:href="#NotoSansCJKjp-Regular-5165" transform="translate(1799.999725 0)"/>
     <use xlink:href="#NotoSansCJKjp-Regular-308a" transform="translate(1899.99971 0)"/>
     <use xlink:href="#NotoSansCJKjp-Regular-306e" transform="translate(1999.999695 0)"/>
     <use xlink:href="#NotoSansCJKjp-Regular-30b0" transform="translate(2099.99968 0)"/>
     <use xlink:href="#NotoSansCJKjp-Regular-30e9" transform="translate(2199.999664 0)"/>
     <use xlink:href="#NotoSansCJKjp-Regular-30d5" transform="translate(2299.999649 0)"/>
    </g>
   </g>
   <g id="legend_1">
    <g id="patch_7">
     <path d="M 906.81 99.06 
L 986.01 99.06 
Q 988.21 99.06 988.21 96.86 
L 988.21 47.635 
Q 988.21 45.435 986.01 45.435 
L 906.81 45.435 
Q 904.61 45.435 904.61 47.635 
L 904.61 96.86 
Q 904.61 99.06 906.81 99.06 
z
" style="fill: #ffffff; opacity: 0.9; stroke: #cccccc; stroke-linejoin: miter"/>
    </g>
    <g id="line2d_127">
     <path d="M 909.01 54.740312 
L 920.01 54.740312 
L 931.01 54.740312 
" style="fill: none; stroke: #ffa500; stroke-width: 2.5; stroke-linecap: square"/>
    </g>
    <g id="text_41">
     <!-- 日の出 -->
     <g transform="translate(939.81 58.590312) scale(0.11 -0.11)">
      <use xlink:href="#NotoSansCJKjp-Regular-65e5"/>
      <use xlink:href="#NotoSansCJKjp-Regular-306e" transform="translate(99.999985 0)"/>
      <use xlink:href="#NotoSansCJKjp-Regular-51fa" transform="translate(199.999969 0)"/>
     </g>
    </g>
    <g id="line2d_128">
     <path d="M 909.01 71.515312 
L 920.01 71.515312 
L 931.01 71.515312 
" style="fill: none; stroke: #ffd700; stroke-width: 2.5; stroke-linecap: square"/>
    </g>
    <g id="text_42">
     <!-- 正午 -->
     <g transform="translate(939.81 75.365312) scale(0.11 -0.11)">
      <defs>
       <path id="NotoSansCJKjp-Regular-6b63" d="M 1203 3264 
L 1203 243 
L 333 243 
L 333 -224 
L 6080 -224 
L 6080 243 
L 3616 243 
L 3616 2259 
L 5619 2259 
L 5619 2726 
L 3616 2726 
L 3616 4435 
L 5869 4435 
L 5869 4909 
L 576 4909 
L 576 4435 
L 3110 4435 
L 3110 243 
L 1696 243 
L 1696 3264 
L 1203 3264 
z
" transform="scale(0.015625)"/>
       <path id="NotoSansCJKjp-Regular-5348" d="M 346 2438 
L 346 1952 
L 2957 1952 
L 2957 -518 
L 3450 -518 
L 3450 1952 
L 6061 1952 
L 6061 2438 
L 3450 2438 
L 3450 4045 
L 5574 4045 
L 5574 4518 
L 1843 4518 
C 1946 4762 2042 5018 2125 5274 
L 1626 5395 
C 1363 4518 909 3667 358 3130 
C 480 3066 698 2918 794 2835 
C 1088 3162 1370 3578 1613 4045 
L 2957 4045 
L 2957 2438 
L 346 2438 
z
" transform="scale(0.015625)"/>
      </defs>
      <use xlink:href="#NotoSansCJKjp-Regular-6b63"/>
      <use xlink:href="#NotoSansCJKjp-Regular-5348" transform="translate(99.999985 0)"/>
     </g>
    </g>
    <g id="line2d_129">
     <path d="M 909.01 88.290312 
L 920.01 88.290312 
L 931.01 88.290312 
" style="fill: none; stroke: #dc143c; stroke-width: 2.5; stroke-linecap: square"/>
    </g>
    <g id="text_43">
     <!-- 日の入り -->
     <g transform="translate(939.81 92.140312) scale(0.11 -0.11)">
      <use xlink:href="#NotoSansCJKjp-Regular-65e5"/>
      <use xlink:href="#NotoSansCJKjp-Regular-306e" transform="translate(99.999985 0)"/>
      <use xlink:href="#NotoSansCJKjp-Regular-5165" transform="translate(199.999969 0)"/>
      <use xlink:href="#NotoSansCJKjp-Regular-308a" transform="translate(299.999954 0)"/>
     </g>
    </g>
   </g>
  </g>
 </g>
 <defs>
  <clipPath id="pc97b3c90a7">
   <rect x="80.5" y="39.935" width="913.21" height="469.880373"/>
  </clipPath>
 </defs>
</svg>
